<svg xmlns="http://www.w3.org/2000/svg" width="120" height="120" viewBox="0 0 120 120"><g transform="translate(-240 -3672)"><rect width="120" height="120" transform="translate(240 3672)" fill="none"/><path d="M31.022,81.333,22.065,63.744l-1.609.611a4.1,4.1,0,0,1-1.472.272,4.16,4.16,0,0,1-1.694-.363,4.111,4.111,0,0,1-2.168-2.3l-.109-.286-4.025,1.526a5.271,5.271,0,0,1-1.906.353A5.406,5.406,0,0,1,4.032,60.07L.352,50.361a5.41,5.41,0,0,1,3.136-6.966L7.5,41.874l-.112-.295a4.124,4.124,0,0,1,2.39-5.323l25.015-9.492L55.33.938a2.483,2.483,0,0,1,4.265.665L80.707,57.247a2.493,2.493,0,0,1-.4,2.46,2.459,2.459,0,0,1-1.905.9,2,2,0,0,1-.424-.04l-32.519-5.7L38.768,57.4l.945,2.485a6.246,6.246,0,0,1-.786,5.887L37.9,67.2l4.829,9.2a2.024,2.024,0,0,1,.1,1.674,2.064,2.064,0,0,1-1.189,1.19l-8.076,3.065a2.234,2.234,0,0,1-.726.121A2.028,2.028,0,0,1,31.022,81.333Zm2.288-2.157,6.221-2.359-5.192-9.88,2.137-2.944a3.179,3.179,0,0,0,.4-3.035l-.938-2.47L26.77,61.958l-1.857.705ZM17.955,60.907a1.106,1.106,0,0,0,1.422.646l1.318-.5-.007-.014L37.7,54.585l0,.009,5.652-2.146L35.018,30.455l-.175-.461L10.868,39.1a1.106,1.106,0,0,0-.646,1.422l.107.281.025-.009,7.521,19.8-.033.013ZM4.546,46.227a2.383,2.383,0,0,0-1.381,3.065L6.845,59A2.384,2.384,0,0,0,9.91,60.383l4.031-1.532L8.572,44.7Zm32.9-17.916,8.973,23.653,31.134,5.454L57.114,3.57ZM16.712,41.981,31.52,36.362l1.073,2.827-14.808,5.62Zm64.733.889.244-3.015,9.536.774-.244,3.015Zm-2.78-18.295,8.945-3.394,1.073,2.828L79.737,27.4Zm-8.977-12.7,6.629-6.913L78.5,7.059l-6.629,6.913Z" transform="translate(254 3691)" fill="#fff"/></g></svg>