<svg xmlns="http://www.w3.org/2000/svg" width="91.3" height="91.3" viewBox="0 0 91.3 91.3"><path d="M55.829,89.609V80.04a1.725,1.725,0,0,1,1.691-1.691,1.692,1.692,0,0,1,1.657,1.691v9.569a1.674,1.674,0,1,1-3.348,0ZM11.836,79.465a16.355,16.355,0,0,1,0-23.13L27.492,40.781a16.3,16.3,0,0,1,23.028,0,1.726,1.726,0,0,1,0,2.4,1.69,1.69,0,0,1-2.4,0,13.187,13.187,0,0,0-18.226,0L14.338,58.736A12.888,12.888,0,0,0,32.564,76.962L48.119,61.408a1.689,1.689,0,0,1,2.4.1,1.726,1.726,0,0,1,0,2.4L34.965,79.465a16.353,16.353,0,0,1-23.128,0Zm68.305,3.043-6.763-6.762a1.674,1.674,0,0,1,2.367-2.367l6.8,6.73a1.724,1.724,0,0,1,0,2.4,1.827,1.827,0,0,1-1.218.474A1.762,1.762,0,0,1,80.141,82.508Zm-.1-23.332a1.691,1.691,0,0,1-1.691-1.691,1.726,1.726,0,0,1,1.691-1.691h9.57a1.691,1.691,0,0,1,0,3.382ZM40.883,50.418a1.723,1.723,0,0,1,0-2.4,1.69,1.69,0,0,1,2.4,0,13.189,13.189,0,0,0,18.226,0L77.064,32.462A12.888,12.888,0,0,0,58.838,14.236L43.284,29.79a1.69,1.69,0,0,1-2.4,0,1.722,1.722,0,0,1,0-2.4L56.437,11.835A16.283,16.283,0,1,1,79.465,34.863L63.911,50.418a16.3,16.3,0,0,1-23.028,0ZM1.691,35.506a1.708,1.708,0,0,1,0-3.415H11.26a1.69,1.69,0,0,1,1.691,1.691,1.725,1.725,0,0,1-1.691,1.724ZM15.556,17.922l-6.8-6.729a1.7,1.7,0,1,1,2.4-2.4l6.762,6.763a1.673,1.673,0,1,1-2.366,2.366ZM32.124,11.26V1.691a1.674,1.674,0,1,1,3.348,0V11.26a1.725,1.725,0,0,1-1.691,1.691A1.691,1.691,0,0,1,32.124,11.26Z" transform="translate(0)" fill="#fff"/></svg>