<svg xmlns="http://www.w3.org/2000/svg" width="236.295" height="158.593" viewBox="0 0 236.295 158.593"><g transform="translate(-1076.234 -4465.092)"><g transform="translate(1180.764 4523.011)"><rect width="16.081" height="2.862" transform="translate(0 0)" fill="#93b3f4"/></g><g transform="translate(1182.73 4521.042)"><rect width="16.081" height="1.968" transform="translate(0 0)" fill="#b7d3f3"/></g><g transform="translate(1181.812 4519.075)"><rect width="15.418" height="1.968" transform="translate(0 0)" fill="#93b3f4"/></g><g transform="translate(1183.679 4517.571)"><rect width="13.924" height="1.503" transform="translate(0 0)" fill="#bed2fa"/></g><g transform="translate(1183.259 4515.603)"><rect width="16.081" height="1.968" transform="translate(0)" fill="#b7d3f3"/></g><g transform="translate(1182.342 4513.635)"><rect width="15.417" height="1.968" transform="translate(0 0)" fill="#93b3f4"/></g><g transform="translate(1184.209 4512.131)"><rect width="13.923" height="1.503" transform="translate(0 0)" fill="#bed2fa"/></g><g transform="translate(1176.849 4506.956)"><rect width="3.464" height="18.534" transform="matrix(0.985, 0.172, -0.172, 0.985, 3.188, 0)" fill="#b7d3f3"/></g><g transform="translate(1172.977 4488.764)"><rect width="3.465" height="14.572" transform="translate(0 0)" fill="#93b3f4"/></g><g transform="translate(1177.089 4487.493)"><rect width="3.464" height="15.844" fill="#92b5f9"/></g><g transform="translate(1149.833 4534.582)"><rect width="3.464" height="13.828" transform="translate(0 0)" fill="#bed2fa"/></g><g transform="translate(1153.297 4533.837)"><rect width="3.464" height="14.572" transform="translate(0 0)" fill="#6d89cf"/></g><g transform="translate(1157.315 4533.837)"><rect width="3.464" height="14.572" transform="translate(0 0)" fill="#93b3f4"/></g><g transform="translate(1161.427 4532.566)"><rect width="3.464" height="15.844" transform="translate(0)" fill="#92b5f9"/></g><g transform="translate(1198.52 4545.618)"><rect width="16.081" height="2.862" transform="translate(0 0)" fill="#93b3f4"/></g><g transform="translate(1200.486 4543.649)"><rect width="16.081" height="1.968" transform="translate(0 0)" fill="#b7d3f3"/></g><g transform="translate(1199.569 4541.681)"><rect width="15.417" height="1.968" transform="translate(0)" fill="#93b3f4"/></g><g transform="translate(1201.436 4540.178)"><rect width="13.924" height="1.503" transform="translate(0 0)" fill="#bed2fa"/></g><g transform="translate(1201.016 4538.21)"><rect width="16.081" height="1.968" transform="translate(0)" fill="#b7d3f3"/></g><g transform="translate(1200.098 4536.242)"><rect width="15.417" height="1.968" transform="translate(0 0)" fill="#93b3f4"/></g><g transform="translate(1201.965 4534.738)"><rect width="13.924" height="1.503" transform="translate(0 0)" fill="#bed2fa"/></g><g transform="translate(1190.206 4531.847)"><rect width="2.741" height="16.57" transform="translate(0 0)" fill="#c1d9f4"/></g><g transform="translate(1181.901 4532.573)"><rect width="2.741" height="15.844" transform="translate(0 0)" fill="#c1d9f4"/></g><g transform="translate(1177.866 4531.267)"><rect width="3.464" height="17.15" transform="translate(0 0)" fill="#fff"/></g><g transform="translate(1194.606 4529.563)"><rect width="3.465" height="18.534" transform="translate(3.187 0) rotate(9.902)" fill="#b7d3f3"/></g><g transform="translate(1173.333 4534.589)"><rect width="3.464" height="13.828" transform="translate(0 0)" fill="#bed2fa"/></g><g transform="translate(1169.387 4533.844)"><rect width="3.465" height="14.572" transform="translate(0 0)" fill="#93b3f4"/></g><g transform="translate(1076.234 4474.347)"><path d="M1306.886,917.905H1146.879V779.639a11.084,11.084,0,0,1,11.071-11.072h139.642a9.3,9.3,0,0,1,9.293,9.293Zm-157.49-2.517h154.973V777.86a6.784,6.784,0,0,0-6.776-6.776H1157.95a8.564,8.564,0,0,0-8.555,8.555Z" transform="translate(-1146.879 -768.567)" fill="#bed2fa"/><g transform="translate(1.258 28.99)"><rect width="157.49" height="2.799" fill="#bed2fa"/></g><g transform="translate(1.258 51.526)"><rect width="157.49" height="2.799" fill="#bed2fa"/></g><g transform="translate(1.258 74.063)"><rect width="157.49" height="2.799" fill="#bed2fa"/></g><g transform="translate(1.258 96.682)"><rect width="157.49" height="2.799" fill="#bed2fa"/></g></g><g transform="translate(1081.068 4552.111)"><g transform="translate(30.777 4.282)"><rect width="3.933" height="14.635" transform="translate(3.933 14.635) rotate(180)" fill="#bed2fa"/></g><g transform="translate(26.451 3.01)"><rect width="3.408" height="15.907" transform="translate(3.408 15.907) rotate(180)" fill="#bed2fa"/></g><g transform="translate(21.137 2.862)"><rect width="3.408" height="15.907" transform="matrix(-0.993, -0.121, 0.121, -0.993, 3.383, 16.203)" fill="#93b3f4"/></g><g transform="translate(140.664 4.282)"><rect width="3.933" height="14.635" transform="translate(3.933 14.635) rotate(180)" fill="#bed2fa"/></g><g transform="translate(136.339 3.01)"><rect width="3.408" height="15.907" transform="translate(3.408 15.907) rotate(180)" fill="#bed2fa"/></g><g transform="translate(131.024 2.862)"><rect width="3.408" height="15.907" transform="translate(3.383 16.203) rotate(-173.025)" fill="#93b3f4"/></g><g transform="translate(1.966 16.055)"><rect width="16.081" height="2.862" transform="translate(16.081 2.862) rotate(180)" fill="#6d89cf"/></g><g transform="translate(0 14.087)"><rect width="16.081" height="1.968" transform="translate(16.081 1.968) rotate(180)" fill="#bed2fa"/></g><g transform="translate(1.581 12.118)"><rect width="15.417" height="1.968" transform="translate(15.417 1.968) rotate(180)" fill="#93b3f4"/></g><g transform="translate(1.208 10.615)"><rect width="13.923" height="1.503" transform="translate(13.923 1.503) rotate(180)" fill="#bed2fa"/></g><g transform="translate(79.154 16.055)"><rect width="16.081" height="2.862" transform="translate(16.081 2.862) rotate(180)" fill="#93b3f4"/></g><g transform="translate(77.187 14.087)"><rect width="16.081" height="1.968" transform="translate(16.081 1.968) rotate(180)" fill="#bed2fa"/></g><g transform="translate(78.768 12.118)"><rect width="15.417" height="1.968" transform="translate(15.417 1.968) rotate(180)" fill="#93b3f4"/></g><g transform="translate(78.395 10.615)"><rect width="13.924" height="1.503" transform="translate(13.924 1.503) rotate(180)" fill="#bed2fa"/></g><g transform="translate(76.658 8.647)"><rect width="16.081" height="1.968" transform="translate(16.081 1.968) rotate(180)" fill="#bed2fa"/></g><g transform="translate(78.239 6.679)"><rect width="15.417" height="1.968" transform="translate(15.417 1.968) rotate(180)" fill="#93b3f4"/></g><g transform="translate(77.866 5.176)"><rect width="13.923" height="1.503" transform="translate(13.923 1.503) rotate(180)" fill="#bed2fa"/></g><g transform="translate(67.099 3.01)"><rect width="2.741" height="15.844" transform="translate(2.741 15.844) rotate(180)" fill="#c1d9f4"/></g><g transform="translate(100.808 2.284)"><rect width="2.741" height="16.57" transform="translate(2.741 16.57) rotate(180)" fill="#c1d9f4"/></g><g transform="translate(109.112 3.01)"><rect width="2.741" height="15.844" transform="translate(2.741 15.844) rotate(180)" fill="#c1d9f4"/></g><g transform="translate(63.634 1.704)"><rect width="3.464" height="17.15" transform="translate(3.464 17.15) rotate(180)" fill="#fff"/></g><g transform="translate(112.424 1.704)"><rect width="3.464" height="17.15" transform="translate(3.464 17.15) rotate(180)" fill="#fff"/></g><g transform="translate(60.17 2.521)"><rect width="3.464" height="16.333" transform="translate(3.464 16.333) rotate(180)" fill="#bed2fa"/></g><g transform="translate(92.549 0)"><rect width="3.464" height="18.534" transform="translate(6.6 18.258) rotate(170.098)" fill="#bed2fa"/></g><g transform="translate(56.706 5.026)"><rect width="3.464" height="13.828" transform="translate(3.464 13.828) rotate(180)" fill="#bed2fa"/></g><g transform="translate(116.957 5.026)"><rect width="3.464" height="13.828" transform="translate(3.464 13.828) rotate(180)" fill="#bed2fa"/></g><g transform="translate(53.241 4.282)"><rect width="3.465" height="14.572" transform="translate(3.465 14.572) rotate(180)" fill="#6d89cf"/></g><g transform="translate(49.223 4.282)"><rect width="3.464" height="14.572" transform="translate(3.464 14.572) rotate(180)" fill="#93b3f4"/></g><g transform="translate(120.903 4.282)"><rect width="3.464" height="14.572" transform="translate(3.464 14.572) rotate(180)" fill="#93b3f4"/></g><g transform="translate(45.111 3.01)"><rect width="3.464" height="15.844" transform="translate(3.464 15.844) rotate(180)" fill="#92b5f9"/></g><g transform="translate(105.295 3.01)"><rect width="3.464" height="15.844" transform="translate(3.464 15.844) rotate(180)" fill="#92b5f9"/></g></g><g transform="translate(1190.955 4488.764)"><rect width="3.933" height="14.635" fill="#bed2fa"/></g><g transform="translate(1195.805 4487.493)"><rect width="3.408" height="15.907" fill="#bed2fa"/></g><g transform="translate(1199.213 4487.344)"><rect width="3.408" height="15.907" transform="translate(0 0.414) rotate(-6.975)" fill="#93b3f4"/></g><g transform="translate(1127.666 4511.239)"><rect width="3.933" height="14.635" fill="#bed2fa"/></g><g transform="translate(1132.516 4509.968)"><rect width="3.408" height="15.907" fill="#bed2fa"/></g><g transform="translate(1135.924 4509.82)"><rect width="3.408" height="15.907" transform="translate(0 0.414) rotate(-6.975)" fill="#93b3f4"/></g><g transform="translate(1081.068 4488.764)"><rect width="3.933" height="14.635" fill="#bed2fa"/></g><g transform="translate(1085.918 4487.493)"><rect width="3.408" height="15.907" fill="#bed2fa"/></g><g transform="translate(1089.326 4487.344)"><rect width="3.408" height="15.907" transform="matrix(0.993, -0.121, 0.121, 0.993, 0, 0.414)" fill="#93b3f4"/></g><g transform="translate(1207.617 4500.537)"><rect width="16.081" height="2.862" fill="#6d89cf"/></g><g transform="translate(1209.584 4498.569)"><rect width="16.081" height="1.968" fill="#bed2fa"/></g><g transform="translate(1208.666 4496.601)"><rect width="15.417" height="1.968" fill="#93b3f4"/></g><g transform="translate(1210.533 4495.098)"><rect width="13.923" height="1.503" fill="#bed2fa"/></g><g transform="translate(1130.43 4500.537)"><rect width="16.081" height="2.862" fill="#93b3f4"/></g><g transform="translate(1132.396 4498.569)"><rect width="16.081" height="1.968" fill="#bed2fa"/></g><g transform="translate(1131.479 4496.601)"><rect width="15.417" height="1.968" fill="#93b3f4"/></g><g transform="translate(1133.346 4495.098)"><rect width="13.923" height="1.503" fill="#bed2fa"/></g><g transform="translate(1132.926 4493.129)"><rect width="16.081" height="1.968" fill="#bed2fa"/></g><g transform="translate(1132.008 4491.161)"><rect width="15.417" height="1.968" fill="#93b3f4"/></g><g transform="translate(1133.875 4489.658)"><rect width="13.923" height="1.503" fill="#bed2fa"/></g><g transform="translate(1155.824 4487.493)"><rect width="2.741" height="15.844" fill="#c1d9f4"/></g><g transform="translate(1122.116 4486.767)"><rect width="2.741" height="16.57" fill="#c1d9f4"/></g><g transform="translate(1113.812 4487.493)"><rect width="2.741" height="15.844" fill="#c1d9f4"/></g><g transform="translate(1158.566 4486.186)"><rect width="3.464" height="17.15" fill="#fff"/></g><g transform="translate(1109.776 4486.186)"><rect width="3.464" height="17.15" fill="#fff"/></g><g transform="translate(1162.03 4487.003)"><rect width="3.464" height="16.333" fill="#bed2fa"/></g><g transform="translate(1126.516 4484.482)"><rect width="3.464" height="18.534" transform="matrix(0.985, 0.172, -0.172, 0.985, 3.187, 0)" fill="#bed2fa"/></g><g transform="translate(1165.494 4489.508)"><rect width="3.464" height="13.828" fill="#93b3f4"/></g><g transform="translate(1105.243 4489.508)"><rect width="3.464" height="13.828" fill="#bed2fa"/></g><g transform="translate(1168.959 4488.764)"><rect width="3.464" height="14.572" fill="#6d89cf"/></g><g transform="translate(1101.297 4488.764)"><rect width="3.464" height="14.572" fill="#93b3f4"/></g><g transform="translate(1167.862 4508.723)"><rect width="3.464" height="17.15" fill="#fff"/></g><g transform="translate(1163.329 4512.045)"><rect width="3.465" height="13.828" fill="#bed2fa"/></g><g transform="translate(1159.383 4511.3)"><rect width="3.465" height="14.572" fill="#93b3f4"/></g><g transform="translate(1147.805 4511.3)"><rect width="3.465" height="14.572" fill="#93b3f4"/></g><g transform="translate(1142.97 4511.3)"><rect width="3.465" height="14.572" fill="#93b3f4"/></g><g transform="translate(1088.425 4508.723)"><rect width="3.465" height="17.15" fill="#fff"/></g><g transform="translate(1091.896 4508.576)"><rect width="3.464" height="17.15" transform="translate(0 0.421) rotate(-6.979)" fill="#fff"/></g><g transform="translate(1083.892 4512.045)"><rect width="3.464" height="13.828" fill="#bed2fa"/></g><g transform="translate(1079.946 4511.3)"><rect width="3.464" height="14.572" fill="#93b3f4"/></g><g transform="translate(1140.162 4532.566)"><rect width="2.741" height="15.844" fill="#c1d9f4"/></g><g transform="translate(1142.904 4531.259)"><rect width="3.464" height="17.15" fill="#fff"/></g><g transform="translate(1146.368 4532.077)"><rect width="3.464" height="16.333" fill="#bed2fa"/></g><g transform="translate(1202.892 4510.029)"><rect width="3.464" height="15.844" fill="#92b5f9"/></g><g transform="translate(1206.665 4510.029)"><rect width="3.464" height="15.844" fill="#92b5f9"/></g><g transform="translate(1116.905 4487.493)"><rect width="3.465" height="15.844" fill="#92b5f9"/></g><g transform="translate(1110.581 4533.844)"><rect width="3.464" height="14.572" fill="#93b3f4"/></g><g transform="translate(1184.995 4532.573)"><rect width="3.464" height="15.844" transform="translate(0 0)" fill="#92b5f9"/></g><g transform="translate(1252.224 4476.739)"><g transform="translate(0 0)"><rect width="23.732" height="23.024" rx="11.512" fill="#bed2fa"/></g><g transform="translate(1.028 0.997)"><path d="M10.514,0h.648A10.514,10.514,0,0,1,21.676,10.514v0A10.514,10.514,0,0,1,11.162,21.029h-.647A10.515,10.515,0,0,1,0,10.514v0A10.514,10.514,0,0,1,10.514,0Z" fill="#92b5f9"/></g><g transform="translate(2.802 2.607)"><g transform="translate(8.573)"><path d="M2207.08,797.35a.492.492,0,1,1,.492.491A.492.492,0,0,1,2207.08,797.35Z" transform="translate(-2207.08 -796.858)" fill="#bed2fa"/><g transform="translate(3.905 0.934)"><path d="M2229.238,802.394a.492.492,0,1,1,.191.668A.492.492,0,0,1,2229.238,802.394Z" transform="translate(-2229.176 -802.14)" fill="#bed2fa"/></g><g transform="translate(7.14 3.808)"><path d="M2247.709,818.484a.491.491,0,1,1-.147.68A.492.492,0,0,1,2247.709,818.484Z" transform="translate(-2247.483 -818.405)" fill="#bed2fa"/></g><g transform="translate(8.557 8.066)"><path d="M2255.992,842.5a.492.492,0,1,1-.492.492A.492.492,0,0,1,2255.992,842.5Z" transform="translate(-2255.5 -842.497)" fill="#bed2fa"/></g><g transform="translate(7.35 12.771)"><circle cx="0.492" cy="0.492" r="0.492" fill="#bed2fa"/></g><g transform="translate(4.263 15.866)"><path d="M2232.041,886.782a.492.492,0,1,1-.7,0A.492.492,0,0,1,2232.041,886.782Z" transform="translate(-2231.202 -886.638)" fill="#bed2fa"/></g><g transform="translate(0 17.114)"><path d="M2207.08,894.19a.492.492,0,1,1,.492.492A.492.492,0,0,1,2207.08,894.19Z" transform="translate(-2207.08 -893.698)" fill="#bed2fa"/></g></g><g transform="translate(0 0.934)"><g transform="translate(4.652)"><path d="M2185.816,802.394a.491.491,0,1,0-.19.668A.491.491,0,0,0,2185.816,802.394Z" transform="translate(-2184.895 -802.14)" fill="#bed2fa"/></g><g transform="translate(1.417 2.874)"><path d="M2167.347,818.484a.492.492,0,1,0,.146.68A.492.492,0,0,0,2167.347,818.484Z" transform="translate(-2166.588 -818.405)" fill="#bed2fa"/></g><g transform="translate(0 7.132)"><path d="M2159.064,842.5a.492.492,0,1,0,.491.492A.492.492,0,0,0,2159.064,842.5Z" transform="translate(-2158.572 -842.497)" fill="#bed2fa"/></g><g transform="translate(1.207 11.838)"><path d="M2165.547,869.268a.492.492,0,1,0,.7,0A.492.492,0,0,0,2165.547,869.268Z" transform="translate(-2165.403 -869.125)" fill="#bed2fa"/></g><g transform="translate(4.294 14.933)"><path d="M2183.015,886.782a.492.492,0,1,0,.7,0A.491.491,0,0,0,2183.015,886.782Z" transform="translate(-2182.871 -886.638)" fill="#bed2fa"/></g></g></g><g transform="translate(11.734 5.023)"><g transform="translate(0 5.65)"><path d="M2209.112,842.989a.492.492,0,1,1,.492.492A.492.492,0,0,1,2209.112,842.989Z" transform="translate(-2209.112 -842.497)" fill="#bed2fa"/></g><g transform="translate(0.425)"><rect width="0.134" height="6.141" fill="#bed2fa"/></g><g transform="translate(0.306 3.418)"><g transform="translate(0 0)"><rect width="4.139" height="0.403" transform="matrix(0.786, -0.618, 0.618, 0.786, 0, 2.557)" fill="#bed2fa"/></g></g></g></g><g transform="translate(1255.634 4530.101)"><path d="M2215.45,1089.075c-3.061-8.012-16.7-4.037-16.7-4.037s-7.985,15.365-10.7,15.984,4.261-14.469,4.261-14.469c-5.371.021-18.27,7.908-18.27,7.908s2.553,16.729-.227,16.663-1.5-14.928-1.5-14.928c-4.992,2.063-9.191,8.553-9.191,8.553-5.02,10.386,8.576,16.3,8.576,16.3a27.515,27.515,0,0,1-2.169,12.872h0a19.95,19.95,0,0,0-1.3,3.5l1.4-.141q.115-.582.271-1.128a.008.008,0,0,1,0-.007l0-.016c.074-.227.181-.549.316-.942h0v0c.344-.883.571-1.532.709-2v0c1.019-2.764,2.524-6.384,3.686-7.228a2.733,2.733,0,0,1-.365-.613l.365.613c2.921,4.906,15.019,4.553,21.573,2.506s3.447-3.641-.466-6.341-11.381-1.132-13.732-2.108.787-2.506,5.283-2.612,7.176,4.13,14.452,4.09,11.4-14.149,11.4-14.149c-4.821,2.046-14.02.2-14.536-1.482s12.714-2.841,14.721-3.564S2218.511,1097.086,2215.45,1089.075Z" transform="translate(-2162.01 -1084.052)" fill="#bed2fa"/></g><g transform="translate(1087.406 4562.227)"><path d="M1211.935,1309.479c-6.3-7.7,5.57-19.143,5.57-19.143s20.076.825,22.264-1.547-17.027-4.057-17.027-4.057c3.12-5.4,18.5-13.832,18.5-13.832s15.371,12.222,16.908,9.385-14.162-10.127-14.162-10.127c4.957-3.836,13.914-4.319,13.914-4.319,13.353.938,11.459,18.036,11.459,18.036a31.929,31.929,0,0,0,14.211,5.242h0a23.172,23.172,0,0,1,4.277.707l-.952,1.332c-.435-.147-.865-.273-1.292-.378a.01.01,0,0,0-.008,0l-.018,0c-.271-.056-.658-.134-1.131-.226h0c-1.087-.163-1.872-.308-2.421-.438h-.005c-3.371-.569-7.883-1.142-9.4-.459a3.187,3.187,0,0,0-.407-.722l.407.722c3.254,5.771-4.081,17.748-9.923,23.165s-5.654,1.37-6.115-4.127,5.427-12.111,5.8-15.042-2.978-.653-5.679,3.812.018,9.608-4.22,16.91-20.823,3.316-20.823,3.316c4.841-3.673,8.289-14,6.895-15.49s-10.2,11.161-12.081,12.765S1218.235,1317.182,1211.935,1309.479Z" transform="translate(-1210.091 -1265.838)" fill="#bed2fa"/></g><g transform="translate(1147.105 4520.684)"><g transform="translate(2.871 0)"><path d="M0,0H48.872a13,13,0,0,1,13,13v0a13.3,13.3,0,0,1-13.3,13.3H0a0,0,0,0,1,0,0V0A0,0,0,0,1,0,0Z" fill="#fff"/></g><g transform="translate(0 0)"><path d="M1658.792,1041.587v3.957a14.891,14.891,0,0,1-1.135,5.8c-1.45,3.425-4.146,5.727-7.233,5.727H1549.112c-.671,0-1.214-.748-1.214-1.67v-.592c0-.922.543-1.67,1.214-1.67h61.759a11.717,11.717,0,0,0,.867-1.794,14.027,14.027,0,0,0,.905-5.028v-5.029a14.231,14.231,0,0,0-.25-2.677,12.365,12.365,0,0,0-1.432-3.905h-61.849c-.671,0-1.214-.748-1.214-1.671v-.591c0-.924.543-1.672,1.214-1.672h101.823c3.588,0,6.615,3.313,7.554,7.839A14.626,14.626,0,0,1,1658.792,1041.587Z" transform="translate(-1547.898 -1030.766)" fill="#92b5f9"/></g><g transform="translate(2.871 13.15)"><path d="M1564.142,1105.176l7.5.442-7.5.266Z" transform="translate(-1564.142 -1105.176)" fill="#bed2fa"/></g><g transform="translate(2.871 17.277)"><path d="M1564.142,1128.526l17.847.442-17.847.266Z" transform="translate(-1564.142 -1128.526)" fill="#bed2fa"/></g></g><g transform="translate(1146.324 4603.228)"><g transform="translate(0 0)"><path d="M1553.276,1518.3h73.074v-20.457h-73.671a9.2,9.2,0,0,0-9.2,9.2v1.466A9.794,9.794,0,0,0,1553.276,1518.3Z" transform="translate(-1543.482 -1497.843)" fill="#6237ad"/></g><g transform="translate(69.166 0)"><path d="M0,0H82.395A10.343,10.343,0,0,1,92.738,10.343v0A10.114,10.114,0,0,1,82.624,20.457H0a0,0,0,0,1,0,0V0A0,0,0,0,1,0,0Z" transform="translate(92.738 20.457) rotate(180)" fill="#fff"/></g><g transform="translate(62.197 17.397)"><path d="M1.53,0H102.479a1.53,1.53,0,0,1,1.53,1.53v0a1.53,1.53,0,0,1-1.53,1.53H1.53A1.53,1.53,0,0,1,0,1.53v0A1.53,1.53,0,0,1,1.53,0Z" fill="#6237ad"/></g><g transform="translate(62.197 0)"><path d="M1.53,0H102.479a1.53,1.53,0,0,1,1.53,1.53v0a1.53,1.53,0,0,1-1.53,1.53H1.53A1.53,1.53,0,0,1,0,1.53v0A1.53,1.53,0,0,1,1.53,0Z" fill="#6237ad"/></g><g transform="translate(150.66 10.228)"><path d="M2407.237,1555.72l-11.243.344,11.243.207Z" transform="translate(-2395.994 -1555.72)" fill="#bed2fa"/></g><g transform="translate(135.155 5.521)"><path d="M2335.006,1529.081l-26.749.344,26.749.207Z" transform="translate(-2308.258 -1529.081)" fill="#bed2fa"/></g><g transform="translate(135.43 5.796)"><path d="M2309.815,1530.64a4.742,4.742,0,0,1,1.526,2.323,3.6,3.6,0,0,1,.119.808c.063,1.92,0,6.264,0,6.264l3.384-2.172,3.375,2.172v-5.888a4.948,4.948,0,0,0-.827-2.906,1.265,1.265,0,0,0-.935-.6Z" transform="translate(-2309.815 -1530.64)" fill="#b28af8"/><path d="M2309.815,1530.64a4.742,4.742,0,0,1,1.526,2.323l6.782.086s-.266-2.069-1.666-2.409Z" transform="translate(-2309.815 -1530.64)" fill="#b28af8"/></g></g><g transform="translate(1123.386 4546.983)"><g transform="translate(69.363 0)"><path d="M0,0H80.314A12.687,12.687,0,0,1,93,12.687v0A12.406,12.406,0,0,1,80.6,25.093H0a0,0,0,0,1,0,0V0A0,0,0,0,1,0,0Z" transform="translate(93.001 25.093) rotate(-180)" fill="#fff"/></g><g transform="translate(0 0.001)"><path d="M1483,1189.32v5.4a5.284,5.284,0,0,0,.57,2.338,6.838,6.838,0,0,0,3.226,3.039,8.746,8.746,0,0,0,3.744.824H1578.5a1.733,1.733,0,0,1,1.866,1.559v.637a1.733,1.733,0,0,1-1.866,1.558H1426.554a13.741,13.741,0,0,1-10.54-4.577,9.53,9.53,0,0,1-2.328-6.166v-4.26a8.689,8.689,0,0,1,1.2-4.387c1.953-3.374,6.092-5.7,10.881-5.7H1578.5a1.732,1.732,0,0,1,1.866,1.557v.637a1.733,1.733,0,0,1-1.866,1.558h-88.224a8.012,8.012,0,0,0-5.349,1.948,6.062,6.062,0,0,0-1.377,1.785A5.128,5.128,0,0,0,1483,1189.32Z" transform="translate(-1413.685 -1179.585)" fill="#6d89cf"/></g><g transform="translate(151.089 12.546)"><path d="M2279.9,1250.575l-11.275.422,11.275.254Z" transform="translate(-2268.62 -1250.575)" fill="#bed2fa"/></g><g transform="translate(135.539 6.772)"><path d="M2207.458,1217.9l-26.825.422,26.825.254Z" transform="translate(-2180.634 -1217.898)" fill="#bed2fa"/></g><g transform="translate(135.815 7.109)"><path d="M2182.2,1219.81a5.268,5.268,0,0,1,2.356,2.1,2.03,2.03,0,0,1,.184.731c.1,1.738,0,5.671,0,5.671l5.227-1.966,5.213,1.966v-5.33a3.314,3.314,0,0,0-1.278-2.63,2.373,2.373,0,0,0-1.444-.545Z" transform="translate(-2182.197 -1219.81)" fill="#e16ae1"/><path d="M2182.2,1219.81a5.268,5.268,0,0,1,2.356,2.1l10.474.078a3.01,3.01,0,0,0-2.573-2.182Z" transform="translate(-2182.197 -1219.81)" fill="#e75755"/></g></g><g transform="translate(1163.599 4465.092)"><g transform="translate(16.402 19.674)"><path d="M1737.628,827.525s1.9,2.817,2.989,8.738c.951,5.186,1.784,7.1,3.158,8.164s9.022,4.2,9.022,4.2l-.572,1.34s-11.213-1.527-12.472-3.4-6.061-12.946-5.688-15.5S1737.628,827.525,1737.628,827.525Z" transform="translate(-1734.045 -827.525)" fill="#ea8888"/></g><g transform="translate(46.839 73.78)"><path d="M1906.876,1141.432c-.1,1.094,1.422,1.36,3.185,1.448s1.23.449,3.647.886,3.385-.224,3.56-.55c.156-.29-.968-.743-2.165-1.255-.151-.064-.3-.13-.452-.2-1.348-.592-2.1-1.8-3.154-2.922-1-1.061-1.94-4.459-1.94-4.459l-3.284-.7s.922,3.058,1.242,4.364a4.049,4.049,0,0,1-.336,2.28A4.307,4.307,0,0,0,1906.876,1141.432Z" transform="translate(-1906.272 -1133.684)" fill="#fc9290"/></g><g transform="translate(47.438 80.424)"><path d="M1912.852,1173.829c1.763.088,1.23.449,3.647.886s3.385-.224,3.559-.55c.156-.29-.968-.743-2.165-1.255l-.019.021a6.882,6.882,0,0,1-3.66.044c-1.6-.434-3.144-1.39-4.245-1.7a4.3,4.3,0,0,0-.3,1.1C1909.566,1173.475,1911.088,1173.741,1912.852,1173.829Z" transform="translate(-1909.662 -1171.277)" fill="#8060b8"/></g><g transform="translate(10.461 40.129)"><path d="M1704.712,945.731s21.82-1.642,25.928.95,10.7,32.791,10.7,32.791a2.676,2.676,0,0,1-1.314.424,11.03,11.03,0,0,1-2.7-.405s-9.468-13.512-10.135-16.916-.5-6.441-2.023-6.523-20.45,2.3-23.313-2.743a11.624,11.624,0,0,1-.5-10.039Z" transform="translate(-1700.43 -943.271)" fill="#c557c5"/></g><g transform="translate(38.489 77.285)"><path d="M1859.63,1161.264c-.1,1.094,1.422,1.359,3.185,1.447s1.231.449,3.647.886,3.385-.224,3.56-.55c.156-.29-.968-.743-2.165-1.255-.151-.064-.3-.13-.452-.2-1.348-.592-2.1-1.8-3.154-2.921-1-1.061-1.94-4.459-1.94-4.459l-3.284-.7s.922,3.058,1.242,4.364a4.044,4.044,0,0,1-.336,2.28A4.309,4.309,0,0,0,1859.63,1161.264Z" transform="translate(-1859.026 -1153.515)" fill="#fc9290"/></g><g transform="translate(39.088 83.929)"><path d="M1865.6,1193.661c1.763.088,1.23.449,3.647.886s3.385-.223,3.56-.55c.156-.29-.968-.743-2.165-1.255l-.019.021a6.884,6.884,0,0,1-3.66.044c-1.6-.434-3.144-1.39-4.245-1.7a4.311,4.311,0,0,0-.3,1.1C1862.319,1193.307,1863.842,1193.573,1865.6,1193.661Z" transform="translate(-1862.415 -1191.109)" fill="#8060b8"/></g><g transform="translate(4.299 43.942)"><path d="M1671.732,964.843s19.384.917,23.388,3.668,9.412,33.182,9.412,33.182a2.68,2.68,0,0,1-1.33.373,11.029,11.029,0,0,1-2.687-.51s-8.935-13.87-9.469-17.3-.253-6.456-1.767-6.6-20.524,1.5-23.189-3.649S1671.732,964.843,1671.732,964.843Z" transform="translate(-1665.562 -964.843)" fill="#e16ae1"/></g><g transform="translate(0 0)"><path d="M1660.383,718.519a5.025,5.025,0,0,0-2.507-1.18,1.273,1.273,0,0,1,.624-.121,4.219,4.219,0,0,0-1.555.006c-5.655-4.027-9.011,4.96-9.43,7.14a14.766,14.766,0,0,1-3.852,8c-6.834,6.933,2.929,14.956,2.929,14.956.041.041,4.9-10.358,9.78-12.029a12.47,12.47,0,0,0,2.52-3.988,11.786,11.786,0,0,1-1.864,3.715C1661.4,732.672,1662.348,720.416,1660.383,718.519Z" transform="translate(-1641.234 -716.198)" fill="#fff"/></g><g transform="translate(9.626 16.354)"><path d="M1695.73,808.812a21.852,21.852,0,0,1,3.61,0,11.6,11.6,0,0,1,3.133.786c1.708.714,1.529,3.739-2.056,3.179S1695.479,809.709,1695.73,808.812Z" transform="translate(-1695.701 -808.736)" fill="#fc9290"/></g><g transform="translate(9.822 11.914)"><path d="M1703.235,790.337c.021.011.511,2.6-1.836,2.5-1.541-.068-4.864-1.932-4.57-3.252a16.321,16.321,0,0,0,1.538-5.968l.28.075,4.716,1.265s-.209,1.5-.307,2.914C1702.975,789.059,1702.972,790.192,1703.235,790.337Z" transform="translate(-1696.811 -783.616)" fill="#fc9290"/></g><g transform="translate(11.659 11.989)"><path d="M1711.921,785.3s-.209,1.5-.307,2.914c-2.669-.254-3.92-2.788-4.41-4.179Z" transform="translate(-1707.205 -784.04)" fill="#ea8888"/></g><g transform="translate(10.533 2.163)"><path d="M1701.515,737.44a14.086,14.086,0,0,1-.664-4.421c.1-1.372,2.019-6.066,6.729-4.111a6.855,6.855,0,0,1,2.487,1.748c.878.989,2.013,2.929-.789,6.735l-.813,1.32Z" transform="translate(-1700.834 -728.439)" fill="#fff"/></g><g transform="translate(11.205 4.176)"><path d="M1709.932,751.08s-6.169-1.474-5.192-5.3.839-6.6,4.819-5.816,4.369,2.435,4.354,3.791S1711.562,751.365,1709.932,751.08Z" transform="translate(-1704.635 -739.831)" fill="#fc9290"/></g><g transform="translate(9.672 3.649)"><path d="M1705.241,738.13s-2.833,4.058-5.585,4.06-3.694-.977-3.694-.977a7.546,7.546,0,0,0,3.5-3.705S1704.521,735.668,1705.241,738.13Z" transform="translate(-1695.963 -736.848)" fill="#fff"/></g><g transform="translate(18.44 4.705)"><path d="M1745.577,743.306a5.6,5.6,0,0,1,1.055,2.377c.056,1.053-.32,3.094.282,3.176,0,0,2.05-2.726,1.068-4.818C1746.942,741.823,1745.577,743.306,1745.577,743.306Z" transform="translate(-1745.577 -742.82)" fill="#fff"/></g><g transform="translate(3.398 16.43)"><path d="M1680.58,835.658c-.513.613-2.113.8-3.824,1.083a11.494,11.494,0,0,0-3.766,1.091c-2.283,1.341-9.744,5.872-11.931,5.666-.848-.08-.689-1.7-.176-3.845.808-3.391,2.5-8.1,2.5-10.148a59.428,59.428,0,0,1,.869-6.786q.061-.366.123-.737c.982-5.879,2.343-12.811,2.343-12.811s1.517,3.31,4.474,3.31,2.269-2.524,2.269-2.524,2.7.317,3.335,1a26.394,26.394,0,0,1,2.575,4.463s.065,1.03-2.484,1.52a33.44,33.44,0,0,1,.695,4.658c.055,1.377-.939,5.684-1.225,8.364A4.945,4.945,0,0,0,1676.4,832a3.945,3.945,0,0,0,1.561,1.287C1679.4,834.122,1681.189,834.93,1680.58,835.658Z" transform="translate(-1660.461 -809.17)" fill="#0b0754"/></g><g transform="translate(3.398 27.452)"><path d="M1677.956,884.626c1.637,2.79-4.438,3.629-5.443,4.219-2.284,1.341-9.266,6.2-11.453,6-.848-.08-.689-1.7-.176-3.845.808-3.391,2.5-8.1,2.5-10.148a59.431,59.431,0,0,1,.869-6.786l2.632-2.527s2.82,7.29,5.509,8.484a22.644,22.644,0,0,0,3.962,1.29,4.945,4.945,0,0,0,.039,2.031A3.944,3.944,0,0,0,1677.956,884.626Z" transform="translate(-1660.461 -871.534)" fill="#030231"/></g><g transform="translate(3.77 18.252)"><path d="M1667.642,819.839s-2.25-1.367-4.426,1.226,1.546,21.125,4.771,22.077c3.581,1.058,14.327,1,14.327,1l-.449-1.3s-11.164-3.6-11.622-4.186S1668.786,820.138,1667.642,819.839Z" transform="translate(-1662.566 -819.479)" fill="#fc9290"/></g><g transform="translate(1.956 16.43)"><path d="M1660,809.167s-4.622.417-5.964,1.937-1.735,5.639-1.735,5.639,4.07,3.286,8.974,2.011Z" transform="translate(-1652.304 -809.167)" fill="#0b0754"/></g><g transform="translate(33.049 32.197)"><path d="M1833.533,902.439l.441-4.054-5.733,7.554s2.4,1.2,2.541.967Z" transform="translate(-1828.241 -898.385)" fill="#163560"/></g><g transform="translate(24.332 32.236)"><g transform="translate(0.134 4.015)"><path d="M1784.972,921.323l-5.3,8.087h8.894l4.98-8.087Z" transform="translate(-1779.677 -921.323)" fill="#0b0754"/></g><g transform="translate(11.429)"><path d="M1846.166,902.621l.416-4.015-3,3.749Z" transform="translate(-1843.586 -898.606)" fill="#92b5f9"/></g><g transform="translate(0 3.576)"><path d="M1779.322,926.949l-.406-.29,5.262-7.82.167.439Z" transform="translate(-1778.916 -918.838)" fill="#92b5f9"/></g><g transform="translate(5.263 3.576)"><path d="M1808.694,918.838l8.379.235.368.2h-8.579Z" transform="translate(-1808.694 -918.838)" fill="#fff"/></g></g><g transform="translate(22.687 40.912)"><path d="M1774.769,949.521a3.025,3.025,0,0,0-.571,0c.64-.3,1.284-.621,1.284-.621s-.287-.294-1.387.1a.822.822,0,0,1-.37.041l1.542-.693c-.275-.247-1.013-.05-1.588.161a1.266,1.266,0,0,1-1.215-.185l-.017-.013c.025,0,.049,0,.076-.008.9-.132,1.129-.647.879-.588s-1.758.169-1.758.169a7.076,7.076,0,0,0-2.033.482l.756,1.395a11.145,11.145,0,0,0,2.737.229c.046-.014.1-.034.161-.057h0l1.974-.13S1775.2,949.58,1774.769,949.521Z" transform="translate(-1769.611 -947.701)" fill="#fc9290"/></g></g><g transform="translate(1247.915 4543.801)"><g transform="translate(17.569 18.477)"><path d="M2220.1,1266.128s11.4,4.966,13.467,4.876,14.819-3.884,14.819-3.884l-.325,2.193s-9.839,5.659-13.279,5.98c-3.386.316-14.967-3.039-16.085-3.748S2216.85,1266.845,2220.1,1266.128Z" transform="translate(-2217.75 -1266.128)" fill="#ea8888"/></g><g transform="translate(0 0)"><path d="M2136.542,1161.783s-4.205-.8-6.3.731c-3.794,2.77-4,12.321-5.419,13.744s-4.849.816-5.155,8.178,1.365,7.977-.624,11.264.841,6.576.841,6.576-1.159-1.814-.663-3.124c0,0,.483,2.89,2.319,3.567s2.107,1.174,2.4,2.167c0,0,15.662-8.026,15.679-13.718s3.082-11.331,1.577-13.8a5.46,5.46,0,0,1,.753,2.229,2.935,2.935,0,0,0-.663-3.341c-1.565-1.611,1.836-4.944,1.333-8.805A6.183,6.183,0,0,0,2136.542,1161.783Z" transform="translate(-2118.336 -1161.574)" fill="#0b0754"/></g><g transform="translate(8.45 11.945)"><path d="M2179,1241.12a10.968,10.968,0,0,1-3.832,1.631c-5.907,1.365-8.171-3.628-9.021-7.055a5.079,5.079,0,0,1,2-.615c.427-.05.876-.084,1.248-.1.663-.508,1.652-2.587,1.87-5.816l.278.075,4.655,1.274s-.213,1.48-.318,2.878a5.539,5.539,0,0,0,.114,2.4c.363.079.581.13.581.13l0,0A29.948,29.948,0,0,1,2179,1241.12Z" transform="translate(-2166.152 -1229.164)" fill="#fc9290"/></g><g transform="translate(13.847 12.02)"><path d="M2201.346,1230.866s-.214,1.479-.318,2.878c-2.637-.264-3.861-2.775-4.338-4.152Z" transform="translate(-2196.69 -1229.592)" fill="#ea8888"/></g><g transform="translate(13.296 3.935)"><path d="M2199.568,1194.588s-6.26-.345-5.985-4.241-.348-6.563,3.661-6.507,4.679,1.6,4.9,2.919S2201.2,1194.577,2199.568,1194.588Z" transform="translate(-2193.574 -1183.839)" fill="#fc9290"/></g><g transform="translate(11.34 3.132)"><path d="M2193,1180.841c-.883-1.241-1.631-1.036-2.066-.713a4.381,4.381,0,0,0-5.684.5,7.46,7.46,0,0,1-2.749,4.221s1.089.786,3.765.3a4.476,4.476,0,0,0,2.234-1.316,14.636,14.636,0,0,1-2.73,2.886c3.242-1.225,4.816-5.5,4.974-5.953a4.916,4.916,0,0,1,1.233,1.915c.24,1.014,1.278,2.6,1.878,2.573A6.478,6.478,0,0,0,2193,1180.841Z" transform="translate(-2182.505 -1179.297)" fill="#0b0754"/></g><g transform="translate(3.206 17.105)"><path d="M2139.938,1277.885c-.566-2.89-2.409-14.436-.566-18.152.662-1.335,3.26-1.455,6.11-1.338.886.573,4.266,2.736,5.654,2.466l.078-.018c.654-.163.9-.623.355-1.018a12.437,12.437,0,0,1,3.165.194,23.383,23.383,0,0,1,3.66,1.568,8.4,8.4,0,0,1-3.328,3.268c.337,3.017-.164,4.347-3.293,11.314a13.244,13.244,0,0,0,.357,11.191s-15.566,12.515-15.653,6.143C2136.411,1288.706,2140.66,1281.579,2139.938,1277.885Z" transform="translate(-2136.476 -1258.361)" fill="#92b5f9"/></g><g transform="translate(10.083 25.475)"><path d="M2184.939,1339.962a2.892,2.892,0,0,0,2.082-1.267l.241-.363c1.772-2.682,2.461-10.9,6.447-19.647.971-2.13,4.455-2.514,5.406-4.922,0,0,2.339-7.806-4.476-8.036s-18.251,21.72-18.432,24.022C2176.031,1331.978,2171.7,1341.456,2184.939,1339.962Z" transform="translate(-2175.392 -1305.724)" fill="#e75755"/></g><g transform="translate(36.914 54.501)"><path d="M2337.019,1475h-9.7a4.029,4.029,0,0,1,.274-2.6,1.87,1.87,0,0,0-.07-2.233,3.77,3.77,0,0,0,1.634.308,3.413,3.413,0,0,0,1.442-.507,34.908,34.908,0,0,0,2.764,2.9C2334,1473.328,2336.824,1473.166,2337.019,1475Z" transform="translate(-2327.217 -1469.969)" fill="#030231"/></g><g transform="translate(7.62 21.504)"><path d="M2161.522,1283.253s-1.263,11.486,6.924,13.892,10.512-10.568,3.9-11.5A63.619,63.619,0,0,1,2161.522,1283.253Z" transform="translate(-2161.452 -1283.253)" fill="#bed2fa"/></g><g transform="translate(25.623 25.167)"><path d="M2271.728,1306.546c.584,4.379,2.865,18.2,6.888,24.942,1.3,2.174-3.268,3.392-3.292,3.386a7.765,7.765,0,0,1-2.1-1.56c-3.266-2.944-9.9-11.28-9.9-17.963,0-3.259-.057-9.482,2.312-11.064C2267.095,1303.313,2271.5,1304.807,2271.728,1306.546Z" transform="translate(-2263.323 -1303.979)" fill="#c557c5"/></g><g transform="translate(2.686 24.977)"><path d="M2144.7,1337.462s.36-.5.986-1.45a34.371,34.371,0,0,0,2.573-6.2c1.052-2.992,2.3-6.673,3.86-10.5.481-1.182.992-2.379,1.536-3.574.971-2.13,3.642-1.836,4.592-4.245,0,0,3.707-8.349-3.107-8.58s-19.765,22.335-20.509,24.52C2133.812,1329.82,2129.838,1339.755,2144.7,1337.462Z" transform="translate(-2133.536 -1302.906)" fill="#e16ae1"/></g><g transform="translate(29.794 54.501)"><path d="M2296.729,1475h-9.7a4.031,4.031,0,0,1,.274-2.6,1.87,1.87,0,0,0-.07-2.233,3.769,3.769,0,0,0,1.634.308,3.412,3.412,0,0,0,1.442-.507,34.911,34.911,0,0,0,2.764,2.9C2293.707,1473.328,2296.533,1473.166,2296.729,1475Z" transform="translate(-2286.926 -1469.969)" fill="#0b0754"/></g><g transform="translate(16.527 34.913)"><path d="M2212.733,1376.1c1.052-2.992,2.3-6.673,3.86-10.5-.408-2.9-1.286-5.44-2.764-6.464C2213.83,1359.129,2210.245,1370.234,2212.733,1376.1Z" transform="translate(-2211.854 -1359.129)" fill="#c557c5"/></g><g transform="translate(18.503 25.34)"><path d="M2232.9,1307.044c.584,4.379,1.406,18.51,5.43,25.252,1.3,2.174-3.268,3.392-3.293,3.386a7.766,7.766,0,0,1-2.1-1.56c-3.266-2.944-9.9-11.28-9.9-17.963,0-3.259,3.824-9.221,6.194-10.8A2.384,2.384,0,0,1,2232.9,1307.044Z" transform="translate(-2223.034 -1304.961)" fill="#e16ae1"/></g><g transform="translate(18.205 12.302)"><path d="M2223.607,1231.329a5.778,5.778,0,0,0-2.257-.1s.089.649,1.317.714A.979.979,0,0,0,2223.607,1231.329Z" transform="translate(-2221.35 -1231.188)" fill="#fff"/></g><g transform="translate(34.876 11.253)"><g transform="translate(8.183)"><path d="M2368.347,1228.88l-2.011-3.628-4.35,12.139,2.566,2.755Z" transform="translate(-2361.985 -1225.252)" fill="#0b0754"/></g><g transform="translate(0 3.628)"><path d="M2319.728,1247.906l-4.044,11.552,10.749-2.411,3.8-11.266Z" transform="translate(-2315.684 -1245.781)" fill="#0b0754"/></g><g transform="translate(0.026 5.461)"><path d="M2316.019,1267.415l-.188-.329,3.826-10.932.192.292Z" transform="translate(-2315.831 -1256.153)" fill="#92b5f9"/></g><g transform="translate(3.852 3.478)"><path d="M2337.482,1246.915l10.191-1.983.5.15-10.5,2.125Z" transform="translate(-2337.482 -1244.932)" fill="#fff"/></g><g transform="translate(10.983 0.176)"><path d="M2381.393,1229.7l-2.175-3.452-1.386,3.9,3.06-.6Z" transform="translate(-2377.832 -1226.25)" fill="#92b5f9"/></g></g><g transform="translate(6.102 17.026)"><path d="M2188.784,1259.571c-.349-.067-1.1-.35-1.859-.559a1.557,1.557,0,0,0,.549-.614c.135-.428.226-.566-.226-.43s-2.032.86-2.032.86l0,0a4.185,4.185,0,0,0-1.725,1.531s-11.114,3.907-12.45,3.974c-2.069.1-15.836-4.966-15.836-4.966-3.249.717-2.52,4.709-1.4,5.418s11.024,4.312,16.9,4.38c2.974.034,13.79-6.918,13.79-6.918a4.607,4.607,0,0,1,2.258-.4c.993.181,3.3,0,3.793-.813S2189.372,1259.684,2188.784,1259.571Z" transform="translate(-2152.863 -1257.918)" fill="#fc9290"/></g><g transform="translate(5.606 18.158)"><path d="M2160,1267.14a7.564,7.564,0,0,1-5.46,4.785s-6.983-2.151-3.506-6.909C2151.03,1265.016,2154.468,1262.461,2160,1267.14Z" transform="translate(-2150.06 -1264.32)" fill="#92b5f9"/></g><g transform="translate(46.984 16.997)"><path d="M2386.452,1259.728h0a1.052,1.052,0,0,0-.037-.317s-1-1.576-1.323-1.64c-.993-.2-.993,1.112-.783,1.956a3.43,3.43,0,0,0,.823,1.457h0l-.04,1.233A2.637,2.637,0,0,0,2386.452,1259.728Z" transform="translate(-2384.198 -1257.752)" fill="#fc9290"/></g></g><g transform="translate(1138.329 4572.076)"><g transform="translate(3.468 0)"><path d="M0,0H59.319A15.429,15.429,0,0,1,74.748,15.429v0A15.779,15.779,0,0,1,58.969,31.207H0a0,0,0,0,1,0,0V0A0,0,0,0,1,0,0Z" fill="#fff"/></g><g transform="translate(0 0)"><path d="M1632.207,1334.407v4.695a17.393,17.393,0,0,1-1.371,6.877c-1.751,4.064-5.008,6.795-8.737,6.795H1499.708c-.81,0-1.466-.887-1.466-1.981v-.7c0-1.094.656-1.982,1.466-1.982h72.514a3.358,3.358,0,0,0,3.133-2.106l.009-.023a16.376,16.376,0,0,0,1.094-5.966v-5.968a16.628,16.628,0,0,0-.3-3.176l-.01-.051a5.723,5.723,0,0,0-5.627-4.582h-70.81c-.81,0-1.466-.888-1.466-1.984v-.7c0-1.1.656-1.984,1.466-1.984h123.007c4.335,0,7.991,3.931,9.125,9.3A17.076,17.076,0,0,1,1632.207,1334.407Z" transform="translate(-1498.242 -1321.567)" fill="#8060b8"/></g><g transform="translate(3.468 15.604)"><path d="M1517.865,1409.862l9.062.524-9.062.316Z" transform="translate(-1517.865 -1409.862)" fill="#bed2fa"/></g><g transform="translate(3.468 20.501)"><path d="M1517.865,1437.569l21.56.524-21.56.316Z" transform="translate(-1517.865 -1437.569)" fill="#bed2fa"/></g><g transform="translate(57.869 9.898)"><path d="M1838.672,1377.574a6.067,6.067,0,0,0-2.356,2.858,3.586,3.586,0,0,0-.184.994c-.1,2.361,0,7.7,0,7.7l-5.227-2.672-5.213,2.672v-7.243a5.229,5.229,0,0,1,1.278-3.574,2.056,2.056,0,0,1,1.444-.741Z" transform="translate(-1825.692 -1377.574)" fill="#e16ae1"/><g transform="translate(0.149)"><path d="M1839.368,1377.574a6.068,6.068,0,0,0-2.357,2.858l-10.474.106s.411-2.545,2.573-2.964Z" transform="translate(-1826.537 -1377.574)" fill="#e16ae1"/></g></g></g><g transform="translate(1101.284 4507.424)"><g transform="translate(31.653 23.843)"><rect width="3.464" height="17.15" fill="#fff"/></g><g transform="translate(27.12 27.165)"><rect width="3.464" height="13.828" fill="#bed2fa"/></g><g transform="translate(23.174 26.421)"><rect width="3.464" height="14.572" fill="#93b3f4"/></g><g transform="translate(17.776 23.843)"><rect width="3.464" height="17.15" fill="#fff"/></g><g transform="translate(13.243 27.165)"><rect width="3.464" height="13.828" fill="#bed2fa"/></g><g transform="translate(5.006 38.525)"><path d="M1316.95,1175.181s1.11,4.817,4.346,4.817c2.774,0,6.579-6.27,6.579-6.27Z" transform="translate(-1316.95 -1173.728)" fill="#e16ae1"/></g><g transform="translate(17.055 49.99)"><path d="M1410.048,1300.17l-1.857.986s-10.04-10.646-12.454-20.862a15.888,15.888,0,0,1-.42-5.33s-.146-.463-.4-1.281l-.034-.109c-.112-.359-.246-.781-.395-1.259-.485-1.543-1.151-3.656-1.909-6.061-1.748-5.535-5.745-18.017-7.452-23.21l12.275-4.441s1.394,3.179,3.4,11.821c.309,1.128.618,2.375.906,3.734.327,1.54.633,3.223.887,5.041a77.419,77.419,0,0,1,.736,10.347c.007,1.546-.031,3.15-.123,4.8a21.194,21.194,0,0,0,.451,4.669C1405.2,1287.427,1410.048,1300.17,1410.048,1300.17Z" transform="translate(-1385.125 -1238.602)" fill="#0b0754"/></g><g transform="translate(38.669 111.112)"><path d="M1517.461,1589.612h-9.925a4.127,4.127,0,0,1,.281-2.66,1.913,1.913,0,0,0-.071-2.284,3.857,3.857,0,0,0,1.672.315,3.492,3.492,0,0,0,1.476-.519,35.631,35.631,0,0,0,2.828,2.971C1514.369,1587.9,1517.261,1587.734,1517.461,1589.612Z" transform="translate(-1507.431 -1584.463)" fill="#030231"/></g><g transform="translate(17.055 49.99)"><path d="M1402.592,1259.2l-7.71,14.375c-.112-.359-.246-.781-.395-1.259-.485-1.543-1.151-3.656-1.909-6.061-1.748-5.535-5.745-18.017-7.452-23.21l12.275-4.441s1.394,3.179,3.4,11.821c.309,1.128.618,2.375.906,3.734C1402.032,1255.7,1402.338,1257.38,1402.592,1259.2Z" transform="translate(-1385.125 -1238.602)" fill="#030231"/></g><g transform="translate(16.537 112.887)"><path d="M1382.515,1594.774a4.431,4.431,0,0,0-.04,3.107h5.4s.112-1.282-1.847-2.768A3.987,3.987,0,0,0,1382.515,1594.774Z" transform="translate(-1382.197 -1594.506)" fill="#030231"/></g><g transform="translate(15.728 0)"><path d="M1384.62,959.156c0-.269.142-3.166,4.544-3.424,0,0-2.161.311-2.512,1.272,0,0,1.447-1.213,2.658-.863s1.967,2.438,1.99,3.13-.59,2.94-1.348,3.148a2.323,2.323,0,0,1-.923.023,10.448,10.448,0,0,1,.617,1.042c1.845,3.567.253,7.768-1.245,7.414-.96-.227-1.544,1.438-1.544,1.438l-9.238-7.945S1380.855,957.263,1384.62,959.156Z" transform="translate(-1377.619 -955.733)" fill="#0b0754"/></g><g transform="translate(16.922 15.33)"><path d="M1384.376,1054.712a11.22,11.22,0,0,0,3.921,1.669c6.044,1.4,8.36-3.712,9.23-7.218a5.194,5.194,0,0,0-2.048-.629c-.437-.052-.9-.086-1.277-.1-.679-.52-1.69-2.647-1.913-5.95l-.284.076-4.763,1.3s.218,1.514.325,2.945a5.67,5.67,0,0,1-.116,2.452c-.372.081-.595.133-.595.133l0,0A30.683,30.683,0,0,0,1384.376,1054.712Z" transform="translate(-1384.376 -1042.479)" fill="#fc9290"/></g><g transform="translate(19.787 15.408)"><path d="M1400.587,1044.221s.219,1.513.325,2.945c2.7-.27,3.951-2.839,4.438-4.249Z" transform="translate(-1400.587 -1042.917)" fill="#ea8888"/></g><g transform="translate(15.578 7.579)"><path d="M1380.922,1010.024s6.213-1.6,5.159-5.45-.962-6.656-4.973-5.8-4.377,2.537-4.338,3.909S1379.279,1010.34,1380.922,1010.024Z" transform="translate(-1376.768 -998.62)" fill="#fc9290"/></g><g transform="translate(14.928 6.893)"><path d="M1373.339,997.3c.638-1.422,1.43-1.366,1.931-1.128a4.483,4.483,0,0,1,5.8-.637,7.633,7.633,0,0,0,3.6,3.687s-.936,1.006-3.719,1.051a4.581,4.581,0,0,1-2.5-.875,14.964,14.964,0,0,0,3.316,2.351c-3.5-.582-5.931-4.558-6.18-4.98a5.026,5.026,0,0,0-.855,2.168c-.039,1.066.377,3.123-.23,3.216C1374.5,1002.149,1372.383,999.427,1373.339,997.3Z" transform="translate(-1373.091 -994.738)" fill="#0b0754"/></g><g transform="translate(10.242 21.082)"><path d="M1354.28,1075.863s10.435-2.533,14.972,1.209l-2.267,31.622-20.407-4.93s.574-2,4.487-7.322S1353.275,1083.317,1354.28,1075.863Z" transform="translate(-1346.577 -1075.025)" fill="#fc9290"/></g><g transform="translate(9.123 48.641)"><path d="M1355.149,1233.557s-.012.107-.033.311c-.009.088-.021.194-.034.318-.088.82-.254,2.392-.469,4.437-.56,5.363-1.439,13.977-2.038,20.776a87.061,87.061,0,0,0-.6,10.2c.483,2.033,0,26.335,0,26.335-1.734.832-4.364,0-4.364,0s-4.62-21.9-3.973-24.943a10.482,10.482,0,0,0-.432-5.642c-3.587-16.706-3.195-25.964-2.482-30.4a18.719,18.719,0,0,1,.614-2.707,5.663,5.663,0,0,1,.246-.665A16.882,16.882,0,0,1,1355.149,1233.557Z" transform="translate(-1340.244 -1230.966)" fill="#030231"/></g><g transform="translate(8.262 21.323)"><path d="M1361.434,1087.215c-.5,3.8-2.519,8.459-3.239,10.965,0,0,1.2,8.7.055,11.088a1.058,1.058,0,0,1-.49.549c-4.255,1.854-20.827.054-21.526-5.292-.254-1.942,6.312-8.775,6.694-9.6.159-.343.328-1.454-.442-3.758-1.091,3.365-7.114,2.4-7.114,2.4.707-1.209,2.468-9.578,4.434-13.355,1.479-2.84,5.426-3.251,5.426-3.251a5.9,5.9,0,0,0,5.616,2.236c3.973-.37,4.7-2.8,4.7-2.8s3.524.469,4.61,1.344A18.14,18.14,0,0,1,1361.434,1087.215Z" transform="translate(-1335.373 -1076.39)" fill="#e16ae1"/></g><g transform="translate(25.002 32.148)"><path d="M1436.178,1148.609s1.2,8.7.055,11.088c-3.1-1.556-7.141-4.915-5.911-10.163,1.786-7.625,9.1-11.89,9.1-11.89C1438.913,1141.448,1436.9,1146.1,1436.178,1148.609Z" transform="translate(-1430.095 -1137.644)" fill="#c557c5"/></g><g transform="translate(0 29.614)"><g transform="translate(6.389 3.212)"><path d="M1336.53,1141.477l7.105,11.4h-12.09l-6.77-11.152Z" transform="translate(-1324.775 -1141.477)" fill="#0b0754"/></g><g transform="translate(18.143 2.853)"><path d="M1398.022,1150.632l.123-.4-6.724-10.788-.135.359Z" transform="translate(-1391.287 -1139.446)" fill="#92b5f9"/></g><g transform="translate(6.389 2.853)"><path d="M1336.665,1139.446l-11.389.324-.5.281,11.754-.247Z" transform="translate(-1324.775 -1139.446)" fill="#fff"/></g><path d="M1295.011,1126.762l-6.389-3.458,7.448,11.7,5.711,2.915Z" transform="translate(-1288.622 -1123.304)" fill="#030231"/></g><g transform="translate(22.315 37.609)"><path d="M1432.779,1171.993c-.684.313-2.441,2.382-3.068,2.592-2.819.943-14.817-1.567-14.817-1.567l.371-2.1s11.776.313,13.07-.034c.244-.066,1.516-2.056,2.005-2.342Z" transform="translate(-1414.894 -1168.541)" fill="#fc9290"/></g><g transform="translate(15.985 39.051)"><path d="M1385.778,1177.635s-1.42-1.156-2.38-.894a15.376,15.376,0,0,0-2.9,1.762c-.524.287-1.948,1.315-1.227,1.937s2.969.088,3.86-.389a4.6,4.6,0,0,1,2.271-.314Z" transform="translate(-1379.076 -1176.702)" fill="#fc9290"/></g><g transform="translate(18.066 38.855)"><path d="M1393.364,1175.791s-1.726-.206-2.2-.2-.343.113-.083.479,1.159.505,1.2.634S1393.364,1175.791,1393.364,1175.791Z" transform="translate(-1390.85 -1175.594)" fill="#fc9290"/></g><g transform="translate(26.929 21.323)"><path d="M1442.508,1076.39s5.118.607,6.527,2.8c1.782,2.775,5.987,13.827,5.851,16.611,0,0-3.074,5.232-13.617,4.4,0,0-1.1-3.874,1.121-5.153,0,0,5.415-.963,6.038-1.512l-1.809-7.518Z" transform="translate(-1440.998 -1076.39)" fill="#e16ae1"/></g><g transform="translate(4.894 36.899)"><path d="M1319.445,1164.864c-.159-.644-1.565-.242-2.039.129a1.923,1.923,0,0,0-.36.424c-.015-.108-.027-.211-.035-.292-.027-.3-.38-.845-.467-.44s-.232,2.113-.232,2.113c-.017,1.375.867,1.942,1.434,1.495S1319.6,1165.509,1319.445,1164.864Z" transform="translate(-1316.313 -1164.524)" fill="#fc9290"/></g></g></g></svg>