<svg xmlns="http://www.w3.org/2000/svg" width="282.28" height="139.964" viewBox="0 0 282.28 139.964"><g transform="translate(2198.108 -767.077)"><rect width="90.903" height="20.912" transform="translate(-2112.469 878.404)" fill="#6237ad"/><rect width="0.676" height="0.959" transform="translate(-2156.036 825.625) rotate(-150.499)" fill="#86b1f2"/><path d="M-1945.554,1191.653l1.841,1.042a1.286,1.286,0,0,0,1.753-.486l3.708-6.552a2.344,2.344,0,0,0-.885-3.195h0a2.344,2.344,0,0,0-3.195.885l-3.708,6.552A1.287,1.287,0,0,0-1945.554,1191.653Z" transform="translate(-216.96 -357.505)" fill="#92b5f9"/><path d="M-1920.347,1187.9l4.059,2.3a.382.382,0,0,0,.521-.145l.01-.017a.383.383,0,0,0-.145-.521l-4.059-2.3a.383.383,0,0,0-.522.144l-.01.017A.382.382,0,0,0-1920.347,1187.9Z" transform="translate(-239.065 -361.822)" fill="#8060b8"/><path d="M-1896.81,1169.992a.382.382,0,0,0,.521-.144.382.382,0,0,0-.144-.521.385.385,0,0,0-.122-.043l.067-.119a.442.442,0,0,1,.6-.167l.414.234a.442.442,0,0,1,.167.6l-.51.9a.441.441,0,0,1-.6.167l-.414-.234a.441.441,0,0,1-.167-.6l.088-.156A.385.385,0,0,0-1896.81,1169.992Z" transform="translate(-259.293 -346.121)" fill="#bed1f9"/><path d="M-1937.213,1194.72l-4.08-2.309-3.555,6.281,4.08,2.309Z" transform="translate(-218.13 -366.336)" fill="#956ae1"/><g transform="translate(-2046.18 773.205)"><g transform="translate(0)"><path d="M-1084.221,933.926s-16.5-51.4-18.348-63.037,6.94-9.213,6.94-9.213-10.452-26.767-5.5-32.863,11.942,6.34,11.942,6.34,1.6-23.387,9.141-23.885c10.472-.691,8.622,25.994,8.622,25.994s2.043-12.055,7.771-9.657c8.638,3.617-2.172,28.744-2.172,28.744s5.005-9.336,9.047-4.341C-1049.526,860.971-1084.221,933.926-1084.221,933.926Z" transform="translate(1102.824 -811.254)" fill="#92b5f9"/></g></g><g transform="translate(-2029.152 797.686)"><g transform="translate(0 0)"><path d="M-980.067,1087.274s42.573-18.826,50.358-29.491-2.594-12.019-2.594-12.019,19.569-17.553,17.477-25.659-12.221-1.2-12.221-1.2,13.706-27.185,8.3-30.357c-10.061-5.908-26.5,22.9-26.5,22.9s3.941-12.734-3.237-12.809c-10.825-.113-12.212,29.215-12.212,29.215s-.516-11.318-7.245-8.119C-980.005,1025.469-980.067,1087.274-980.067,1087.274Z" transform="translate(980.067 -987.75)" fill="#c4a3fd"/></g><path d="M-967.245,1019.731c6.769-3.1,7.245,8.119,7.245,8.119s1.387-29.328,12.212-29.215c7.178.075,3.237,12.809,3.237,12.809s16.435-28.8,26.5-22.9l-61.172,98.7C-979.518,1079.349-978.592,1024.935-967.245,1019.731Z" transform="translate(979.38 -987.749)" fill="#956ae1"/></g><rect width="5.603" height="14.651" transform="translate(-2099.626 884.388)" fill="#956ae1"/><rect width="6.193" height="12.828" transform="translate(-2030.634 883.712)" fill="#956ae1"/><g transform="translate(-2125.121 809.487)"><g transform="translate(1.815 13.02)"><path d="M-1643.1,1246.11a.261.261,0,0,1,.517-.063v.009h0l1.257,10.291,2.106.733h0l.986,7.393a.205.205,0,0,1-.176.231.206.206,0,0,1-.231-.176v0l-.962-7.169-1.874-.893s-.879-5.609-1.623-10.342Z" transform="translate(1645.284 -1234.843)" fill="#956ae1"/><path d="M-1658.618,1167.846l-.224,14.748a3.209,3.209,0,0,0,3.16,3.257,3.209,3.209,0,0,0,3.151-4.028l-3.768-14.26A1.18,1.18,0,0,0-1658.618,1167.846Z" transform="translate(1658.843 -1166.689)" fill="#956ae1"/><path d="M-1614.07,1397.044c-1.26.007-2.407-1.618-2.562-3.63l-1.715-22.267,2.517-.308,3.7,22.026c.027.164.051.352.064.522C-1611.915,1395.4-1612.81,1397.036-1614.07,1397.044Z" transform="translate(1623.964 -1342.521)" fill="#8060b8"/><path d="M-1651.507,1181.821c-.925,4.409-1.522,11.542-.282,15.537a.39.39,0,0,0,.487.257.389.389,0,0,0,.251-.505C-1652.416,1193.34-1652.219,1186.326-1651.507,1181.821Z" transform="translate(1653.373 -1179.722)" fill="#8060b8" opacity="0.55"/><rect width="2.732" height="0.538" transform="translate(8.204 28.456) rotate(173.038)" fill="#8060b8"/></g><g transform="translate(0)"><rect width="5.063" height="47.88" transform="translate(16.436 21.028) rotate(0.348)" fill="#956ae1"/><rect width="5.616" height="3.299" transform="matrix(1, 0.006, -0.006, 1, 16.133, 25.323)" fill="#92b5f9"/><rect width="5.616" height="3.299" transform="translate(16.156 21.538) rotate(0.347)" fill="#92b5f9"/><rect width="5.238" height="3.299" transform="matrix(1, 0.006, -0.006, 1, 16.367, 17.933)" fill="#92b5f9"/><path d="M-1551.618,1143.075l-5.238-.032-.47-9.556,6.294.038Z" transform="translate(1573.223 -1125.073)" fill="#92b5f9"/><path d="M-1552.352,1072.854l-.127,3.7-.346,0-.109-3.7-2.542-.015-.25,5.585-.475,0-.238-5.588-.9-.005-.051,8.414,6.3.038.051-8.415Z" transform="translate(1573.274 -1072.823)" fill="#dde8fe"/><path d="M-1551.784,1139.514l.605,8.866.091,2.3.686-.034.228-2.723.815-8.359Z" transform="translate(1568.449 -1130.263)" fill="#bed1f9"/><rect width="5.063" height="32.907" transform="matrix(0.984, -0.18, 0.18, 0.984, 1.511, 42.025)" fill="#956ae1"/><rect width="5.616" height="2.268" transform="translate(1.771 44.979) rotate(-10.385)" fill="#92b5f9"/><rect width="5.616" height="2.268" transform="translate(1.302 42.42) rotate(-10.386)" fill="#92b5f9"/><rect width="5.238" height="2.268" transform="translate(1.041 39.948) rotate(-10.388)" fill="#92b5f9"/><path d="M-1668.714,1304.444l-.827.151.583,3.178a.615.615,0,0,1,.483.492.615.615,0,0,1-.494.716.615.615,0,0,1-.716-.494.615.615,0,0,1,.31-.651l-.58-3.165-.863.158-1.11,4.844.012.02a3.114,3.114,0,0,1,1.149,1.308,3.842,3.842,0,0,1,.426,1.254l.025.041,1.891-.346,1.89-.347.009-.047a3.84,3.84,0,0,1-.047-1.323,3.107,3.107,0,0,1,.61-1.631l0-.023Z" transform="translate(1671.929 -1272.316)" fill="#92b5f9"/><rect width="21.52" height="26.812" transform="translate(1.968 63.558)" fill="#6237ad"/><rect width="24.628" height="3.744" transform="translate(0.333 59.858)" fill="#956ae1"/></g></g><g transform="translate(-2026.873 872.11)"><g transform="translate(0)"><path d="M-963.637,1550.652s9.686-18.107,14.5-21.133,4.948,1.622,4.948,1.622,8.2-7.972,11.519-6.726,0,5.458,0,5.458,12-5,13.114-2.48c2.067,4.688-10.731,10.828-10.731,10.828s5.52-1.243,5.254,1.938c-.4,4.8-12.8,4.255-12.8,4.255s4.739.675,3.115,3.528C-937.637,1553.062-963.637,1550.652-963.637,1550.652Z" transform="translate(963.637 -1524.283)" fill="#956ae1"/></g><path d="M-934.621,1567.258c1.587-2.874-3.114-3.528-3.114-3.528s12.394.543,12.8-4.255c.266-3.181-5.254-1.938-5.254-1.938s12.8-6.141,10.731-10.828L-963.52,1569.9c1.233.164,5.187.529,9.8.647C-945.943,1570.747-936.291,1570.283-934.621,1567.258Z" transform="translate(963.536 -1543.598)" fill="#956ae1"/></g><path d="M-728.914,887l.747-2.569-1.692-2.072a.368.368,0,0,1,.273-.6l2.674-.083,1.448-2.25a.368.368,0,0,1,.655.074l.905,2.517,2.587.681a.368.368,0,0,1,.132.646l-2.114,1.639.152,2.671a.368.368,0,0,1-.574.325l-2.212-1.5-2.493.969A.368.368,0,0,1-728.914,887Z" transform="translate(-1264.514 -96.619)" fill="#956ae1"/><path d="M-1708.115,949.028l-1.754,1.633-2.94-2.532-2.859,2.072-2.51-1.535-.777,1.271,3.357,2.053,2.709-1.964,3.058,2.634,2.639-2.458Z" transform="translate(-412.689 -155.939)" fill="#956ae1"/><path d="M-1389.538,877.33l-10.441.451a2.232,2.232,0,0,1-2.326-2.134l-.254-5.879a2.232,2.232,0,0,1,2.134-2.326l10.441-.451a2.232,2.232,0,0,1,2.326,2.134l.254,5.879A2.232,2.232,0,0,1-1389.538,877.33Z" transform="translate(-685.196 -86.053)" fill="#bed1f9"/><path d="M-1424.515,907.71l-4.212,4.752,5.428-1.3Z" transform="translate(-662.659 -121.126)" fill="#bed1f9"/><g transform="translate(-2083.456 782.246)"><path d="M-1371.3,879.931l1.336-.092s1.621-1.343,1.65-1.79-.295-1.374-.04-1.505a.877.877,0,0,1,1.184.318c.275.414.143,1.985.305,2.081a7.073,7.073,0,0,0,1.432,0,.994.994,0,0,1,.909.483h0a.529.529,0,0,1-.095.659l-.286.264.25.3a.529.529,0,0,1-.064.743l-.226.192.17.175a.529.529,0,0,1-.054.786l-.2.157.034.056a.529.529,0,0,1-.138.7l-.2.15-3.557.244a2.455,2.455,0,0,1-.983-.134l-1.265-.121a.276.276,0,0,1-.249-.26l-.166-3.116A.276.276,0,0,1-1371.3,879.931Z" transform="translate(1371.553 -876.433)" fill="#fff"/></g><g transform="translate(-1997.912 767.077)"><path d="M-715.663,777.418l-10.441.451a2.232,2.232,0,0,1-2.326-2.134l-.254-5.879a2.232,2.232,0,0,1,2.134-2.326l10.441-.451a2.232,2.232,0,0,1,2.326,2.134l.254,5.879A2.232,2.232,0,0,1-715.663,777.418Z" transform="translate(732.316 -767.077)" fill="#bed1f9"/><path d="M-750.639,807.8l-4.213,4.752,5.428-1.3Z" transform="translate(754.852 -802.15)" fill="#bed1f9"/></g><g transform="translate(-2184.76 815.868)"><path d="M-2049.733,1170.561a3.022,3.022,0,0,1-3.022,3.023,3.022,3.022,0,0,1-3.022-3.023,3.022,3.022,0,0,1,3.022-3.022A3.022,3.022,0,0,1-2049.733,1170.561Z" transform="translate(2062.172 -1160.782)" fill="#bed1f9"/><g transform="translate(7.901 0)"><path d="M-2044.906,1119.737a22.437,22.437,0,0,0,.4,2.683.7.7,0,0,0,1.365-.185,24.092,24.092,0,0,0-.37-2.882.728.728,0,0,0-.889-.505.742.742,0,0,0-.505.889Z" transform="translate(2044.916 -1118.825)" fill="#bed1f9"/></g><g transform="translate(2.121 2.908)"><path d="M-2086.216,1141.172a29.343,29.343,0,0,1,2.651,2.209.7.7,0,0,0,.985-.985,13.27,13.27,0,0,0-2.889-2.5.748.748,0,0,0-1.013.266.755.755,0,0,0,.266,1.013Z" transform="translate(2086.582 -1139.788)" fill="#bed1f9"/></g><g transform="translate(0 8.433)"><path d="M-2097.864,1181.007a.524.524,0,0,0,.182-.695c-.308-.635-1.135-.666-1.755-.689a6.556,6.556,0,0,0-1.915.225.739.739,0,0,0,.393,1.423C-2099.187,1180.8-2098.569,1181.481-2097.864,1181.007Z" transform="translate(2101.875 -1179.619)" fill="#bed1f9"/></g><g transform="translate(3.583 12.659)"><path d="M-2074.816,1212.863c1.04-1.324,1.579-1.612,1.434-2.339a.593.593,0,0,0-.569-.433c-.545.026-.8.44-1.12.817-.261.307-.52.614-.767.933a.747.747,0,0,0,0,1.023.728.728,0,0,0,1.022,0Z" transform="translate(2076.042 -1210.09)" fill="#bed1f9"/></g><g transform="translate(8.29 14.848)"><path d="M-2042.084,1226.771c.105.449-.269,1.23.3,1.927.31.381.839.1.984-.26a3.322,3.322,0,0,0,.163-1.024,3.422,3.422,0,0,0-.045-1.03c-.213-.909-1.614-.525-1.4.386Z" transform="translate(2042.109 -1225.866)" fill="#bed1f9"/></g><g transform="translate(11.575 13.356)"><path d="M-2018.218,1216.337c1.216,1.064,1.438,1.34,1.941,1.321.3-.011.646-.27.605-.6-.075-.61-.4-.8-1.524-1.739a.743.743,0,0,0-1.022,0,.73.73,0,0,0,0,1.023Z" transform="translate(2018.427 -1215.11)" fill="#bed1f9"/></g><g transform="translate(13.018 9.253)"><path d="M-2004.04,1186.888a.685.685,0,0,0-.181-1.338,15.685,15.685,0,0,0-3.068.283.76.76,0,0,0-.738.738.743.743,0,0,0,.738.738A16.6,16.6,0,0,0-2004.04,1186.888Z" transform="translate(2008.027 -1185.53)" fill="#bed1f9"/></g><g transform="translate(12.263 3.443)"><path d="M-2012.2,1146.351c1.43-1.2,1.67-1.007,2.255-1.766a.625.625,0,0,0-.538-.937,2.69,2.69,0,0,0-1.48.668c-.446.3-.875.636-1.289.983a.75.75,0,0,0,0,1.052.76.76,0,0,0,1.052,0Z" transform="translate(2013.467 -1143.646)" fill="#bed1f9"/></g></g><g transform="translate(-2174.369 871.661)"><path d="M-1980.7,1549.424s-16.032-3.615-18.361-7.11,2.532-3.481,2.532-3.481-6.053-5.912-5.19-8.378a2.116,2.116,0,0,1,3.149-1.229s-3.643-5.867-1.979-7.678c2.557-2.783,9.018,6.939,9.018,6.939s-1.019-4.046,1.342-3.9c3.562.221,4.112,9.427,4.112,9.427s.516-3.17,1.828-2.417C-1980.463,1533.77-1980.7,1549.424-1980.7,1549.424Z" transform="translate(2005.295 -1521.047)" fill="#956ae1"/><path d="M-2000.55,1524.658c-1.664,1.811,1.979,7.678,1.979,7.678a2.117,2.117,0,0,0-3.149,1.229c-.864,2.467,5.19,8.379,5.19,8.379s-4.86-.015-2.532,3.48,18.361,7.11,18.361,7.11Z" transform="translate(2005.295 -1524.157)" fill="#8060b8"/><path d="M-2002.793,1660.248s-10.7.2-13.034-.119-1.475-1.865-1.475-1.865-4.534.374-5.494-.93,1.071-1.772,1.071-1.772-5.331-1.623-5.24-2.74c.17-2.082,5.307-.725,5.307-.725s-1.539-.98-.818-1.941c1.087-1.45,4.8,1.278,4.8,1.278s-.424-.995.237-1.188C-2015.292,1649.617-2002.793,1660.248-2002.793,1660.248Z" transform="translate(2026.967 -1631.881)" fill="#956ae1"/></g><g transform="translate(-2104.157 794.141)"><path d="M23.752,0H41.509A23.751,23.751,0,0,1,65.261,23.751V68.03A23.751,23.751,0,0,1,41.51,91.781H23.752A23.752,23.752,0,0,1,0,68.029V23.752A23.752,23.752,0,0,1,23.752,0Z" transform="translate(0)" fill="#8060b8"/><path d="M24.039,0H42.815A24.039,24.039,0,0,1,66.854,24.039v43.7a24.04,24.04,0,0,1-24.04,24.04H24.04A24.04,24.04,0,0,1,0,67.742v-43.7A24.039,24.039,0,0,1,24.039,0Z" transform="translate(2.467)" fill="#bed1f9"/><rect width="73.078" height="77.544" transform="translate(9.223 10.399)" fill="#fff"/><path d="M0,0H12a0,0,0,0,1,0,0V4.37a0,0,0,0,1,0,0H3.951A3.951,3.951,0,0,1,0,.419V0A0,0,0,0,1,0,0Z" transform="translate(2.068 87.413)" fill="#8060b8"/><path d="M4.364,0h0a0,0,0,0,1,0,0V8.525a0,0,0,0,1,0,0H0a0,0,0,0,1,0,0V4.364A4.364,4.364,0,0,1,4.364,0Z" transform="translate(9.682 83.201)" fill="#8060b8"/><rect width="73.342" height="8.567" transform="translate(12.876 83.214)" fill="#92b5f9"/><path d="M-1454.684,1037.1l-.062,30.955s5.321,11.735,8.2,10.85-5.984-18.591-2.888-19.918,19.906,36.273,23.444,32.07-13.049-28.753-10.616-30.3,12.607,17.915,18.579,14.377-17.473-20.348-12.386-22.56,11.059,8.626,14.819,7.962-13.713-11.5-11.722-15.261,18.579,12.165,22.117,7.741-11.059-15.925-11.059-15.925Z" transform="translate(1463.907 -1026.704)" fill="#956ae1"/></g><g transform="translate(-2170.03 899.041)"><path d="M-1760.335,1719.093a.632.632,0,0,0-.608-.653h-234a.7.7,0,0,0-.738.653.7.7,0,0,0,.738.653h234a.632.632,0,0,0,.608-.653Z" transform="translate(1995.684 -1718.44)" fill="#956ae1"/></g><path d="M-1995.978,952.784l-.948-2.243-2.385-.49a.335.335,0,0,1-.152-.581l1.84-1.595-.271-2.419a.334.334,0,0,1,.505-.324l2.085,1.257,2.218-1.005a.335.335,0,0,1,.464.381l-.551,2.372,1.641,1.8a.334.334,0,0,1-.218.559l-2.426.209-1.2,2.117A.334.334,0,0,1-1995.978,952.784Z" transform="translate(-170.991 -153.315)" fill="#dde8fe"/><path d="M-1783.307,1067.486l1.142-1.93-.942-2.035a.308.308,0,0,1,.347-.43l2.188.49,1.644-1.525a.308.308,0,0,1,.516.2l.21,2.232,1.958,1.093a.308.308,0,0,1-.028.552l-2.058.89-.434,2.2a.308.308,0,0,1-.534.144l-1.482-1.683-2.226.267A.308.308,0,0,1-1783.307,1067.486Z" transform="translate(-357.226 -253.992)" fill="#466eb6"/><path d="M-504.647,859.432l-.542-2.7-2.54.339-.652-2.632-2.467.025-.81-1.89-.957.41,1.083,2.527,2.338-.023.678,2.738,2.5-.333.492,2.443Z" transform="translate(-1451.697 -73.642)" fill="#956ae1"/><path d="M-1659.3,826.65l.706,2.1,2.247.252.625,2.412,2.476-.47.827,2.7,2.333-.152,1.22,2.464-.933.462-.912-1.842-2.462.16-.8-2.592-2.517.478-.69-2.662-2.194-.246-.655-1.948-1.475.14-.1-1.036Z" transform="translate(-462.091 -51.31)" fill="#bed1f9"/><path d="M-871.032,857.4l1.087,1.806a.275.275,0,0,0,.492-.041l.772-1.961,2.054-.476a.275.275,0,0,0,.113-.481l-1.627-1.341.182-2.1a.275.275,0,0,0-.423-.256l-1.778,1.133-1.941-.822a.276.276,0,0,0-.374.323l.528,2.041-1.382,1.592a.276.276,0,0,0,.191.456Z" transform="translate(-1140.961 -73.581)" fill="#956ae1"/><path d="M-685.637,786.948a2.95,2.95,0,0,1-2.581,3.279,2.951,2.951,0,0,1-3.279-2.581,2.95,2.95,0,0,1,2.581-3.279A2.951,2.951,0,0,1-685.637,786.948Z" transform="translate(-1297.609 -14.874)" fill="#92b5f9"/><path d="M-681.138,808a1.578,1.578,0,0,0,1.753,1.38,1.577,1.577,0,0,0,1.38-1.753Z" transform="translate(-1306.55 -34.922)" fill="#fff"/><g transform="translate(-2059.255 809.909)"><g transform="translate(22.649 0)"><path d="M-1018.308,1110.184a1.114,1.114,0,0,1-1.518.421l-8.832-5a1.113,1.113,0,0,1-.521-1.281l6.614-22.667-5.617-3.179-3.555,5.849a1.114,1.114,0,0,1-1.531.373,1.117,1.117,0,0,1-.373-1.53l4.117-6.771a1.114,1.114,0,0,1,1.5-.391l7.324,4.145a1.114,1.114,0,0,1,.521,1.281l-6.614,22.667,8.064,4.564A1.114,1.114,0,0,1-1018.308,1110.184Z" transform="translate(1033.801 -1075.864)" fill="#956ae1"/></g><path d="M-1167.747,1099.19l-18.53,32.742a2.475,2.475,0,0,1-3.373.935l-6.175-3.495a2.475,2.475,0,0,1-.935-3.373l18.53-32.742a2.475,2.475,0,0,1,3.373-.935l6.175,3.495A2.475,2.475,0,0,1-1167.747,1099.19Z" transform="translate(1197.082 -1089.762)" fill="#92b5f9"/><path d="M-1178.23,1093.257-1196.76,1126a2.475,2.475,0,0,0,.935,3.373l2.01,1.138c1.69-.445,3.386-.872,4.588-3,2.377-4.2-1.931-6.639.446-10.839s6.685-1.762,9.062-5.962-1.931-6.639.447-10.84c2.218-3.919,6.115-2.062,8.559-5.206l-4.144-2.345A2.475,2.475,0,0,0-1178.23,1093.257Z" transform="translate(1197.082 -1089.762)" fill="#956ae1"/></g><path d="M-1067.4,826.76l.86-.642,1.165-.993a.116.116,0,0,0,.02-.154h0a.116.116,0,0,0-.148-.038l-1.375.689-.943.666Z" transform="translate(-973.507 -49.82)" fill="#956ae1"/><rect width="7.143" height="1.413" transform="matrix(0.827, -0.563, 0.563, 0.827, -2047.641, 780.209)" fill="#956ae1"/><rect width="2.085" height="0.318" transform="matrix(-0.563, -0.827, 0.827, -0.563, -2046.855, 781.854)" fill="#92b5f9"/><path d="M.674,0h0a.674.674,0,0,1,.674.674v.674a0,0,0,0,1,0,0H0a0,0,0,0,1,0,0V.674A.674.674,0,0,1,.674,0Z" transform="matrix(-0.563, -0.827, 0.827, -0.563, -2048.189, 782.292)" fill="#956ae1"/><path d="M-1069.372,829.758l-1.415.417a1.357,1.357,0,0,0,.8,1.168l.945-1.1Z" transform="translate(-970.948 -53.987)" fill="#fb9390"/><g transform="translate(-2154.927 883.93)"><rect width="6.708" height="2.617" transform="matrix(0.03, -1, 1, 0.03, 46.63, 13.126)" fill="#8060b8"/><path d="M-1886.3,1609.512l4.64.334,4.914.356,9.236.671,9.231.666,15.587,1.047a2.816,2.816,0,0,1,2.731,2.9l-.23,7.652a2.816,2.816,0,0,1-2.9,2.731l-1.909.065-13.713.046-9.255.116-9.26.116-4.926.06-4.652.055Z" transform="translate(1886.803 -1609.511)" fill="#92b5f9"/><path d="M-1776.221,1635.122c7.741.232,13.987,1.426,13.949,2.667s-6.343,2.059-14.084,1.827-13.987-1.426-13.949-2.667S-1783.962,1634.89-1776.221,1635.122Z" transform="translate(1803.691 -1631.534)" fill="#bed1f9"/><path d="M-1532.108,1633.469l-.345,11.751-.038,1.306h-1.338l.036-1.306.323-11.792Z" transform="translate(1582.792 -1630.11)" fill="#8060b8"/><path d="M-1886.3,1609.5l4.64.334-.493,16.427-4.652.055Z" transform="translate(1886.809 -1609.502)" fill="#bed1f9"/><path d="M-1817.271,1614.481l9.236.671,8.757.651.042,14.458-9.255.116-9.26.116Z" transform="translate(1827.33 -1613.79)" fill="#956ae1"/></g><g transform="translate(-2161.081 848)"><path d="M-1916.871,1353.8c-.79-.886-3.367-4.553-5.542-2.91s-.463,4.1-4.346,2.419c-3.6-1.561-5.44,2.379-3.56,4.443a2.467,2.467,0,0,0-.683.969,2.667,2.667,0,0,0,1.611,3.406c.224.087.345.278.571.307a4.91,4.91,0,0,0,3.462,2.19c4.545.843,3.423-3.82,4.783-4.912s1.546.659,3.347.319,2.443-1.4,2.074-5.156l-.151-.985A1.028,1.028,0,0,1-1916.871,1353.8Z" transform="translate(1931.169 -1350.473)" fill="#956ae1"/><g transform="translate(11.75 0.048)"><path d="M-1683.414,1696.75a21.64,21.64,0,0,0,2.141,3.6c.093.024.464-.011.559.016a6.691,6.691,0,0,0,4.353-3.407,20.076,20.076,0,0,1-3.137,1.262c-.406-.07-.575-.986-1.618-3.1A4.814,4.814,0,0,0-1683.414,1696.75Z" transform="translate(1706.03 -1647.366)" fill="#fb9390"/><path d="M-1668.627,1705.725c.329.64,1.136,1.655,1.272,1.565.162-.108,5.8-4.381,5.885-5.528.054-.69-.866-.092-2.271.5C-1664.66,1703.837-1668.247,1706.017-1668.627,1705.725Z" transform="translate(1693.294 -1652.815)" fill="#6237ad"/><path d="M-1725.8,1586.306c1.8.5,5.932,17.173,5.932,17.173l-2.7,1.712s-5.541-12.846-6.719-13.2S-1727.607,1585.806-1725.8,1586.306Z" transform="translate(1745.783 -1553.615)" fill="#6237ad"/><path d="M-1728.818,1705.273a15.5,15.5,0,0,1,.013,4.615,1.4,1.4,0,0,0,.149.542,7.582,7.582,0,0,0,5.933-.055c-1.192-.352-2.772-.806-3.012-.941-.624-.349-.233-2.27-.405-4.383C-1726.973,1705.894-1727.626,1704.889-1728.818,1705.273Z" transform="translate(1745.136 -1655.915)" fill="#fb9390"/><path d="M-1729.409,1739.708a4.585,4.585,0,0,0-.007,2.085c.194.024,7.283.474,8.082-.34.481-.489-.533-.769-2-1.229C-1725.042,1740.82-1729.3,1740.176-1729.409,1739.708Z" transform="translate(1745.746 -1685.764)" fill="#6237ad"/><path d="M-1838.314,1545.839l.379,2.265s12.005.466,12.219,2.827-1.45,17.815-1.45,17.815h-3.293s-.6-8.76-.528-11.217a8.4,8.4,0,0,1,.295-2.765s-13.125-.6-14.033-1-2.351-1.655-1.443-5.171a25.089,25.089,0,0,1,1.389-4.42Z" transform="translate(1846.458 -1517.349)" fill="#956ae1"/><path d="M-1823.356,1353.308a3.975,3.975,0,0,0,2.983,5.24,3.344,3.344,0,0,0,3.671-2.274c.685-2.561-.236-4.266-1.7-5.087-1.708-.961-3.847.061-4.747,1.658A3.13,3.13,0,0,0-1823.356,1353.308Z" transform="translate(1826.755 -1350.815)" fill="#956ae1"/><path d="M-1834.118,1434.477a21.159,21.159,0,0,0-1.207-1.886,4.616,4.616,0,0,0-2.211-1.584s-.533.01-1.145.039a.457.457,0,0,1-.115.195c-.23.165-1.548-.048-2.4.506-2.855,2.347-1.4,15.211-2.146,18.766l8.381.616s-.478-9.72,1.288-11.706C-1832.444,1438.041-1833.235,1436.036-1834.118,1434.477Z" transform="translate(1843.775 -1419.883)" fill="#bed1f9"/><path d="M-1810.34,1400.771a32.638,32.638,0,0,1-.812,4.068c-.334.8,1.835,2.5,3.64,3.012s-.552-1.757-.477-2.607.4-4.876.4-4.876Z" transform="translate(1816.079 -1393.495)" fill="#fb9390"/><path d="M-1803.325,1401.526c.055-.669.094-1.155.095-1.157h0l-2.755.4h0s-.056.388-.144.929A2.337,2.337,0,0,0-1803.325,1401.526Z" transform="translate(1811.723 -1393.495)" fill="#ef7f7f"/><path d="M-1813.2,1359.988a3.142,3.142,0,0,0-1.756,1.216c-.67.981-1.13,3.869,1.077,5.217s3.925-.559,3.954-2.419S-1810.312,1359.66-1813.2,1359.988Z" transform="translate(1819.802 -1358.69)" fill="#fb9390"/><path d="M-1778.4,1378.545c-.188.449-.562.728-.835.622s-.341-.554-.153-1,.562-.727.835-.622S-1778.21,1378.1-1778.4,1378.545Z" transform="translate(1788.781 -1373.816)" fill="#fb9390"/><path d="M-1819.839,1383.178c.16.483.014.959-.327,1.063s-.747-.2-.907-.687-.013-.96.327-1.063S-1820,1382.695-1819.839,1383.178Z" transform="translate(1824.65 -1378.08)" fill="#fb9390"/><path d="M-1826.168,1482.3c-.068-.267-1.328-1.661-1.764-1.714s-3.164-.468-3.164-.468-4.862-4-5.123-4.213c-.012-.14-.057-6.1.037-7.777a9.45,9.45,0,0,0-3.874.444c-.31,3.341-.272,8.463,1.4,9.508,1.612,1,7.05,3.239,7.05,3.239a20.432,20.432,0,0,0,2.121.665c.251.015.941-.04,1.279.011.769.115,1.745,1.214,1.807,1.087a1.449,1.449,0,0,0-.5-1.025c-.4-.374-1.1-.707-1.064-.762C-1827.8,1481.076-1826.045,1482.782-1826.168,1482.3Z" transform="translate(1841.074 -1451.798)" fill="#fb9390"/><path d="M-1837.764,1436.625c-.07-1.061-.177-2.131-1.295-2.617a2.476,2.476,0,0,0-2.177.157,2.751,2.751,0,0,0-1.205,2.1,30.725,30.725,0,0,0-.342,5.671c1.414-.519,3.31-.18,4.847-.171A18.837,18.837,0,0,0-1837.764,1436.625Z" transform="translate(1843.311 -1422.312)" fill="#dde8fe"/><path d="M-1780.431,1567.065l-13.15-1.486a1.343,1.343,0,0,1-1.085-.991l-.115-.658,14.8,1.7Z" transform="translate(1801.95 -1534.369)" fill="#6237ad"/><path d="M-1697.346,1499.9l-1.048-.308,4.1-13.413.309.089a.762.762,0,0,1,.54.947Z" transform="translate(1718.932 -1467.406)" fill="#6237ad"/></g></g><path d="M-1377.325,1686.934h-78.016a5.073,5.073,0,0,1,5.073-5.073h67.87a5.073,5.073,0,0,1,5.073,5.073Z" transform="translate(-639.737 -787.893)" fill="#92b5f9"/><g transform="translate(-2198.108 773.294)"><path d="M-1966.786,849.171c-5.59-8.477-17.74-21.708-26.493-17.046-2.452,1.306-3.772,3.879-5.392,6.108-4.419,6.08-11.963,8.751-19.265,8.54-11.527-.332-21.519-7.777-30.353-14.986-9.036-7.373-18.2-15.674-29.46-18.71-9.945-2.68-21.085-1.041-28.274,7.47-7.1,8.407-9.66,20-16.978,28.275-3.907,4.42-8.881,8.483-14.411,10.124a15.25,15.25,0,0,1-13.075-2.221c-7.312-4.816-12.294-12.947-20.047-17.1-10.123-5.422-21.28-1.114-25.774,8.877-6.277,13.953,5.031,26.669,16.143,24.416,1.512-.307.969-2.807-.544-2.5-8.283,1.678-17.49-7.27-14.381-18.267,3.024-10.7,14.188-15.515,23.773-10.063,7.381,4.2,12.276,11.926,19.3,16.664,7.385,4.981,15.873,5.237,26.589-4.021a46.458,46.458,0,0,0,10.3-13.018c5-9.182,8.275-20.088,17.636-24.837a25.329,25.329,0,0,1,14.429-2.21c11.091,1.295,20.438,8.609,29.03,15.665,8.874,7.288,17.971,15.161,29.072,18.043,8.863,2.3,19.321.831,26.173-6.159,1.805-1.842,2.982-4.176,4.652-6.125a6.49,6.49,0,0,1,6.958-2.016c5.257,1.393,9.354,5.823,13.234,9.6a66.5,66.5,0,0,1,5.84,6.513c.585.743,1.86-.2,1.32-1.016Z" transform="translate(2198.108 -811.898)" fill="#956ae1"/></g><g transform="translate(-2116.933 822.56)"><path d="M-1610.13,1167.072a48.354,48.354,0,0,0-2.709,5.749c-.41,1.5,1.55,5.108,1.55,5.108l4.627-.252s1.9-1.994,1.089-3.992S-1609.536,1170.807-1610.13,1167.072Z" transform="translate(1612.896 -1167.072)" fill="#956ae1"/><path d="M-1592.778,1333.327l-1.529-27.544-5.055.281,1.514,27.264Z" transform="translate(1601.239 -1286.542)" fill="#92b5f9"/><path d="M-1601.315,1243.742l4.636-.257.968,9-5.57.309Z" transform="translate(1602.922 -1232.885)" fill="#bed1f9"/><path d="M-1594.312,1256.4l-.921-6.049-.181-1.575-.605.06-.083,1.88-.358,5.777Z" transform="translate(1598.74 -1237.443)" fill="#dde8fe"/></g><g transform="translate(-2027.572 838.627)"><path d="M-754.663,1682.828a7.012,7.012,0,0,1-2.371.651l5.676.405-.111-1a5.151,5.151,0,0,0-.983-2.789c-.958-1.216-6.094-5.873-6.094-5.873l-2.506,1.18s5.312,4.2,6.708,6.229C-754.018,1682.108-754.5,1682.731-754.663,1682.828Z" transform="translate(789.851 -1619.947)" fill="#fb9390"/><path d="M-662.988,1682.828a11.55,11.55,0,0,1-2.642.885l5.775.049.062-.872a5.151,5.151,0,0,0-.983-2.789c-.958-1.216-6.094-5.873-6.094-5.873l-2.506,1.18s5.68,4.388,7.077,6.413C-661.975,1682.292-662.821,1682.731-662.988,1682.828Z" transform="translate(710.893 -1619.947)" fill="#fb9390"/><path d="M-803.085,1370.3l-1.209-.429-2.339,1.092a9,9,0,0,0-1.422,3.038c-.585,2.027-.371,13.961.6,15.91S-803.085,1370.3-803.085,1370.3Z" transform="translate(830.613 -1357.811)" fill="#fff"/><path d="M-781.919,1494.511s2.9,5.752,3.491,7.3l3.934,9.868,11.623,14.375a12.911,12.911,0,0,1-3.661.344s-12.8-9.786-13.761-11.279c-1.472-2.275-8.748-15.333-8.748-15.333l.85-2.858Z" transform="translate(813.958 -1465.158)" fill="#c557c5"/><path d="M-799.6,1483.31l.047,4.9s-2.245,15.25-1.839,16.2c.99,2.322,12,11.07,12,11.07l3.041-.406-8.8-12.188,2.85-7.618c.829-1.974,2.149-5.469,2.1-7.61-.038-1.835-3.675-6.089-3.675-6.089Z" transform="translate(824.638 -1454.018)" fill="#e16ae1"/><path d="M-799.652,1393.72c2.884-.655,5.219-1.675,5.459-2.479.108-.364-1.5-4.023-2.684-8.909-.386-1.6-.317-3.094-.936-8.682-.132-1.185-.622-3.669-2.458-4.31a2.75,2.75,0,0,0-1-.2,9.565,9.565,0,0,0-3.4.607c-.262.356-1.238,2.3-1.5,7.6-.114,2.315-.576,9.748-.481,10.956q.021.268.054.52A5.922,5.922,0,0,0-799.652,1393.72Z" transform="translate(829.136 -1357.18)" fill="#bed1f9"/><path d="M-792.878,1356.777h.008c1.176-.13,4.308-4.069,4.308-4.069l-2.006-2.838s-2.489.176-1.963.995a9.009,9.009,0,0,1,.621,3.1c-.009.022-.021.049-.037.082A9.765,9.765,0,0,0-792.878,1356.777Z" transform="translate(817.263 -1340.581)" fill="#fb9390"/><path d="M-788.77,1350.087l.022-.037-.114-.18s-2.489.176-1.963.995a2.465,2.465,0,0,1,.259.61A3.519,3.519,0,0,0-788.77,1350.087Z" transform="translate(815.557 -1340.581)" fill="#ef7f7f"/><path d="M-803.1,1309.192c.069-.041,1.33,3.675.552,4.917s-2.625,1.958-3.473,1.265c-.938-.767-1.7-4.877-.382-6.255S-803.1,1309.192-803.1,1309.192Z" transform="translate(829.517 -1304.97)" fill="#fb9390"/><path d="M-803.991,1298.119a6.847,6.847,0,0,1,4.236,1.912,3.14,3.14,0,0,1-.049,4.2,2.424,2.424,0,0,0-.706,1.99s-2.018-.576-2.122-2.053c-.044-.62.259-.966-.059-1.381a6.671,6.671,0,0,1-.5-1.768s-1.158-.99-1.786-.527C-805.193,1300.647-805.566,1298.107-803.991,1298.119Z" transform="translate(827.856 -1296.008)" fill="#6237ad"/><path d="M-789.278,1327.43c.083.467.37.807.642.759s.425-.466.342-.933-.37-.807-.642-.759S-789.361,1326.963-789.278,1327.43Z" transform="translate(814.182 -1320.446)" fill="#fb9390"/><path d="M-944.3,1296.461l-1.869,3.3a1.9,1.9,0,0,1-2.586.717l-18.956-10.728a1.9,1.9,0,0,1-.717-2.586l1.869-3.3a1.9,1.9,0,0,1,2.586-.717l18.956,10.728A1.9,1.9,0,0,1-944.3,1296.461Z" transform="translate(968.673 -1282.901)" fill="#956ae1"/><path d="M-924.837,1348.128a3.532,3.532,0,0,0,.64,1.574c.492.541,2.1.233,2.347.307a13.978,13.978,0,0,1,1.6,1.425l1.229-1.45s-1.6-.885-1.769-1.474a2.27,2.27,0,0,0-1.487-1.188c-.319,0,.086.691.381.937s-.59.553-1.038.522A10.623,10.623,0,0,1-924.837,1348.128Z" transform="translate(930.918 -1338.386)" fill="#fb9390"/><path d="M-894.622,1365.072l1.671-1.917,5.935,4.289s9.517-3.027,9.544-3.03l.936-.258c2.746-.405,3.053,3.27,2.587,3.958-1.086,1.6-9.633,4.48-12.981,3.94C-889.687,1371.61-894.622,1365.072-894.622,1365.072Z" transform="translate(904.894 -1352.023)" fill="#bed1f9"/></g><g transform="translate(-2100.314 823.182)"><path d="M-1472.612,1352.082a2.427,2.427,0,0,0,.23.6,22.6,22.6,0,0,0,2.206,3.131l1.192-2.867s-.195-.9-.532-2.187A6.667,6.667,0,0,0-1472.612,1352.082Z" transform="translate(1475.453 -1325.9)" fill="#f8a492"/><path d="M-1483.067,1280.151s-6.65,3.056-6.865,3a19.683,19.683,0,0,1-2.755-9.012c-.013-2.009,1.942-4.425,4.123-3.948,1.1.241,1.081.567,2.705,3.086A30.124,30.124,0,0,1-1483.067,1280.151Z" transform="translate(1492.742 -1256.455)" fill="#8060b8"/><path d="M-1385.177,1737.389s-.158,2.787-.159,2.793c-.058.354-.286,1.228-.286,1.55,0,1.209,5.377-1.026,4.172-1.562-.109-.048-.681-.415-.716-.826-.055-.634-.2-1.916-.2-1.916Z" transform="translate(1400.529 -1658.901)" fill="#fb9390"/><path d="M-1382.646,1757.048a19.39,19.39,0,0,1-1.909.462c-.646.092-1.5-.686-1.956-.476-.5.231-.484,2.314-.484,2.314s6.77.593,8.673-.02C-1377.567,1759.085-1380.065,1757.909-1382.646,1757.048Z" transform="translate(1401.711 -1675.791)" fill="#6237ad"/><path d="M-1464.474,1737.389s-.158,2.787-.159,2.793c-.058.354-.286,1.228-.286,1.55,0,1.209,5.377-1.026,4.172-1.562-.109-.048-.85-.689-.886-1.1-.055-.634-.026-1.642-.026-1.642Z" transform="translate(1468.827 -1658.901)" fill="#fb9390"/><path d="M-1462.19,1757.048a19.394,19.394,0,0,1-1.909.462c-.647.092-1.5-.686-1.957-.476-.5.231-.523,2.314-.523,2.314s6.8.691,8.713-.02C-1457.123,1759.052-1459.609,1757.909-1462.19,1757.048Z" transform="translate(1470.256 -1675.791)" fill="#6237ad"/><path d="M-1449.864,1235.569l4.736-7.08c.02-.062.063-.189.129-.383.238-.7.735-2.164,1.167-3.619l0-.016c.136-.508.424-1.4.7-2.253.31-.954.694-2.137.707-2.339-.012-.035-.034-.1-.064-.179a17.236,17.236,0,0,1-.491-2.125c-.053-.317-.106-1.088.247-1.088.556,0,.291.77.547,1.251a12.861,12.861,0,0,0,.385-1.6l.093-1.505c.018-.114-.1-.944.294-.944h.019c.35.027.342.91.488,2.4.046-.172.092-.379.127-.57a5.8,5.8,0,0,1,.118-.788c-.07-.416-.029-1.073.386-1.01.208.031.191.947.191.947,0,.125-.014,1.094-.008,1.285.043-.325.209-1.71.535-1.71.27,0,.292.373.286.668,0,.175-.173,1.676-.182,1.85.127-.228.278-1.551.4-1.551.527,0,.336,1.881.143,2.371a2.345,2.345,0,0,0-.06.262,4.835,4.835,0,0,1-.451,1.4c-.331.6-.787,1.564-.857,1.711-.051.3-.21,1.378-.409,2.735-.085.58-.179,1.217-.276,1.876h-.005c-.018.143-.116.6-.491,2.3a21.492,21.492,0,0,1-.589,2.473c-.223.42-5.329,7.821-5.546,8.135l-.128.186Z" transform="translate(1455.86 -1207.842)" fill="#fb9390"/><path d="M-1393,1245.63s-.385-1.049-1.069-1.051a.744.744,0,0,1,.71.13A1.5,1.5,0,0,1-1393,1245.63Z" transform="translate(1407.802 -1234.416)" fill="#ef7f7f"/><path d="M-1461.9,1236.29l-.609,4.115s2.323,1.991,3.677,1.571c1.136-.352.357-1.938.357-1.938a10.94,10.94,0,0,1-.419-3.348C-1458.707,1235.539-1461.9,1236.29-1461.9,1236.29Z" transform="translate(1466.749 -1227.103)" fill="#fb9390"/><path d="M-1458.4,1237.536a9.033,9.033,0,0,0,2.629.791,5.826,5.826,0,0,1-.062-1.635c.086-.531-.548-.657-1.255-.639-.925.084-1.75.239-1.75.239l-.117.791A1.935,1.935,0,0,0-1458.4,1237.536Z" transform="translate(1463.692 -1227.105)" fill="#ef7f7f"/><path d="M-1479.285,1189.838c-.1,0,.918,4.6,2.488,5.388s3.91.379,4.349-.86c.486-1.369-1.286-6.059-3.493-6.654S-1479.285,1189.838-1479.285,1189.838Z" transform="translate(1481.205 -1185.397)" fill="#fb9390"/><path d="M-1489.353,1171.773a5.189,5.189,0,0,0-2.022,2.385,3.391,3.391,0,0,0-1.642,2.679,3.766,3.766,0,0,0,2.658,4.276,2.554,2.554,0,0,1,1.851,1.614l.157-1.2a4.849,4.849,0,0,0-.882-1.572c-.53-.525.251-1.289.32-1.913.053-.48-.278-1.412-.207-2.2a5.274,5.274,0,0,1,1.748-1.775C-1485.895,1173.463-1487.745,1170.783-1489.353,1171.773Z" transform="translate(1493.089 -1171.556)" fill="#6237ad"/><path d="M-1468.979,1219.279c.205.531.121,1.058-.187,1.177s-.725-.214-.93-.745-.121-1.058.187-1.177S-1469.185,1218.748-1468.979,1219.279Z" transform="translate(1473.383 -1211.997)" fill="#fb9390"/><path d="M-1419.2,1345.057l9.135-1.589s-1.039-2.792-1.411-2.792-6.907,3.045-6.907,3.045l-.52,1.114Z" transform="translate(1429.45 -1317.216)" fill="#f8a492"/><path d="M-1462.6,1417.687a34.213,34.213,0,0,0-.54,8.267c.372,3.565.4,16.229.4,16.229l-1.417,20.262,3.363.078s3.987-20.253,3.913-19.733,1.337-14.26,1.337-14.26l-4.753-11.289Z" transform="translate(1468.168 -1383.162)" fill="#c557c5"/><path d="M-1447.9,1409.163s-.594,4.233.149,6.09,6.37,20.075,6.445,21.56,1.945,17.9,1.945,17.9l3.91-.117.846-18.254-1.771-22.942-1.72-5.8Z" transform="translate(1454.366 -1374.861)" fill="#e16ae1"/><path d="M-1462.507,1259.181a3.363,3.363,0,0,0,1.863.6,6,6,0,0,0,2.17-.964l-.177-.639s-2.326-.362-2.385-.323S-1462.507,1259.181-1462.507,1259.181Z" transform="translate(1466.749 -1245.88)" fill="#fb9390"/><path d="M-1388.427,1318.26s3.455,3.48,5.015,2.886,2.205-2.625-1.6-5.6C-1388.418,1312.89-1388.427,1318.26-1388.427,1318.26Z" transform="translate(1402.945 -1294.939)" fill="#fb9390"/><path d="M-1469.915,1279.071c-.513-2.98-4.233-12.255-4.53-13.963-.145-.831-2.151-.849-4.062-.741-2.019.115-4.024.387-4.024.387a5.913,5.913,0,0,0-2.573,1.1c-.786.786-1,2.961.135,7.089.892,3.259,2,5.048,2.546,7.422.111.8.206,1.582.332,2.5.2,3.549,0,8.238,0,8.238s9.729,2.154,13.369-1.114C-1468.726,1289.989-1469.389,1282.125-1469.915,1279.071Z" transform="translate(1486.774 -1251.453)" fill="#92b5f9"/><path d="M-1421.255,1273.4s-3.818,3.363-4.04,3.363c-.144,0-5.448-4.164-6.672-7.586-.677-1.892.743-4.008,2.365-4,1.124,0,1.624.314,3.852,2.319A30.127,30.127,0,0,1-1421.255,1273.4Z" transform="translate(1440.595 -1252.193)" fill="#8060b8"/></g><g transform="translate(-1966.206 807.055)"><g transform="translate(10.602 12.115)"><path d="M-445.686,1146.97a2.775,2.775,0,0,1-.64,1.248,26.161,26.161,0,0,0,.613,2.7s1.929,7.414,2.047,7.811l4.866,6.157-2.27,3.35s-5.121-6.842-5.329-7.248-1.683-10.738-1.842-11.644c0,0-.575-1.009-.916-1.655a6.371,6.371,0,0,1-.455-1.611,6.711,6.711,0,0,1-.227-1.588c-.021-.766.339-.048.339-.048s.286,1.413.39,1.371c.08-.033-.12-.795-.152-1.642-.008-.218-.016-.433-.021-.631-.013-.519.292-.674.389-.134a5.36,5.36,0,0,1,.089.742,4.38,4.38,0,0,0,.123.69,5.723,5.723,0,0,0,.131.711c.02-.016.09.057.088-.175,0-.278-.133-.869-.105-1.279.016-.232.02-.72.02-.72a4.678,4.678,0,0,1,.184-.741c.241-.032.283.5.221.811a3.6,3.6,0,0,1,.042.733s.188,1.046.332,1.021a12.117,12.117,0,0,0,.078-1.315c.054-.6.2-1.2.321-1.209.2-.012.208.664.208.664s-.018.474-.012.632c.007.185.068.738.068.738s.248,1.7.382,1.667.445-.211.466-.336-.2-.745-.182-.87.2-.147.354-.132.421,1.062.421,1.062A2.139,2.139,0,0,1-445.686,1146.97Z" transform="translate(449.84 -1142.629)" fill="#fb9390"/><path d="M-434.4,1169.19a1.246,1.246,0,0,0-.653.3c-.316.273-.37,1.1-.37,1.1a3.049,3.049,0,0,1-.058-1.08C-435.377,1169.13-434.751,1169.029-434.4,1169.19Z" transform="translate(437.498 -1165.442)" fill="#fb9390"/></g><g transform="translate(0)"><path d="M-462.833,1055.293l-3.127,14.661,30.828,8.625,3.937-18.462Z" transform="translate(474.326 -1055.293)" fill="#956ae1"/><path d="M-494.481,1065.921l3.14,4.033,3.127-14.661-3.869,1.488a4.489,4.489,0,0,0-2.779,3.254l-.467,2.192A4.489,4.489,0,0,0-494.481,1065.921Z" transform="translate(499.707 -1055.293)" fill="#92b5f9"/><rect width="4.221" height="4.49" transform="translate(0.588 7.103) rotate(-77.961)" fill="#86b1f2"/><path d="M-524.795,1076.613c.516.11.736,1.127.492,2.272s-.861,1.984-1.376,1.874-.737-1.127-.492-2.272S-525.31,1076.5-524.795,1076.613Z" transform="translate(526.271 -1073.647)" fill="#956ae1"/><path d="M-232.922,1082.969l-3.981,18.666a1.608,1.608,0,0,1-1.908,1.237l-4.044-.862a1.608,1.608,0,0,1-1.237-1.908l3.981-18.666a1.608,1.608,0,0,1,1.908-1.237l4.044.862A1.608,1.608,0,0,1-232.922,1082.969Z" transform="translate(283.264 -1076.713)" fill="#92b5f9"/><path d="M-387.773,1085.754l3.887-18.224-21.506-3.279-3.336,15.64Z" transform="translate(425.032 -1063.008)" fill="#956ae1"/></g><g transform="translate(0.872 11.119)"><path d="M-291.58,1137.722s-.24-1.094-.332-1.4-.6-.952-.682-.86a.562.562,0,0,0,.031.51c.086.147.35.964.35.964l.062,1.143a10,10,0,0,0-.226-1.179,7.324,7.324,0,0,0-.513-.926l-.457-.445a.13.13,0,0,0-.215.055.271.271,0,0,0-.007.1,1.263,1.263,0,0,0,.289.553,3.624,3.624,0,0,1,.412.848,3.477,3.477,0,0,1,.086,1.057c-.055,0-.138-.708-.229-.929a3.376,3.376,0,0,0-.5-.7c-.148-.166-.577-.537-.762-.537s.283.62.319.676.424.645.424.645.2.885.092.885-1.083-1.737-1.143-1.437c-.055.276.547,1.314.608,1.511.044.142.238,1.676.35,2.691.035.317.242.552.2.719-.166.7-2.4,10.005-2.4,10.005s-1.861,2.711-2.4,3.411-1.806,2.617-1.806,2.617l3.133,1.867,4.472-7.323s.946-11.6.964-11.6Z" transform="translate(330.532 -1135.453)" fill="#fb9390"/><path d="M-239.872,1152.214a.454.454,0,0,0-.037.027.679.679,0,0,0-.258.526,1.659,1.659,0,0,1-.215.731l-.117,1.3.309.295S-239.522,1152.38-239.872,1152.214Z" transform="translate(279.267 -1149.889)" fill="#f7a491"/><path d="M-492.191,1603.832a25.372,25.372,0,0,0-.286,3.607c-.008.149.06.829.069.925a14.453,14.453,0,0,1-4.063,1.219c.4-.735,1.2-.681,1.31-.99a16.8,16.8,0,0,0-.249-4.211C-494.287,1604.653-493.3,1604.116-492.191,1603.832Z" transform="translate(499.732 -1538.863)" fill="#fb9390"/><path d="M-387.54,1640.1a16.511,16.511,0,0,0,1.3,3.069c.047.081.452.353.5.436-1.014,1.345-1.327,3.481-2.61,4.5.031-.833.482-2.425.438-2.749a17.238,17.238,0,0,0-2.128-3.687A5.291,5.291,0,0,0-387.54,1640.1Z" transform="translate(408.061 -1570.102)" fill="#fb9390"/><path d="M-381.243,1663.271a.755.755,0,0,1,.98-.479c.378.192.876.4,1.253.606.424.237.477.536.472.6-.013.2-3.7,5.954-5.17,6.255-.6.123.389-4.717,1.02-5.231C-382.127,1664.571-381.794,1664.974-381.243,1663.271Z" transform="translate(402.772 -1589.593)" fill="#6237ad"/><path d="M-513.064,1633.181a.766.766,0,0,1,1.042.345c.121.394.318.88.424,1.287a.745.745,0,0,1-.12.746c-.158.129-7.71,1.1-8.223.766s3.734-3,4.558-2.924C-514.65,1633.472-514.718,1633.981-513.064,1633.181Z" transform="translate(519.983 -1564.073)" fill="#6237ad"/><path d="M-480.842,1438.22l7.781,2.42-9.747,7.374-9.465,1.713s-.726,8.765-.785,12.251a9.731,9.731,0,0,1-3.785.786c-.705-4.841-1.43-14.841-.567-16.373C-496.666,1445.067-480.842,1438.22-480.842,1438.22Z" transform="translate(500.882 -1396.223)" fill="#c557c5"/><path d="M-437.68,1432.259a7.167,7.167,0,0,0,.475-2.305l4.978,3.458,1.481.864s.3,3.644-1.6,5.825-10.856,8.093-10.856,8.093,3.175,8.193,4.653,11.261a8.824,8.824,0,0,1-3.106,2.252c-1.355-2.209-8.68-12.3-8.338-14.535C-449.739,1445.518-438.083,1433.022-437.68,1432.259Z" transform="translate(459.709 -1389.103)" fill="#e16ae1"/><path d="M-385.4,1285.889s-2.874,3.194-4.505,3.866a6.61,6.61,0,0,1-1.577.106c-1.648.092-5.9-3.942-5.9-3.942s-2.3,3.108-2.284,3.561c.017.386,2.64,3.014,2.8,3.986.51,3.034-.324,13.692-.324,13.692,2.264,1.762,9.961,3.26,9.961,3.26s1.663-16.423,1.8-16.541a32.835,32.835,0,0,0,3.388-5.029C-381.844,1288-385.4,1285.889-385.4,1285.889Z" transform="translate(416.352 -1265.022)" fill="#956ae1"/><path d="M-346.627,1289.817l-.385,1.568s-.088,1.365.546,1.488c.764.148,1.9-1,1.9-1l.658-4.421Z" transform="translate(371.008 -1266.372)" fill="#f7a491"/><path d="M-346.627,1289.817l-.385,1.568s-.088,1.365.546,1.488c.764.148,1.944-1.247,1.944-1.247l.613-4.17Z" transform="translate(371.008 -1266.372)" fill="#fb9390"/><path d="M-343.285,1287.6l-2.712,2.341-.287,1.171A4.541,4.541,0,0,0-343.285,1287.6Z" transform="translate(370.378 -1266.499)" fill="#ef7f7f"/><path d="M-357.444,1258.278a1.6,1.6,0,0,0-1.477,1.108,13.928,13.928,0,0,0-.592,2.27c-.287,1.7.681,3.257,1.524,3.381a3.187,3.187,0,0,0,3.293-2.842c.19-1.032.441-2.387-.409-3.1A3.816,3.816,0,0,0-357.444,1258.278Z" transform="translate(381.816 -1241.241)" fill="#fb9390"/><path d="M-355.683,1250.343s2.97-2.646,3.1-4.714-1.78-3.175-3.413-3.233a11.093,11.093,0,0,0-2,.1c-1.636.206-2.7.932-2.323,2.272.5,1.8,3.9.281,4.59.84.573.461-.356,1.57.2,1.992.523.4.257.263.083,1.019A13.381,13.381,0,0,0-355.683,1250.343Z" transform="translate(382.529 -1227.555)" fill="#6237ad"/><path d="M-325.035,1276.365c-.074.5-.376.861-.677.817s-.484-.482-.41-.977.377-.861.677-.817S-324.961,1275.87-325.035,1276.365Z" transform="translate(353.026 -1255.975)" fill="#fb9390"/></g></g><path d="M-741.631,1725.846a.755.755,0,0,1,.96.519c.063.419.187.943.234,1.372a.771.771,0,0,1-.218.736c-.17.1-6.995.45-8.095-.574-.451-.419,4.065-2.424,4.85-2.209C-743.2,1725.881-743.337,1726.387-741.631,1725.846Z" transform="translate(-1248.289 -825.63)" fill="#8060b8"/><path d="M-649.249,1725.226a.754.754,0,0,1,.96.519c.063.419.187.943.235,1.372a.77.77,0,0,1-.218.736c-.17.1-6.995.45-8.095-.574-.45-.419,4.066-2.424,4.85-2.209C-650.82,1725.261-650.955,1725.766-649.249,1725.226Z" transform="translate(-1327.857 -825.095)" fill="#8060b8"/></g></svg>