<svg xmlns="http://www.w3.org/2000/svg" width="220.481" height="153.064" viewBox="0 0 220.481 153.064"><g transform="translate(-129.06 -302.333)"><g transform="translate(129.06 322.547)"><path d="M597.947,758.485l-29.1,11.688-36.025-89.7,24.6-9.879a4.852,4.852,0,0,1,6.311,2.694Z" transform="translate(-494.143 -670.207)" fill="#bed1f9"/><g transform="translate(37.617 6.593)"><rect width="56.592" height="79.569" transform="matrix(0.985, -0.175, 0.175, 0.985, 0, 9.878)" fill="#bed1f9"/><rect width="25.272" height="0.567" transform="translate(16.765 14.927) rotate(-10.053)" fill="#bed1f9"/><rect width="35.89" height="0.567" transform="translate(11.286 14.437) rotate(-10.053)" fill="#bed1f9"/><rect width="43.543" height="0.567" transform="matrix(0.985, -0.175, 0.175, 0.985, 8.809, 22.387)" fill="#bed1f9"/><rect width="43.543" height="0.567" transform="translate(9.286 25.074) rotate(-10.053)" fill="#bed1f9"/><rect width="43.543" height="0.567" transform="matrix(0.985, -0.175, 0.175, 0.985, 10.238, 30.448)" fill="#bed1f9"/><rect width="43.543" height="0.567" transform="matrix(0.985, -0.175, 0.175, 0.985, 10.715, 33.135)" fill="#bed1f9"/><rect width="43.543" height="0.567" transform="matrix(0.985, -0.175, 0.175, 0.985, 11.191, 35.822)" fill="#bed1f9"/><rect width="43.543" height="0.567" transform="matrix(0.985, -0.175, 0.175, 0.985, 13.286, 47.64)" fill="#bed1f9"/><rect width="43.543" height="0.567" transform="translate(13.78 50.426) rotate(-10.053)" fill="#bed1f9"/><rect width="43.543" height="0.567" transform="matrix(0.985, -0.175, 0.175, 0.985, 14.274, 53.212)" fill="#bed1f9"/><rect width="43.543" height="0.568" transform="translate(14.768 55.998) rotate(-10.053)" fill="#bed1f9"/><rect width="43.542" height="0.568" transform="matrix(0.985, -0.175, 0.175, 0.985, 15.262, 58.784)" fill="#bed1f9"/><rect width="43.543" height="0.567" transform="matrix(0.985, -0.175, 0.175, 0.985, 15.756, 61.571)" fill="#bed1f9"/><rect width="43.542" height="0.568" transform="translate(16.25 64.357) rotate(-10.053)" fill="#bed1f9"/></g><g transform="translate(30.581 4.636)"><rect width="56.592" height="79.569" transform="translate(0 14.403) rotate(-14.744)" fill="#dde8fe"/><rect width="25.272" height="0.567" transform="matrix(0.967, -0.255, 0.255, 0.967, 17.121, 18.063)" fill="#7c9af2"/><rect width="35.89" height="0.567" transform="translate(11.621 18.023) rotate(-14.744)" fill="#7c9af2"/><rect width="43.542" height="0.567" transform="matrix(0.967, -0.255, 0.255, 0.967, 9.803, 26.149)" fill="#7c9af2"/><rect width="43.542" height="0.567" transform="matrix(0.967, -0.255, 0.255, 0.967, 10.497, 28.788)" fill="#7c9af2"/><rect width="43.543" height="0.567" transform="translate(11.886 34.066) rotate(-14.744)" fill="#7c9af2"/><rect width="43.543" height="0.567" transform="translate(12.581 36.705) rotate(-14.744)" fill="#7c9af2"/><rect width="43.543" height="0.567" transform="matrix(0.967, -0.255, 0.255, 0.967, 13.275, 39.344)" fill="#7c9af2"/><rect width="43.543" height="0.567" transform="translate(16.33 50.951) rotate(-14.745)" fill="#7c9af2"/><rect width="43.543" height="0.568" transform="translate(17.05 53.687) rotate(-14.744)" fill="#7c9af2"/><rect width="43.543" height="0.567" transform="translate(17.77 56.424) rotate(-14.744)" fill="#7c9af2"/><rect width="43.542" height="0.568" transform="matrix(0.967, -0.255, 0.255, 0.967, 18.491, 59.16)" fill="#7c9af2"/><rect width="43.543" height="0.567" transform="translate(19.211 61.897) rotate(-14.744)" fill="#7c9af2"/><rect width="43.543" height="0.567" transform="matrix(0.967, -0.255, 0.255, 0.967, 19.931, 64.633)" fill="#7c9af2"/><rect width="43.543" height="0.567" transform="translate(20.651 67.37) rotate(-14.744)" fill="#7c9af2"/></g><path d="M322.465,762.691l-58.59,23.53L229.7,701.132l49.234-30.371a5.242,5.242,0,0,1,7.616,2.508Z" transform="translate(-229.703 -669.979)" fill="#92b5f9"/></g><path d="M257.794,1396.4l-8.358-.152c-2.9-5.259-5.031-9.832-5.031-9.832,9.44-2.176,17.407-1.282,24.044,1.269l3.658,8.885.783-6.841c16.45,8.876,23.227,27.668,23.227,27.668s-29.072-3.1-35.235-5.963c-2.38-1.107-5.378-5.089-8.163-9.561C254.948,1399.755,257.794,1396.4,257.794,1396.4Z" transform="translate(-113.469 -971.382)" fill="#e16ae1"/><path d="M244.405,1394.821s37.324,15.707,51.712,30.981c0,0-29.072-3.1-35.235-5.963-2.38-1.107-5.378-5.089-8.163-9.561,2.228-2.121,5.074-5.474,5.074-5.474l-8.358-.152C246.534,1399.394,244.405,1394.821,244.405,1394.821Z" transform="translate(-113.469 -979.785)" fill="#c557c5"/><path d="M253.739,1552.633a38.317,38.317,0,0,1,15-5.351c1.438,1.788,3.2,3.891,3.2,3.891l.186-4.192c18.826-.857,34.426,11.757,34.426,11.757-10.9,6.873-20.205,8.768-27.824,8.154-.451-1.467-1.09-3.655-1.09-3.655L276.3,1566.6a32.86,32.86,0,0,1-9.659-3.1c.713-1.747,1.464-3.744,1.464-3.744l-4.058,2.3A35.573,35.573,0,0,1,253.739,1552.633Z" transform="translate(-121.612 -1112.493)" fill="#e16ae1"/><path d="M278.733,1602.639c-.451-1.467-1.09-3.655-1.09-3.655l-1.346,3.368a32.867,32.867,0,0,1-9.659-3.1c.713-1.747,1.464-3.744,1.464-3.744l-4.058,2.3a35.57,35.57,0,0,1-10.305-9.429c21.935-2.534,52.819,6.1,52.819,6.1C295.654,1601.358,286.352,1603.253,278.733,1602.639Z" transform="translate(-121.612 -1148.24)" fill="#c557c5"/><path d="M972.1,596.7l6.738-4.948c-.666-5.969-1.567-10.933-1.567-10.933-8.964,3.672-14.954,9-18.9,14.915l2.142,9.367-4.588-5.135c-8.309,16.744-3,36-3,36s21.953-19.309,25.331-25.207c1.3-2.277,1.454-7.26,1.147-12.519C976.36,597.795,972.1,596.7,972.1,596.7Z" transform="translate(-730.124 -269.649)" fill="#92b5f9"/><path d="M988.708,580.819s-21.412,34.37-24.345,55.148c0,0,21.952-19.309,25.331-25.207,1.3-2.277,1.454-7.26,1.147-12.519-3.044-.446-7.3-1.541-7.3-1.541l6.738-4.948C989.609,585.782,988.708,580.819,988.708,580.819Z" transform="translate(-741.561 -269.649)" fill="#7c9af2"/><path d="M990.3,746.864a38.319,38.319,0,0,0-15.34,4.29c-.142,2.29-.37,5.026-.37,5.026l-2.572-3.316c-15.868,10.167-21.326,29.471-21.326,29.471,12.871-.681,21.56-4.5,27.427-9.4-.478-1.458-1.219-3.614-1.219-3.614l3.043,1.973a32.869,32.869,0,0,0,6.1-8.109c-1.591-1.015-3.356-2.212-3.356-2.212l4.644-.46A35.576,35.576,0,0,0,990.3,746.864Z" transform="translate(-729.633 -414.506)" fill="#92b5f9"/><path d="M978.119,772.934c-.478-1.458-1.219-3.614-1.219-3.614l3.043,1.973a32.869,32.869,0,0,0,6.1-8.109c-1.591-1.015-3.356-2.212-3.356-2.212l4.644-.46a35.576,35.576,0,0,0,2.972-13.648c-19.375,10.592-39.608,35.472-39.608,35.472C963.562,781.655,972.251,777.833,978.119,772.934Z" transform="translate(-729.633 -414.506)" fill="#7c9af2"/><g transform="translate(206.284 356.126)"><path d="M940.538,933.836h3.91a4.088,4.088,0,0,0-2.31-.7H844.189c-5.125,0-9.279,3.683-9.279,8.225v5.224c0,4.542,4.154,8.225,9.279,8.225l96.853-.029Z" transform="translate(-834.91 -933.137)" fill="#6237ad"/><path d="M886.158,946.919v-5.354c0-4.655,4.257-8.429,9.508-8.429h-2.156c-5.251,0-9.508,3.774-9.508,8.429v5.354c0,4.655,4.257,8.429,9.508,8.429h2.127C890.4,955.334,886.158,951.566,886.158,946.919Z" transform="translate(-877.739 -933.137)" fill="#dde8fe"/><path d="M1070.385,946.919v-5.354c0-4.655,4.257-8.429,9.509-8.429h-2.156c-5.251,0-9.509,3.774-9.509,8.429v5.354c0,4.655,4.257,8.429,9.509,8.429h2.127C1074.627,955.334,1070.385,951.566,1070.385,946.919Z" transform="translate(-1038.459 -933.137)" fill="#dde8fe"/><path d="M1174.453,933.293c-5.022,0-9.093,3.609-9.093,8.061v6.05c0,4.452,4.071,8.061,9.093,8.061h62.484v-1.353h-.258l-15.885-1.333-3.211-11.165s6.2-6.17,6.6-6.329,12.495-.642,12.495-.642l.258,0v-1.346Z" transform="translate(-1123.195 -933.273)" fill="#7c9af2"/><path d="M1246.7,953.591c0-6.528,3.806-9.693,3.806-9.693h-60.958c-4.613,0-8.352,3.315-8.352,7.4v4.657c0,4.089,3.739,7.4,8.352,7.4h60.958S1246.7,961.811,1246.7,953.591Z" transform="translate(-1137.011 -942.526)" fill="#dde8fe"/><path d="M1181.2,951.3v4.657a6.627,6.627,0,0,0,.243,1.775c2.056-4.459,6-8.754,13.5-10.135,17.513-3.224,55.569-3.7,55.569-3.7h-60.958C1184.936,943.9,1181.2,947.214,1181.2,951.3Z" transform="translate(-1137.011 -942.526)" fill="#bed1f9" style="mix-blend-mode:multiply;isolation:isolate"/></g><g transform="translate(190.364 400.341)"><path d="M832.656,1280.546h4.535a4.426,4.426,0,0,0-2.68-.9h-113.6a10.658,10.658,0,0,0-10.762,10.55v6.7a10.657,10.657,0,0,0,10.762,10.55l112.332-.038Z" transform="translate(-710.147 -1279.649)" fill="#7c9af2"/><path d="M1094.444,1279.845a10.192,10.192,0,0,0-10.292,10.089v7.573a10.192,10.192,0,0,0,10.292,10.089h70.72V1305.9h-.292l-17.979-1.669-3.634-13.976s7.014-7.722,7.471-7.922,14.141-.8,14.141-.8l.292,0v-1.685Z" transform="translate(-1036.429 -1279.82)" fill="#6237ad"/><path d="M1176.214,1305.253c0-8.171,4.307-12.132,4.307-12.132h-68.992a9.361,9.361,0,0,0-9.453,9.267v5.83a9.361,9.361,0,0,0,9.453,9.267h68.992S1176.214,1315.542,1176.214,1305.253Z" transform="translate(-1052.066 -1291.402)" fill="#dde8fe"/><path d="M1102.076,1302.388v5.83a9.11,9.11,0,0,0,.276,2.222,20.215,20.215,0,0,1,15.276-12.686c19.821-4.036,62.893-4.634,62.893-4.634h-68.992A9.361,9.361,0,0,0,1102.076,1302.388Z" transform="translate(-1052.066 -1291.402)" fill="#bed1f9" style="mix-blend-mode:multiply;isolation:isolate"/></g><g transform="translate(180.392 378.28)"><path d="M649.787,1107.475h-4.536a5.224,5.224,0,0,1,2.681-.712H761.578c5.946,0,10.766,3.748,10.766,8.371v5.318c0,4.623-4.82,8.371-10.766,8.371l-112.376-.029Z" transform="translate(-643.559 -1106.763)" fill="#e16ae1"/><path d="M702.74,1106.918c5.686,0,10.3,3.584,10.3,8.006v6.009c0,4.422-4.61,8.006-10.3,8.006H631.992v-1.344h.292l17.986-1.325,3.635-11.089s-7.016-6.128-7.474-6.286-14.147-.637-14.147-.637l-.292,0v-1.337Z" transform="translate(-631.992 -1106.898)" fill="#c557c5"/><path d="M638.493,1127.079a12.219,12.219,0,0,0-4.309-9.627H703.2c5.223,0,9.457,3.292,9.457,7.354v4.625c0,4.061-4.234,7.353-9.457,7.353H634.184S638.493,1135.243,638.493,1127.079Z" transform="translate(-633.904 -1116.088)" fill="#dde8fe"/><path d="M712.66,1124.806v4.625a5.822,5.822,0,0,1-.276,1.764c-2.328-4.429-6.789-8.695-15.282-10.066-19.829-3.2-62.918-3.677-62.918-3.677H703.2C708.426,1117.452,712.66,1120.744,712.66,1124.806Z" transform="translate(-633.904 -1116.088)" fill="#bed1f9" style="mix-blend-mode:multiply;isolation:isolate"/><path d="M1404.515,1120.452v-5.318c0-4.623-4.82-8.371-10.766-8.371h10.792c5.946,0,10.766,3.748,10.766,8.371v5.318c0,4.623-4.82,8.371-10.766,8.371l-10.649,0C1399.772,1128.76,1404.515,1125.038,1404.515,1120.452Z" transform="translate(-1296.55 -1106.763)" fill="#c557c5"/></g><path d="M580.125,1498.773h-4.89a5.48,5.48,0,0,1,2.89-.8H700.638c6.41,0,11.606,4.188,11.606,9.353v5.941c0,5.165-5.2,9.353-11.606,9.353l-121.143-.033Z" transform="translate(-402.085 -1069.779)" fill="#6237ad"/><path d="M637.211,1498.15c6.13,0,11.1,4,11.1,8.945v6.714c0,4.94-4.969,8.945-11.1,8.945H560.943v-1.5h.315l19.389-1.48,3.919-12.39s-7.564-6.847-8.057-7.023-15.251-.712-15.251-.712l-.315,0v-1.494Z" transform="translate(-389.617 -1069.929)" fill="#7c9af2"/><path d="M567.951,1520.677a13.809,13.809,0,0,0-4.645-10.756h74.4c5.63,0,10.195,3.678,10.195,8.216v5.168c0,4.537-4.564,8.216-10.195,8.216h-74.4S567.951,1529.8,567.951,1520.677Z" transform="translate(-391.678 -1080.198)" fill="#dde8fe"/><path d="M647.9,1518.137v5.168a6.728,6.728,0,0,1-.3,1.97c-2.509-4.948-7.319-9.714-16.475-11.247-21.376-3.578-67.827-4.108-67.827-4.108h74.4C643.34,1509.921,647.9,1513.6,647.9,1518.137Z" transform="translate(-391.678 -1080.198)" fill="#bed1f9" style="mix-blend-mode:multiply;isolation:isolate"/><path d="M1.36,0H207.474a1.36,1.36,0,0,1,1.36,1.36v0a1.36,1.36,0,0,1-1.36,1.36H1.36A1.36,1.36,0,0,1,0,1.36v0A1.36,1.36,0,0,1,1.36,0Z" transform="translate(140.708 452.677)" fill="#7c9af2"/><path d="M311.058,831.763l39.89-22.816,5.391,10.68-40.816,21.594Z" transform="translate(-171.617 -468.668)" fill="#bed1f9"/><g transform="translate(172.182 371.02)"><path d="M590.7,1538.788l-5.507.279-.7,16.337-2.817,1.357.136.6,1.047.247s3.388-.058,3.49-.058a5.825,5.825,0,0,0,.8-.771l-.105-.134.563-.382Z" transform="translate(-579.891 -1476.402)" fill="#fb9390"/><path d="M707.6,1556.626s-2.75-1.382-2.818-1.357l.623-16.636-6.827.02,3.092,17.47.339.23c-.085.29-.152.542-.168.621-.043.218,1.163.233,1.585.305s1.643.2,2.428.421a2.658,2.658,0,0,0,1.774-.421Z" transform="translate(-681.874 -1476.267)" fill="#fb9390"/><path d="M675.409,1113.7c-.795-2.067-1.568-1.249-3-3.748a5.506,5.506,0,0,1-.508-1.386,7,7,0,0,0-2.193-3.666,7.755,7.755,0,0,0-7.17-1.616s.988,5.616,1.177,6.754c-.841,1.144-1.689,2.312-1.689,2.312s-1.771,9.231,1.008,10.01,3.284-.471,4.641-1.121,2.681,1.126,4.709-.111c1.549-.944.762-3.3,1.581-3.74A2.713,2.713,0,0,0,675.409,1113.7Z" transform="translate(-649.497 -1096.222)" fill="#0b0754"/><path d="M579.994,1072.6c-.049-.022-1.323-.74-2.516-1.414l7.408-8.246s-2.245-.435-2.382-.452-3.355.985-3.355.985l-3.319.9c-2.533,9.242-5.687,10.916-5.688,10.916a3.605,3.605,0,0,0-1.105,1.18,2.713,2.713,0,0,0,.738,3.892c.723.586-.487,2.754.86,3.969,1.763,1.591,3.394.091,4.607.982s1.478,2.212,4.353,1.962,2.847-9.649,2.847-9.649S580.088,1072.641,579.994,1072.6Z" transform="translate(-568.396 -1060.877)" fill="#0b0754"/><path d="M697.793,1234.422s2.444,11.671,1.735,12.933-10.015,1.656-10.015,1.656l-.394-14.983,3.548-5.362Z" transform="translate(-673.62 -1205.85)" fill="#e16ae1"/><path d="M613.3,1332.66l-1.739-4.764s-5.723-2.084-6.086-2.11-5.208,2.11-5.208,2.11-1.481,3-1.77,3.536a13.639,13.639,0,0,0,.571,3.71l-2.053.1-1.364,30.121a7.62,7.62,0,0,0,6.138.227l2.614-26.309,2.273-.341,3.41,26.082a6.741,6.741,0,0,0,6.593.341l-2.561-29.026A14.422,14.422,0,0,0,613.3,1332.66Z" transform="translate(-592.082 -1290.579)" fill="#0b0754"/><path d="M646.743,1198.794a29.157,29.157,0,0,1,7.263-.2c4.724.335-2.185,3-2.185,3s-2.424-.079-2.529-.1S646.743,1198.794,646.743,1198.794Z" transform="translate(-636.651 -1179.523)" fill="#fb9390"/><rect width="4.194" height="7.36" transform="translate(11.906 16.604)" fill="#fb9390"/><path d="M665.145,1172.684v-2.51h-4.187v2.136A6.127,6.127,0,0,0,665.145,1172.684Z" transform="translate(-649.052 -1154.823)" fill="#ef7f7f"/><path d="M623.31,1069.284a1.427,1.427,0,0,0-1.288.051,6.843,6.843,0,1,0-13.686,0,1.427,1.427,0,0,0-1.288-.051,1.99,1.99,0,0,0,1.718,3.482,1.258,1.258,0,0,0,.288-.2,6.167,6.167,0,0,0,12.249,0,1.255,1.255,0,0,0,.288.2,1.99,1.99,0,0,0,1.718-3.482Z" transform="translate(-601.344 -1060.874)" fill="#fb9390"/><path d="M654.664,1123.01a.576.576,0,1,1-.607-.544A.576.576,0,0,1,654.664,1123.01Z" transform="translate(-642.556 -1113.202)" fill="#0b0754"/><path d="M693.518,1123.429a.576.576,0,1,1-.607-.544A.576.576,0,0,1,693.518,1123.429Z" transform="translate(-676.454 -1113.567)" fill="#0b0754"/><path d="M645.64,1112.792a5.412,5.412,0,0,0-.836-.227,2.842,2.842,0,0,0-.805-.033,2.643,2.643,0,0,0-.777.2l-.1.036c-.032.013-.062.032-.094.046l-.193.094c-.129.065-.249.147-.393.211a2.534,2.534,0,0,1,.266-.374,2.118,2.118,0,0,1,.354-.3,1.872,1.872,0,0,1,.893-.326,1.959,1.959,0,0,1,.94.135A1.811,1.811,0,0,1,645.64,1112.792Z" transform="translate(-632.901 -1104.163)" fill="#0b0754"/><path d="M685.68,1112.647a1.817,1.817,0,0,1,.739-.548,1.961,1.961,0,0,1,.938-.142,1.875,1.875,0,0,1,.9.319,2.078,2.078,0,0,1,.356.3,2.53,2.53,0,0,1,.269.372c-.144-.063-.265-.145-.395-.208l-.193-.092c-.032-.014-.062-.033-.094-.046l-.1-.035a2.636,2.636,0,0,0-.779-.193,2.849,2.849,0,0,0-.805.039A5.419,5.419,0,0,0,685.68,1112.647Z" transform="translate(-670.62 -1104.026)" fill="#0b0754"/><path d="M678.23,1120.558a3.245,3.245,0,0,0,.049.905,2.49,2.49,0,0,0,.127.447,1.179,1.179,0,0,0,.269.422c.153.119.22.154.264.261a.407.407,0,0,1-.023.327,1.25,1.25,0,0,1-.625.535,1.023,1.023,0,0,0,.82-.424.618.618,0,0,0,.085-.528.692.692,0,0,0-.3-.359.972.972,0,0,1-.245-.344,3.8,3.8,0,0,1-.16-.4C678.4,1121.131,678.32,1120.847,678.23,1120.558Z" transform="translate(-664.11 -1111.538)" fill="#ef7f7f"/><path d="M663.519,1148.244a4.513,4.513,0,0,0,1.02.521,3.426,3.426,0,0,0,1.11.2,2.917,2.917,0,0,0,1.1-.216,4.068,4.068,0,0,0,.975-.6,3.547,3.547,0,0,1-.432.388,3.215,3.215,0,0,1-.5.3,2.724,2.724,0,0,1-.557.192,2.9,2.9,0,0,1-.587.064,3.052,3.052,0,0,1-1.147-.24A3.344,3.344,0,0,1,663.519,1148.244Z" transform="translate(-651.286 -1135.613)" fill="#ef7f7f"/><path d="M596.448,1200.265a6.938,6.938,0,0,0-5.414-1.738,4.977,4.977,0,0,1-1.051.815,4.293,4.293,0,0,1-1.819.49h-.074a4.292,4.292,0,0,1-1.819-.49,4.975,4.975,0,0,1-1.051-.815,6.938,6.938,0,0,0-5.413,1.738c-2.272,2.205-4.545,7.07-4.545,7.07s2.874,2.62,5.614,2.954c0,0,1.337,6.149,1.6,6.55a14.386,14.386,0,0,0,3.385.987,11.717,11.717,0,0,0,2.135.2h.255a11.719,11.719,0,0,0,2.135-.2,14.383,14.383,0,0,0,3.384-.987c.267-.4,1.6-6.55,1.6-6.55,2.74-.334,5.614-2.954,5.614-2.954S598.72,1202.47,596.448,1200.265Z" transform="translate(-574.291 -1179.522)" fill="#92b5f9"/><g transform="translate(0.491 35.645)"><path d="M671.571,1329.232a1.449,1.449,0,0,1,1.31.48l-.033,1.6-1.032.481a10.2,10.2,0,0,1-1.181-1.115A15.018,15.018,0,0,0,671.571,1329.232Z" transform="translate(-657.981 -1329.219)" fill="#e16ae1"/><path d="M596.672,1343.034l-13.59,3.932-1.317-9.949,13.59-3.931Z" transform="translate(-580.456 -1332.592)" fill="#e16ae1"/><path d="M583.292,1343.986l1.194,1.008,13.007-3.728-1.169-9.376-.918-.385Z" transform="translate(-581.787 -1331.213)" fill="#dde8fe"/><path d="M676.637,1341.266l-.927-.807-1.7-1.864.1-5.13.435-1.96.922.369Z" transform="translate(-660.932 -1331.213)" fill="#bed1f9" style="mix-blend-mode:multiply;isolation:isolate"/><path d="M586.279,1338.557l-13.59,3.931-1.188-9.232,13.59-3.932Z" transform="translate(-571.501 -1329.312)" fill="#e16ae1"/></g><path d="M620.135,1249.173a12.468,12.468,0,0,0-.867,1.2,9.089,9.089,0,0,0-.69,1.289,6.159,6.159,0,0,0-.423,1.389,5.1,5.1,0,0,0-.035,1.463,3.633,3.633,0,0,1-.145-1.487,4.993,4.993,0,0,1,.389-1.457,6.636,6.636,0,0,1,.754-1.3A6.143,6.143,0,0,1,620.135,1249.173Z" transform="translate(-611.536 -1223.742)" fill="#daeef7"/><path d="M573.432,1283.634c-2.393-4.051-1.285-8.98-.339-11.7a13.92,13.92,0,0,1-4.234-2.49c-3.82,8.624,2.649,16,2.649,16l.013-.012c.123.278.213.526.213.526,1.525,2.757,1.592,2.713,1.7,2.674s-.192-1.35-.057-1.347,1.1,1.583,1.168,1.435-.641-1.715-.537-1.741,1.01,1.511,1.21,1.379-.85-1.784-.649-1.825,1.234,1.678,1.4,1.528a13.07,13.07,0,0,0-1.328-2.695.116.116,0,0,1,.108-.173c1.415.082,1.529.006,1.5-.151A22.954,22.954,0,0,0,573.432,1283.634Z" transform="translate(-567.652 -1241.422)" fill="#fb9390"/><path d="M710.562,1192.371c-2.932,10.557.607,13.671.622,13.752l-.53,2.456s-7.223-4.7-2.645-17.21a.629.629,0,0,1,.852-.378l1.37.635A.626.626,0,0,1,710.562,1192.371Z" transform="translate(-688.774 -1172.934)" fill="#e16ae1"/><path d="M740.324,1288.489s-.093-.234-.181-.51v0h0l-.138-1.023c-.086-2.32-.471-10.549-1.738-15.391a11.516,11.516,0,0,1-5,2.473c1.246,2.606,3.856,8.612,4.308,14.073a19.168,19.168,0,0,0-1.026,2.568c.08.128.209.11,1.161-.837a.11.11,0,0,1,.185.055,12.385,12.385,0,0,0,.752,2.745c.209,0-.138-1.863.03-1.961s.462,1.733.687,1.7-.1-1.692-.009-1.738.57,1.511.714,1.572-.167-1.664-.073-1.751.7,1.032.805.991S740.975,1291.4,740.324,1288.489Z" transform="translate(-712.133 -1243.273)" fill="#fb9390"/><path d="M612.983,1058.255s-.424-7.848,8.321-8.367c0,0-.272,7.71-7.115,8.458l-.528-1.025Z" transform="translate(-607.196 -1049.885)" fill="#0b0754"/><path d="M675.191,1049.869s7.094-.4,7.47,8.289a1.9,1.9,0,0,0-.9.169s-5.619-1.405-7.014-6.85Z" transform="translate(-661.083 -1049.866)" fill="#0b0754"/><path d="M576.023,1675.94c-1.426.143-2.1-.167-2.389-.6l-.966.63a.454.454,0,0,0,.244.837h6.276a.4.4,0,0,0,.4-.4v-1.7C579.185,1675.13,578.234,1675.718,576.023,1675.94Z" transform="translate(-571.844 -1594.985)" fill="#0b0754"/><path d="M726.19,1675.94c1.426.143,2.1-.167,2.389-.6l.966.63a.454.454,0,0,1-.244.837h-6.276a.4.4,0,0,1-.4-.4v-1.7C723.028,1675.13,723.978,1675.718,726.19,1675.94Z" transform="translate(-702.85 -1594.985)" fill="#0b0754"/></g><g transform="translate(301.986 334.728)"><path d="M1811.924,1666.779v2.557a.382.382,0,0,0,.381.382h5.968a.433.433,0,0,0,.232-.8l-3.348-2.14A3.165,3.165,0,0,1,1811.924,1666.779Z" transform="translate(-1782.96 -1551.769)" fill="#e16ae1"/><path d="M1696.9,794.672a.118.118,0,0,1-.159-.133,13.3,13.3,0,0,0,.434-3.026c-.2-.094-.661,1.895-.868,1.919s.287-1.9.052-1.97-.626,1.708-.735,1.715.085-1.732-.03-1.854-.547,1.71-.677,1.756-.251-1.317-.369-1.321-.2-.025-.8,3.123a4.365,4.365,0,0,1-.24,1.424l.454.927,1.408.047s3.059-2.768,3.034-2.936S1698.241,794.146,1696.9,794.672Z" transform="translate(-1679.65 -788.016)" fill="#fb9390"/><path d="M1825.532,802.986a.118.118,0,0,0,.2-.046,13.293,13.293,0,0,1,.993-2.891c.225.01-.275,1.987-.1,2.1s.613-1.826.852-1.777-.221,1.806-.128,1.862.714-1.58.872-1.636-.292,1.772-.2,1.872.824-1.058.931-1.007.186.068-.71,3.145a4.363,4.363,0,0,0-.436,1.377l-.827.618-1.274-.6s-1.461-3.858-1.362-4S1824.577,801.906,1825.532,802.986Z" transform="translate(-1793.792 -795.633)" fill="#fb9390"/><path d="M1710.4,1010.511l.022,5.381-5.228-.806.872-6.051Z" transform="translate(-1689.848 -977.952)" fill="#fb9390"/><path d="M1708.882,1011.821l.4-2.786,4.338,1.986,0,1.062A7.884,7.884,0,0,1,1708.882,1011.821Z" transform="translate(-1693.066 -977.952)" fill="#ef7f7f" opacity="0.6"/><path d="M1620.959,1664.552v2.8a.419.419,0,0,1-.419.419h-6.565a.475.475,0,0,1-.255-.876l3.683-2.347A3.491,3.491,0,0,0,1620.959,1664.552Z" transform="translate(-1609.854 -1549.826)" fill="#e16ae1"/><g transform="translate(3.591 62.897)"><path d="M1614.593,1262.557c.013-.6-1.548,1.168-1.518.69.613-9.956,20.065-1.608,20.065-1.608l4.748,3.485,5.361,46.142s-2.91.843-4.825.153l-11.871-39.54-1.46-.562A82.484,82.484,0,0,1,1614.593,1262.557Z" transform="translate(-1613.074 -1258.363)" fill="#0b0754"/></g><g transform="translate(3.528 65.519)"><g transform="translate(0.026 2.668)"><path d="M1612.8,1299.823c-.006.116-.011.235-.016.358C1612.786,1300.058,1612.791,1299.939,1612.8,1299.823Z" transform="translate(-1612.781 -1299.823)" fill="#0b0754"/></g><g transform="translate(0.012 3.032)"><path d="M1612.689,1302.674c0,.125-.009.253-.013.384C1612.68,1302.927,1612.684,1302.8,1612.689,1302.674Z" transform="translate(-1612.676 -1302.674)" fill="#0b0754"/></g><g transform="translate(0 3.466)"><path d="M1612.59,1306.08c0,.136-.008.274-.011.416C1612.582,1306.354,1612.586,1306.216,1612.59,1306.08Z" transform="translate(-1612.579 -1306.08)" fill="#0b0754"/></g><g transform="translate(0.045 2.262)"><path d="M1612.951,1296.64c-.007.107-.013.219-.018.333C1612.939,1296.86,1612.945,1296.747,1612.951,1296.64Z" transform="translate(-1612.933 -1296.64)" fill="#0b0754"/></g><g transform="translate(0.048)"><path d="M1612.974,1278.914c4.008,4.229,12.016,10.332,12.016,10.332l1.46.562-1.46-.562-4.513,39.948s-3.217.613-5.055-.383C1615.422,1328.811,1612.712,1290.785,1612.974,1278.914Z" transform="translate(-1612.956 -1278.914)" fill="#0b0754"/></g><g transform="translate(27.581 50.28)"><path d="M1831.391,1672.957a12.534,12.534,0,0,1-2.656.417,12.534,12.534,0,0,0,2.656-.417Z" transform="translate(-1828.734 -1672.957)" fill="#0b0754"/></g><g transform="translate(25.974 50.588)"><path d="M1816.14,1675.377c.129.026.261.048.394.064C1816.4,1675.425,1816.269,1675.4,1816.14,1675.377Z" transform="translate(-1816.14 -1675.377)" fill="#0b0754"/></g><g transform="translate(26.569 50.675)"><path d="M1821.813,1676.077a7.754,7.754,0,0,1-1.012-.022A7.754,7.754,0,0,0,1821.813,1676.077Z" transform="translate(-1820.801 -1676.055)" fill="#0b0754"/></g></g><path d="M1730.725,1272.622l.765,6.585c-2.024.784-6.959,1.621-10.677-6.512-1.172-2.565-1.474-4.411-1.258-5.737a52.772,52.772,0,0,1,6.422,2.179Z" transform="translate(-1702.321 -1202.964)" fill="#0b0754"/><path d="M1618.521,1048.48c.225,0,3.594-7.636,3.594-7.636,2.882,2.022,6.794.618,6.794.618s15.741,28.805,5.185,33.3-20.514-.973-20.514-.973-2.246-5.84-2.246-6.064S1618.3,1048.48,1618.521,1048.48Z" transform="translate(-1607.965 -1005.702)" fill="#dde8fe"/><path d="M1752.975,839.028s.682,13.666-.6,16.172c-4.249,8.31-9.527,9.152-9.527,9.152s-1.815,29.067-.318,36.03c0,0,4.979,1.535,12.316-1.909,0,0-5.615-22.535-5.316-25.38,0,0,8.984-8.011,9.283-17.444a63.7,63.7,0,0,0-2.171-17.819Z" transform="translate(-1721.905 -828.593)" fill="#7c9af2"/><path d="M1591.781,883.723a132.685,132.685,0,0,1,3.032-21.075c2.47-10.257,4.267-14.524,4.267-14.524-3.313-3.65-2.763-6.949-2.471-11.23.337-4.941,5.166-14.824,5.166-14.824l-3.257-2.134c-15.61,18.754-6.963,33.69-6.963,33.69s-5.84,20.663-6.626,26.952A47.563,47.563,0,0,0,1591.781,883.723Z" transform="translate(-1584.931 -812.982)" fill="#7c9af2"/><path d="M1786.314,1091.376a3.465,3.465,0,0,1-.627-.6,6.34,6.34,0,0,1-1.243-2.7,7.87,7.87,0,0,0,1.336,2.625,3.2,3.2,0,0,0,.73.667l-.044.04c0,.019,0,.039-.005.059a1.707,1.707,0,0,1-1.187-.278,5.41,5.41,0,0,1-1-.716,7.2,7.2,0,0,0,1.035.644A2.235,2.235,0,0,0,1786.314,1091.376Z" transform="translate(-1758.84 -1046.908)" fill="#fff"/><path d="M1637.019,1060.994a3.457,3.457,0,0,0,.713-.656,7.638,7.638,0,0,0,1.336-2.625,6.338,6.338,0,0,1-1.242,2.7,3.472,3.472,0,0,1-.627.6,1.421,1.421,0,0,0,.439-.051,2.881,2.881,0,0,0,.564-.209,7.032,7.032,0,0,0,1.035-.644,5.461,5.461,0,0,1-1,.717,2.926,2.926,0,0,1-.573.24,1.214,1.214,0,0,1-.64.033l-.119-.032Z" transform="translate(-1630.274 -1020.419)" fill="#fff"/><path d="M1685.059,931.554l-.316,3.693.583.367,1.079-4.5Z" transform="translate(-1672.007 -909.977)" fill="#0b0754"/><path d="M1676.565,951.606a1.265,1.265,0,1,1-1.5-1.282A1.414,1.414,0,0,1,1676.565,951.606Z" transform="translate(-1662.729 -926.717)" fill="#ef7f7f"/><path d="M1685.006,917.911a12.186,12.186,0,0,1-.052-3.1c.02-.2.029-.4.034-.606a6.589,6.589,0,1,1,13.049,1.45,1.424,1.424,0,0,1,1.278.153,1.987,1.987,0,0,1-2.245,3.161,1.251,1.251,0,0,1-.252-.241,6.179,6.179,0,0,1-7.135,4.348A6.065,6.065,0,0,1,1685.006,917.911Z" transform="translate(-1672.126 -889.607)" fill="#fb9390"/><path d="M1741.583,961.651a.575.575,0,1,0,.523-.359A.576.576,0,0,0,1741.583,961.651Z" transform="translate(-1721.558 -936.301)" fill="#0b0754"/><path d="M1703.218,955.908a.576.576,0,1,0,.523-.359A.576.576,0,0,0,1703.218,955.908Z" transform="translate(-1688.088 -931.291)" fill="#0b0754"/><path d="M1711.671,991.645a3.776,3.776,0,0,1-.924.317,2.922,2.922,0,0,1-.963.037,2.49,2.49,0,0,1-.905-.316,3.47,3.47,0,0,1-.752-.622,2.667,2.667,0,0,0,.7.7,2.274,2.274,0,0,0,.936.354,2.6,2.6,0,0,0,1-.065A2.858,2.858,0,0,0,1711.671,991.645Z" transform="translate(-1692.407 -962.273)" fill="#ef7f7f"/><path d="M1738.228,951.765a5.4,5.4,0,0,1,.86-.092,2.832,2.832,0,0,1,.8.095,2.629,2.629,0,0,1,.735.319,8.209,8.209,0,0,1,.7.506,1.9,1.9,0,0,0-.5-.766,1.872,1.872,0,0,0-.828-.462,1.958,1.958,0,0,0-.947-.016A1.813,1.813,0,0,0,1738.228,951.765Z" transform="translate(-1718.667 -927.583)" fill="#0b0754"/><path d="M1698.428,945.521a1.814,1.814,0,0,0-.642-.656,1.957,1.957,0,0,0-.9-.288,1.873,1.873,0,0,0-.933.172,1.916,1.916,0,0,0-.723.564,8.031,8.031,0,0,1,.829-.253,2.624,2.624,0,0,1,.8-.067,2.831,2.831,0,0,1,.788.166A5.388,5.388,0,0,1,1698.428,945.521Z" transform="translate(-1681.154 -921.715)" fill="#0b0754"/><path d="M1716.608,957.689a8.221,8.221,0,0,0-.75.813,7.8,7.8,0,0,0-.645.9,2.155,2.155,0,0,0-.282.666c-.019.121-.01.238.192.436a2.64,2.64,0,0,0,.434.36,3.575,3.575,0,0,0,.482.277,6.053,6.053,0,0,1-.783-.752,1.057,1.057,0,0,1-.126-.2.42.42,0,0,1,.039-.205,2.963,2.963,0,0,1,.239-.47c.182-.31.389-.611.591-.915S1716.41,958,1716.608,957.689Z" transform="translate(-1698.338 -933.158)" fill="#ef7f7f"/><path d="M1681.009,885.978s-1.94-.374.449-1.545,8.248-1.853,11.31.77c0,0,1.03-1.321,1.955-.741s-.964,1.222-.964,1.222,1.293.249,1.543.968c.184.531-.606.374-1.031.255.7.29,2.77,2.242.085,7.573a46.74,46.74,0,0,1-3.547-4.6s-6.175,2.029-5.049.346c0,0-7.2,1.81-5.452-1.452C1680.309,888.771,1677.656,888.371,1681.009,885.978Z" transform="translate(-1667.27 -868.344)" fill="#0b0754"/><path d="M1770.908,915.924a1.264,1.264,0,0,0-1.177-.092c-.712.264-1.164,1.861-1.164,1.861s-2.33,1.908-1.194-6.409c1.116-8.171,2.662,1.36,2.662,1.36Z" transform="translate(-1743.821 -889.787)" fill="#0b0754"/><g transform="translate(9.212)"><path d="M1665.239,766.332l-1.008-.1a1.06,1.06,0,0,1,.614-.122l25.25,2.483a2.28,2.28,0,0,1,2.184,2.356l-.133,1.347a2.279,2.279,0,0,1-2.6,1.885l-24.967-2.463Z" transform="translate(-1663.324 -766.02)" fill="#e16ae1"/><path d="M1848.667,787.676l.133-1.347a2.28,2.28,0,0,0-2.184-2.355l.542.053a2.28,2.28,0,0,1,2.184,2.356l-.133,1.347a2.279,2.279,0,0,1-2.6,1.885l-.535-.053A2.279,2.279,0,0,0,1848.667,787.676Z" transform="translate(-1821.964 -781.609)" fill="#bed1f9"/><path d="M1802.322,783.119l.133-1.347a2.28,2.28,0,0,0-2.184-2.356l.542.053a2.279,2.279,0,0,1,2.184,2.356l-.132,1.347a2.28,2.28,0,0,1-2.6,1.885l-.535-.053A2.279,2.279,0,0,0,1802.322,783.119Z" transform="translate(-1781.533 -777.632)" fill="#bed1f9"/><path d="M1673.39,766.984a2.18,2.18,0,0,1,2.088,2.253l-.15,1.522a2.18,2.18,0,0,1-2.487,1.8l-15.719-1.546.033-.34.065.006,4.029.057,1.084-2.729s-1.406-1.705-1.5-1.755-3.127-.471-3.127-.471l-.065-.007.033-.339Z" transform="translate(-1657.123 -765.438)" fill="#e16ae1"/><path d="M1659.071,770.686a3.259,3.259,0,0,0-.718-2.532l15.335,1.508a2,2,0,0,1,1.918,2.069l-.115,1.172a2,2,0,0,1-2.284,1.656l-15.335-1.508S1658.868,772.754,1659.071,770.686Z" transform="translate(-1657.776 -767.807)" fill="#dde8fe"/><path d="M1678.9,771.731l-.115,1.172a1.667,1.667,0,0,1-.105.441,4.414,4.414,0,0,0-3.145-2.883c-4.326-1.244-13.888-2.306-13.888-2.306l15.335,1.508A2,2,0,0,1,1678.9,771.731Z" transform="translate(-1661.068 -767.807)" fill="#bed1f9" style="mix-blend-mode:multiply;isolation:isolate"/></g></g><g transform="translate(240.708 302.333)"><path d="M1424.8,1071.731l-1.041,2.323a.381.381,0,0,0,.192.5l5.439,2.438a.431.431,0,0,0,.537-.631l-2.1-3.279A3.351,3.351,0,0,1,1424.8,1071.731Z" transform="translate(-1383.016 -1000.254)" fill="#7c9af2"/><path d="M1370.646,1071.731l-1.041,2.323a.381.381,0,0,0,.192.5l5.438,2.438a.431.431,0,0,0,.537-.631l-2.1-3.279A3.351,3.351,0,0,1,1370.646,1071.731Z" transform="translate(-1335.772 -1000.254)" fill="#7c9af2"/><path d="M1273.62,557.546l-.578,3.627-1.222-4.836s1.712-.831,1.788-.529A13.464,13.464,0,0,1,1273.62,557.546Z" transform="translate(-1250.494 -550.104)" fill="#0b0754"/><path d="M1206.135,631.06l-.529,6.27,5.533-.264-.638-5.553Z" transform="translate(-1192.729 -615.812)" fill="#fb9390"/><path d="M1213.168,634.154l-.3-2.641-4.367-.453-.183,2.171A4.393,4.393,0,0,0,1213.168,634.154Z" transform="translate(-1195.092 -615.812)" fill="#ef7f7f"/><path d="M1271.79,592.107a1.135,1.135,0,1,0,1.6-.764A1.269,1.269,0,0,0,1271.79,592.107Z" transform="translate(-1250.321 -581.084)" fill="#ef7f7f"/><path d="M1186.855,548.338c.029-.179.068-.357.111-.533a5.913,5.913,0,1,0-11.648-1.763,1.276,1.276,0,0,0-1.143-.162,1.783,1.783,0,0,0,1.215,3.259,1.128,1.128,0,0,0,.275-.15,5.544,5.544,0,0,0,5.179,5.421,5.305,5.305,0,0,0,3.687-1.268C1185.894,552.139,1186.585,550.01,1186.855,548.338Z" transform="translate(-1164.583 -536.811)" fill="#fb9390"/><path d="M1239.8,587.04c.011.339.014.669.031.993a2.207,2.207,0,0,0,.183.879.841.841,0,0,1,.234.518.7.7,0,0,1-.258.547,1.14,1.14,0,0,1-1.017.2,1.408,1.408,0,0,0,.832-.388.448.448,0,0,0,.122-.339c-.014-.124-.052-.15-.2-.358a1.323,1.323,0,0,1-.16-.541,2.752,2.752,0,0,1,0-.521A3.538,3.538,0,0,1,1239.8,587.04Z" transform="translate(-1221.838 -577.409)" fill="#ef7f7f"/><path d="M1223.026,586.772a.516.516,0,1,1-.408-.447A.516.516,0,0,1,1223.026,586.772Z" transform="translate(-1207.029 -576.776)" fill="#0b0754"/><path d="M1257.615,590.673a.516.516,0,1,1-.407-.448A.517.517,0,0,1,1257.615,590.673Z" transform="translate(-1237.203 -580.178)" fill="#0b0754"/><path d="M1223.3,617.934a3.748,3.748,0,0,0,.426.324,3.658,3.658,0,0,0,.46.266,3.2,3.2,0,0,0,1,.308,2.729,2.729,0,0,0,1.04-.077,3.837,3.837,0,0,0,.967-.44,2.873,2.873,0,0,1-.937.539,2.464,2.464,0,0,1-1.087.111,2.826,2.826,0,0,1-1.033-.35A3.091,3.091,0,0,1,1223.3,617.934Z" transform="translate(-1208.163 -604.361)" fill="#ef7f7f"/><path d="M1215.617,577.227a5.259,5.259,0,0,0-.755-.181,2.607,2.607,0,0,0-.717-.016,2.413,2.413,0,0,0-.689.183c-.172.054-.589.3-.7.346a1.737,1.737,0,0,1,1.341-.933,1.741,1.741,0,0,1,.848.113A1.586,1.586,0,0,1,1215.617,577.227Z" transform="translate(-1198.969 -568.313)" fill="#0b0754"/><path d="M1252.977,580.834a1.587,1.587,0,0,1,.751-.349,1.742,1.742,0,0,1,.854.054,1.734,1.734,0,0,1,1.134,1.175c-.1-.069-.459-.389-.616-.475a2.421,2.421,0,0,0-.641-.313,2.633,2.633,0,0,0-.706-.124A5.281,5.281,0,0,0,1252.977,580.834Z" transform="translate(-1234.056 -571.665)" fill="#0b0754"/><path d="M1233.2,848.223s-1.154,7.828,6.409,9.191a91.475,91.475,0,0,0,16.973.957l1.309,17.981,3.948.2s10.167-24.983-3.906-28.889l-12.646.062-5.207-.372s-5.27-1.3-5.331-1.054S1233.323,848.348,1233.2,848.223Z" transform="translate(-1216.746 -803.562)" fill="#0b0754"/><path d="M1178.728,848.547s-1.154,7.828,6.409,9.192a91.5,91.5,0,0,0,16.973.957l1.31,17.981,3.948.2s10.167-24.983-3.906-28.888l-12.646.062-5.207-.372s-5.269-1.3-5.331-1.054S1178.852,848.671,1178.728,848.547Z" transform="translate(-1169.226 -803.844)" fill="#0b0754"/><path d="M1123.717,657.214s5.207.661,6.53,1.736,7.687,16.862,7.687,16.862l-5.29,6.2-11.241.083s-8.431,4.546-13.721.248-2.562-19.259.5-22.483,8.514-3.141,8.514-3.141S1121.651,660.189,1123.717,657.214Z" transform="translate(-1104.689 -638.196)" fill="#e16ae1"/><path d="M1171.4,722.143a21.911,21.911,0,0,1,.381,2.61c.045.438.064.878.089,1.318s.023.881.017,1.322a17.359,17.359,0,0,1-.217,2.638,8.674,8.674,0,0,1-.767,2.527,12.972,12.972,0,0,0,.5-2.563c.1-.864.129-1.736.14-2.607s0-1.745-.031-2.619S1171.442,723.021,1171.4,722.143Z" transform="translate(-1162.451 -695.273)" fill="#fff"/><path d="M1296.892,717.609c.238,1.281.49,2.556.746,3.83s.532,2.542.84,3.8.643,2.513,1.052,3.74a18.34,18.34,0,0,0,.7,1.807,6.944,6.944,0,0,0,1,1.658,6.332,6.332,0,0,1-1.148-1.583,14.9,14.9,0,0,1-.8-1.792c-.234-.611-.435-1.234-.625-1.858s-.351-1.258-.508-1.891-.292-1.272-.421-1.911-.246-1.28-.349-1.924C1297.165,720.2,1297,718.907,1296.892,717.609Z" transform="translate(-1272.367 -691.317)" fill="#fff"/><g transform="translate(23.027 23.245)"><path d="M1324.809,712.379c-.962-1.5-8.842-4.039-8.842-4.039v2.534l8.021,2.8Z" transform="translate(-1312.035 -706.476)" fill="#dde8fe"/><path d="M1318.256,710.346l-9.151-4.219v1.638l8.925,3.22Z" transform="translate(-1306.049 -704.545)" fill="#fff"/><path d="M1310.8,714.208l-9.659-3.654v2.824l9.562,1.469Z" transform="translate(-1299.098 -708.407)" fill="#dde8fe"/><path d="M1385.259,700.982a40.5,40.5,0,0,1,2.625-5.258,25.662,25.662,0,0,1-1.158,6.468Z" transform="translate(-1372.486 -695.47)" fill="#fff"/><path d="M1391.632,699.437l2.258-5.705v2.718l-1.551,3.721Z" transform="translate(-1378.046 -693.731)" fill="#dde8fe"/><path d="M1397.17,701.271l2.461-5.547V697.7Z" transform="translate(-1382.877 -695.47)" fill="#fff"/><path d="M1397.17,719.753l3.1-5.343V697.318l-3.1,5.343Z" transform="translate(-1382.877 -696.861)" fill="#6237ad"/><path d="M1285.152,736.052l10.985,2.582V721.542l-10.985-2.582Z" transform="translate(-1285.152 -715.741)" fill="#92b5f9"/><path d="M1371.241,737.217a4.83,4.83,0,0,1,3.309,0C1374.384,738.194,1371.488,738.386,1371.241,737.217Z" transform="translate(-1360.256 -731.416)" fill="#dde8fe"/><path d="M1371.241,756.284c0,.418,3.324.418,3.324,0V739.193c-.336.5-2.949.483-3.324,0Z" transform="translate(-1360.256 -733.392)" fill="#7c9af2"/></g><path d="M1260.309,821.473c-.033-.262-2.02-.554-2.75-.592-.553-.029-4.221-.151-5.468-.208l.092.321-.019,1.417-.2.939c1.094.069,3.77.174,4.327.284a13.66,13.66,0,0,1,2.035.708s.537-.122-.145-.416a3.269,3.269,0,0,1-1.095-.785c-.094-.1.008-.291.076-.273,1.858.487,2.049.567,2.049.567s2.183-.012.012-.5c-1.3-.294-1.767-.465-1.883-.611-.049-.062.039-.274.118-.279,1.127-.069,3.151.33,2.6.068a14.312,14.312,0,0,0-2.429-.536c-.034-.005-.089-.211.062-.224C1258.756,821.261,1260.34,821.716,1260.309,821.473Z" transform="translate(-1233.167 -781.231)" fill="#fb9390"/><path d="M1164.826,802.063c.457.111.908.239,1.367.335s.918.188,1.376.284c.922.168,1.846.314,2.773.444s1.858.234,2.789.324,1.872.171,2.791.222l.124.007.027.107a7.563,7.563,0,0,1,.17.927,7.446,7.446,0,0,1,.055.936,5.98,5.98,0,0,1-.081.937,4.3,4.3,0,0,1-.272.9l-.011.026-.02.013-1.021.685q-.51.343-1.026.678c.32-.257.643-.509.968-.759l.973-.751-.031.039a4.138,4.138,0,0,0,.214-.869,5.973,5.973,0,0,0,.044-.9,8.458,8.458,0,0,0-.082-.9,7.325,7.325,0,0,0-.181-.881l.151.114c-.486-.013-.946-.044-1.418-.079s-.938-.072-1.407-.121c-.936-.1-1.87-.214-2.8-.362s-1.854-.332-2.77-.548c-.456-.116-.913-.229-1.363-.371S1165.269,802.22,1164.826,802.063Z" transform="translate(-1157.153 -764.995)" fill="#fff"/><path d="M1192.3,515.57s1.736.056-.086-1.412-6.713-3.189-9.848-1.534c0,0-.627-1.333-1.533-1.015s.589,1.235.589,1.235-1.157-.037-1.511.53c-.261.42.448.438.835.419-.659.112-3.184,1.707-1.917,6.8.451-.1,3.018-3.822,3.018-3.822s5.871,3.262,5.291.668c0,0,6.083,3.8,5.22.66C1192.362,518.1,1194.714,518.273,1192.3,515.57Z" transform="translate(-1169.066 -511.561)" fill="#0b0754"/><path d="M1181.192,540.483a1.112,1.112,0,0,1,1.009.244c.523.415.465,1.873.465,1.873s2.5,1.61,2.233-5.2c-.28-7.246-2.082.581-2.082.581Z" transform="translate(-1171.43 -531.418)" fill="#0b0754"/></g><g transform="translate(206.345 370.904)"><path d="M933.322,1647.159l1.041,2.323a.381.381,0,0,1-.192.5l-5.439,2.438a.431.431,0,0,1-.537-.63l2.1-3.279A3.351,3.351,0,0,0,933.322,1647.159Z" transform="translate(-916.29 -1570.828)" fill="#0b0754"/><path d="M988.558,1644.992l1.041,2.323a.381.381,0,0,1-.192.5l-5.439,2.438a.431.431,0,0,1-.537-.631l2.1-3.279A3.351,3.351,0,0,0,988.558,1644.992Z" transform="translate(-964.478 -1568.938)" fill="#0b0754"/><path d="M1019.8,1055.17s-5.927-1-7.916,5.623l2.455,3.674s5.148-1.978,5.168-2.172S1019.8,1055.17,1019.8,1055.17Z" transform="translate(-989.363 -1054.329)" fill="#e16ae1"/><path d="M1084.571,1078.917s1.729,2.6,2.61,3.631c2.218,2.593,2.5,1.78,3.883,4.01a3.212,3.212,0,0,1-.873,4.609c-.856.694.576,3.261-1.019,4.7-2.088,1.883-4.018.108-5.455,1.163s-1.75,2.619-5.154,2.324-3.371-11.425-3.371-11.425,2.786-5.9,2.9-5.949S1084.571,1078.917,1084.571,1078.917Z" transform="translate(-1044.594 -1075.094)" fill="#e16ae1"/><path d="M979.472,1099.6a9.992,9.992,0,0,1-.879,3.219c-1.7,2.96-2.615,1.99-3.556,4.438a3.212,3.212,0,0,0,1.713,4.367c.97.523.038,3.311,1.872,4.429,2.4,1.464,3.969-.64,5.575.131s2.205,2.249,5.5,1.328,1.194-11.852,1.194-11.852-3.832-5.281-3.95-5.309S979.472,1099.6,979.472,1099.6Z" transform="translate(-956.952 -1093.139)" fill="#e16ae1"/><path d="M1079.226,1196.316a56.844,56.844,0,0,1,8.293-.957c2.612.088-1.583,6.881-1.583,6.881l-4.267.095s-2.616-2.921-2.444-3.261a12.643,12.643,0,0,0-.008-2.569Z" transform="translate(-1048.105 -1176.673)" fill="#fb9390"/><path d="M1091.525,1160.41l1.5,4.548s-1.3,2.7-5.3,1.534a4.208,4.208,0,0,0-.156-2.882C1086.943,1161.628,1091.525,1160.41,1091.525,1160.41Z" transform="translate(-1055.34 -1146.188)" fill="#fb9390"/><path d="M1091.525,1160.41l.7,2.125c-.419,1.553-1.778,2.61-4.343,2.938a6.167,6.167,0,0,0-.318-1.863C1086.943,1161.628,1091.525,1160.41,1091.525,1160.41Z" transform="translate(-1055.34 -1146.188)" fill="#ef7f7f" opacity="0.6"/><path d="M1031.686,1127.831a1.2,1.2,0,1,1-1.657-.867A1.339,1.339,0,0,1,1031.686,1127.831Z" transform="translate(-1004.641 -1116.939)" fill="#ef7f7f"/><path d="M1039.745,1086.069a11.538,11.538,0,0,1-.7-2.854c-.024-.19-.058-.379-.1-.567a6.24,6.24,0,1,1,12.352-1.408,1.348,1.348,0,0,1,1.212-.127,1.881,1.881,0,0,1-1.407,3.39,1.188,1.188,0,0,1-.284-.169,5.851,5.851,0,0,1-5.672,5.517A5.742,5.742,0,0,1,1039.745,1086.069Z" transform="translate(-1012.865 -1071.823)" fill="#fb9390"/><path d="M1072.938,1123.873a3.809,3.809,0,0,1,.2,1.052,2.979,2.979,0,0,1-.019.548,1.391,1.391,0,0,1-.189.56c-.136.175-.208.233-.228.374a.479.479,0,0,0,.119.369,1.475,1.475,0,0,0,.867.436,1.208,1.208,0,0,1-1.06-.254.729.729,0,0,1-.248-.581.889.889,0,0,1,.266-.532,1.318,1.318,0,0,0,.155-.426,4.367,4.367,0,0,0,.071-.5C1072.9,1124.578,1072.917,1124.229,1072.938,1123.873Z" transform="translate(-1042.14 -1114.313)" fill="#ef7f7f"/><path d="M1092.835,1124.322a.545.545,0,1,0,.447-.457A.545.545,0,0,0,1092.835,1124.322Z" transform="translate(-1059.98 -1114.3)" fill="#0b0754"/><path d="M1056.205,1127.1a.545.545,0,1,0,.447-.457A.545.545,0,0,0,1056.205,1127.1Z" transform="translate(-1028.024 -1116.719)" fill="#0b0754"/><path d="M1073.555,1160.075a1.83,1.83,0,0,0-1.512.2,1.347,1.347,0,0,0-1.417-.022,1.505,1.505,0,0,0,1.592,1.1A1.345,1.345,0,0,0,1073.555,1160.075Z" transform="translate(-1040.61 -1145.826)" fill="#e16ae1" opacity="0.3" style="mix-blend-mode:multiply;isolation:isolate"/><path d="M1070.741,1157.313a4.5,4.5,0,0,1-.957.588,3.372,3.372,0,0,1-1.068.286,2.879,2.879,0,0,1-1.094-.121,4.049,4.049,0,0,1-1-.5,3.426,3.426,0,0,0,.453.347,3.135,3.135,0,0,0,.514.258,2.679,2.679,0,0,0,.561.144,2.86,2.86,0,0,0,.581.015,2.981,2.981,0,0,0,1.1-.33A3.257,3.257,0,0,0,1070.741,1157.313Z" transform="translate(-1037.114 -1143.486)" fill="#ef7f7f"/><path d="M1087.829,1114.263a5.561,5.561,0,0,1,.8-.162,2.769,2.769,0,0,1,.757.011,2.556,2.556,0,0,1,.72.22c.179.063.61.338.722.392a1.831,1.831,0,0,0-1.378-1.036,1.837,1.837,0,0,0-.9.086A1.674,1.674,0,0,0,1087.829,1114.263Z" transform="translate(-1055.618 -1105.409)" fill="#e16ae1"/><path d="M1048.976,1116.745a1.677,1.677,0,0,0-.779-.4,1.839,1.839,0,0,0-.9.024,1.832,1.832,0,0,0-1.242,1.2c.106-.068.5-.393.669-.477a2.555,2.555,0,0,1,.688-.306,2.771,2.771,0,0,1,.75-.1A5.648,5.648,0,0,1,1048.976,1116.745Z" transform="translate(-1019.173 -1107.71)" fill="#e16ae1"/><path d="M937.72,1407.823s1.675,7.884-5.927,9.756a93.2,93.2,0,0,1-17.2,2.062l-.177,18.365-4,.458s-11.94-24.748,2.117-29.622l12.862-.749,5.271-.712s5.274-1.662,5.353-1.414S937.6,1407.957,937.72,1407.823Z" transform="translate(-896.718 -1360.391)" fill="#fb9390"/><path d="M993.122,1404.656s1.675,7.885-5.927,9.756a93.215,93.215,0,0,1-17.2,2.063l-.177,18.365-4,.458s-11.94-24.748,2.117-29.622l12.862-.749,5.27-.712s5.274-1.662,5.353-1.414S993,1404.791,993.122,1404.656Z" transform="translate(-945.051 -1357.629)" fill="#fb9390"/><path d="M856.129,1394.448a14.688,14.688,0,0,0-14.337,10.927c-2.079,7.148-6.824,14.522-6.373,14.45,10.054,5.628,13.215-.025,20.164,1.646s9.412.915,9.412.915c-2.011-10.089-4.657-15.19-4.657-15.19.584.1,17.638.356,21.851-4.313,1.182-1.31,2.087-2.956,1.906-6.982C883.759,1388.41,857.989,1394.419,856.129,1394.448Z" transform="translate(-835.39 -1348.35)" fill="#6237ad"/><path d="M1008.37,1502.271c.219-.04.438-.077.655-.128s.43-.109.642-.172c.106-.033.213-.069.317-.107a2.414,2.414,0,0,1-.322-.092,2.716,2.716,0,0,1-.587-.3,3.076,3.076,0,0,1-.876-.953l.218.236c.078.073.151.151.232.219a3.247,3.247,0,0,0,.506.375,3.051,3.051,0,0,0,.564.264,2.179,2.179,0,0,0,.6.12l.355.013-.315.147a4.189,4.189,0,0,1-.646.226,6.5,6.5,0,0,1-.661.142c-.222.036-.445.067-.669.084s-.448.028-.672.027C1007.929,1502.338,1008.15,1502.31,1008.37,1502.271Z" transform="translate(-985.72 -1442.898)" fill="#daeef7"/><path d="M1015.24,1283.269s-.518,12.882-1.966,14.9l7.967-1.811v-14.02Z" transform="translate(-990.576 -1252.558)" fill="#fb9390"/><path d="M1053.912,1269.152a28.016,28.016,0,0,1,1.486,4.964,20.427,20.427,0,0,1-.928,9.728c-1.242,3.415,8.368,2.115,8.6,2.121,10.154.241,10.059-.173,10.059-.173l1.621-1.3c-.226-4.172-.8-7.78-.713-11.5l.093-3.839-.466-3.88-14.373-1.132Z" transform="translate(-1026.029 -1236.682)" fill="#6237ad"/><g transform="translate(19.516 29.949)"><path d="M1015.352,1300.675c.878-1.365,8.067-3.685,8.067-3.685v2.312l-7.318,2.558Z" transform="translate(-1011.905 -1295.289)" fill="#ededed"/><path d="M1015.352,1300.675c.878-1.365,8.067-3.685,8.067-3.685v2.312l-7.318,2.558Z" transform="translate(-1011.905 -1295.289)" fill="#dde8fe"/><path d="M1019.4,1298.821l8.349-3.85v1.495l-8.143,2.938Z" transform="translate(-1015.439 -1293.528)" fill="#fff"/><path d="M1023.037,1302.345l8.813-3.334v2.577l-8.724,1.34Z" transform="translate(-1018.61 -1297.052)" fill="#dde8fe"/><path d="M998.978,1290.278a36.942,36.942,0,0,0-2.395-4.8,23.413,23.413,0,0,0,1.056,5.9Z" transform="translate(-995.531 -1285.248)" fill="#fff"/><path d="M995.453,1288.867l-2.06-5.205v2.48l1.415,3.4Z" transform="translate(-992.749 -1283.662)" fill="#dde8fe"/><path d="M990.4,1308.32l-2.06-4.741v-15.594l2.06,4.741Z" transform="translate(-988.339 -1287.434)" fill="#e16ae1"/><path d="M1038.164,1322.273l-10.022,2.355v-15.594l10.022-2.355Z" transform="translate(-1023.063 -1303.743)" fill="#e16ae1"/><path d="M1007.5,1323.337a4.4,4.4,0,0,0-3.019,0C1004.635,1324.229,1007.278,1324.4,1007.5,1323.337Z" transform="translate(-1002.424 -1318.044)" fill="#dde8fe"/><path d="M1007.409,1340.735c0,.382-3.033.382-3.033,0v-15.594c.307.453,2.691.441,3.033,0Z" transform="translate(-1002.33 -1319.848)" fill="#e16ae1"/></g><path d="M1050.063,1277.445l-6.822,3.16s-.531,8.727-.86,9.113c-.6.7-6.646,2.7-9.832,3.287a2.977,2.977,0,0,1-1.532-.12c-1.58-.558-4.377-1.563-4.818-1.712-.693-.234-2.647-.7-2.774-.465-.118.214,1.522.376,2.487.855.136.067.009.239-.025.231a14.286,14.286,0,0,0-2.455-.4c-.612.039,1.416.414,2.438.9.072.034.076.263.007.3a4.724,4.724,0,0,1-1.976-.127c-2.2-.345-.174.472-.174.472s.207,0,2.113.229c.07.009.1.219-.031.282a3.266,3.266,0,0,1-1.307.325c-.742.022-.289.333-.289.333a13.674,13.674,0,0,1,2.153.093c.558.1,3.084.993,4.126,1.333l.129-.16c1.446.336,14.773,1.311,16.391-2.644A47.068,47.068,0,0,0,1050.063,1277.445Z" transform="translate(-998.952 -1248.29)" fill="#fb9390"/><path d="M1017.806,1196.2s3.862,4.508,8.293-.957c0,0,4.842-.395,8.411,2.141s5.708,8.229,5.708,8.229-5.124,3.415-9.253,3.415l-9.685-3.468-6.71,3.468a16.936,16.936,0,0,1-5.754-1.552S1009.27,1198.425,1017.806,1196.2Z" transform="translate(-986.686 -1176.557)" fill="#6237ad"/><path d="M1169.659,1251.735c.166.559.316,1.122.465,1.687.279,1.108.534,2.163.722,3.3a6.073,6.073,0,0,0,1.09-.084,21.167,21.167,0,0,0,4.749-1.534c2.487-1.133,2.152-1.023,3.4-1.642a32.672,32.672,0,0,1-3.3,1.867,18.122,18.122,0,0,1-4.8,1.642,4.712,4.712,0,0,1-1.426.054c-.126-.831-.271-1.682-.668-3.545l-.37-1.706-.38-1.706C1169.33,1250.616,1169.493,1251.176,1169.659,1251.735Z" transform="translate(-1126.558 -1224.401)" fill="#0b0754"/><path d="M1049.662,1243.83a9.636,9.636,0,0,0-.164,2.068,14.013,14.013,0,0,0,.545,2.22l-.159.061a15.457,15.457,0,0,1-.65-2.259,7.457,7.457,0,0,1,.094-2.149,11.315,11.315,0,0,1,.584-2.059,10.9,10.9,0,0,1,.938-1.911q-.38.993-.688,2A17.522,17.522,0,0,0,1049.662,1243.83Z" transform="translate(-1021.911 -1215.448)" fill="#0b0754"/><path d="M1069.595,1058.37s-6.633-1.6-9.8-6.107c0,0-.055-4.1,6.034-3.173C1071.743,1049.994,1073.128,1055.752,1069.595,1058.37Z" transform="translate(-1031.159 -1048.952)" fill="#e16ae1"/></g></g></svg>