<svg xmlns="http://www.w3.org/2000/svg" width="260.956" height="165.021" viewBox="0 0 260.956 165.021"><g transform="translate(-129.507 -392.106)"><g transform="translate(294.349 423.074)"><g transform="translate(0.047 6.034)"><path d="M1402.518,718.23c6.148-8.687,7.3-19.176,7.176-26.446a61.81,61.81,0,0,0-1.757-13.86l.445-.142a62.242,62.242,0,0,1,1.773,13.956c.123,7.341-1.037,17.938-7.262,26.732Z" transform="translate(-1402.518 -677.783)" fill="#bed1f9"/></g><g transform="translate(3.928 0)"><path d="M1432.5,635.927a5.753,5.753,0,0,0,2.284,4.2,6.425,6.425,0,0,0,1.529-4.732,5.752,5.752,0,0,0-2.285-4.2A6.427,6.427,0,0,0,1432.5,635.927Z" transform="translate(-1432.48 -631.195)" fill="#bed1f9"/></g><g transform="translate(6.948 5.955)"><path d="M1456.955,680.067a6.3,6.3,0,0,0-1.032,4.832,6.872,6.872,0,0,0,4.186-2.9,6.3,6.3,0,0,0,1.032-4.832A6.872,6.872,0,0,0,1456.955,680.067Z" transform="translate(-1455.796 -677.167)" fill="#bed1f9"/></g><g transform="translate(7.321 12.728)"><path d="M1461.816,730.437a6.763,6.763,0,0,0-3.14,3.975,6.621,6.621,0,0,0,4.964-.8,6.765,6.765,0,0,0,3.14-3.975A6.618,6.618,0,0,0,1461.816,730.437Z" transform="translate(-1458.676 -729.459)" fill="#bed1f9"/></g><g transform="translate(7.441 19.822)"><path d="M1461.895,784.871a4.837,4.837,0,0,0-2.294,3.483,4.715,4.715,0,0,0,4.122-.306,4.835,4.835,0,0,0,2.294-3.483A4.715,4.715,0,0,0,1461.895,784.871Z" transform="translate(-1459.601 -784.231)" fill="#bed1f9"/></g><g transform="translate(0 11.885)"><path d="M1406.591,723.527a5.725,5.725,0,0,0-4.436-.233,5.14,5.14,0,0,0,2.776,3.254,5.725,5.725,0,0,0,4.436.233A5.141,5.141,0,0,0,1406.591,723.527Z" transform="translate(-1402.155 -722.955)" fill="#bed1f9"/></g><g transform="translate(0.16 16.551)"><path d="M1407.823,759.549a5.725,5.725,0,0,0-4.436-.233,5.141,5.141,0,0,0,2.776,3.255,5.725,5.725,0,0,0,4.436.233A5.143,5.143,0,0,0,1407.823,759.549Z" transform="translate(-1403.387 -758.977)" fill="#bed1f9"/></g><g transform="translate(7.031 27.825)"><path d="M1458.211,846.073a2.783,2.783,0,0,0-1.776,1.232,2.5,2.5,0,0,0,2.037.425,2.785,2.785,0,0,0,1.776-1.232A2.5,2.5,0,0,0,1458.211,846.073Z" transform="translate(-1456.435 -846.014)" fill="#bed1f9"/></g></g><path d="M1679.222,1210.526a5.291,5.291,0,0,0-1.374-2.708c-.831-.99-1.514-3.226-2.013-2.606s.86,2.413.268,2.413-3.661-3.557-4.112-3,2.648,3.732,2.119,3.732-3.069-3.2-3.707-2.4,3.3,3.489,2.96,3.915-2.788-1.338-3.3-.7,3.441,2.248,3.129,2.248-2.563-.108-2.563.35c0,.518,4.762,1.008,5.494,1.919s10.639,9.44,12.82,8.974,9.919-9.7,10.131-12.079-1.408-4.436-2.9-4.436-8.378,8.916-8.847,8.916S1679.222,1210.526,1679.222,1210.526Z" transform="translate(-1340.97 -707.228)" fill="#ef7f7f"/><path d="M1830.855,1182.6a11.325,11.325,0,0,0-6.53,2.1c-2.214,1.623-6.734,7.436-6.734,7.436l6.94,5.772s6.234-6.121,7.576-9.122C1834.344,1183.778,1832.862,1182.929,1830.855,1182.6Z" transform="translate(-1469.432 -688.078)" fill="#bed1f9"/><path d="M1839.1,1020.433a5.383,5.383,0,0,0-5.1,2.971l-1.756,3.328s-5.457,3.4-2.18,7.5c0,0-.49,4.468,3.131,6.474a10.764,10.764,0,0,0,4.884.835s6.183,2.545,9.427.2c0,0,4.415-.436,5.768-3.226.658-1.357-.359-1.531.366-2.524,1.248-1.71,1.286-3.6-.365-4.99a8.622,8.622,0,0,1-2.671-4.483C1849.059,1021.393,1845.115,1018.962,1839.1,1020.433Z" transform="translate(-1479.37 -546.573)" fill="#0b0754"/><g transform="translate(298.501 466.672)"><g transform="translate(0 5.256)"><path d="M1434.211,1037.046c14.365-.952,26.357-8.693,33.888-15.019a83.6,83.6,0,0,0,13.055-13.666l.528.346a84.2,84.2,0,0,1-13.143,13.764c-7.6,6.39-19.721,14.209-34.263,15.173Z" transform="translate(-1434.211 -1008.361)" fill="#dde8fe"/></g><g transform="translate(44.693)"><path d="M1781.736,970.219a7.781,7.781,0,0,0-2.465,5.983,8.693,8.693,0,0,0,6.273-2.431,7.782,7.782,0,0,0,2.465-5.983A8.694,8.694,0,0,0,1781.736,970.219Z" transform="translate(-1779.261 -967.784)" fill="#dde8fe"/></g><g transform="translate(40.428 10.276)"><path d="M1752.289,1047.157a8.526,8.526,0,0,0-5.955,3.037,9.3,9.3,0,0,0,6.616,1.922,8.523,8.523,0,0,0,5.954-3.037A9.3,9.3,0,0,0,1752.289,1047.157Z" transform="translate(-1746.334 -1047.118)" fill="#dde8fe"/></g><g transform="translate(36.445 16.306)"><path d="M1722.435,1094.288a9.152,9.152,0,0,0-6.851.093,8.952,8.952,0,0,0,5.068,4.535,9.15,9.15,0,0,0,6.851-.093A8.953,8.953,0,0,0,1722.435,1094.288Z" transform="translate(-1715.584 -1093.67)" fill="#dde8fe"/></g><g transform="translate(29.97 21.774)"><path d="M1672.444,1136.5a9.151,9.151,0,0,0-6.851.093,8.954,8.954,0,0,0,5.068,4.534,9.152,9.152,0,0,0,6.852-.093A8.955,8.955,0,0,0,1672.444,1136.5Z" transform="translate(-1665.593 -1135.887)" fill="#dde8fe"/></g><g transform="translate(35.352 6.288)"><path d="M1711.814,1022.226a7.744,7.744,0,0,0-1.154-5.9,6.955,6.955,0,0,0-3.357,4.714,7.744,7.744,0,0,0,1.154,5.9A6.956,6.956,0,0,0,1711.814,1022.226Z" transform="translate(-1707.141 -1016.329)" fill="#dde8fe"/></g><g transform="translate(28.6 11.918)"><path d="M1659.693,1065.715a7.746,7.746,0,0,0-1.056-5.916,6.956,6.956,0,0,0-3.435,4.657,7.743,7.743,0,0,0,1.056,5.915A6.956,6.956,0,0,0,1659.693,1065.715Z" transform="translate(-1655.013 -1059.799)" fill="#dde8fe"/></g><g transform="translate(24.191 26.438)"><path d="M1623.782,1172.733a3.767,3.767,0,0,0-2.808-.814,3.385,3.385,0,0,0,1.291,2.5,3.766,3.766,0,0,0,2.808.815A3.383,3.383,0,0,0,1623.782,1172.733Z" transform="translate(-1620.974 -1171.893)" fill="#dde8fe"/></g></g><path d="M142.423,873.208l.1-2.818-2.264-1.681a.388.388,0,0,1,.124-.684l2.712-.775.9-2.673a.388.388,0,0,1,.689-.093l1.574,2.339,2.82.029a.388.388,0,0,1,.3.627l-1.738,2.22.844,2.691a.387.387,0,0,1-.5.48l-2.649-.967-2.3,1.634A.387.387,0,0,1,142.423,873.208Z" transform="translate(-9.224 -411.044)" fill="#9bc1f9"/><path d="M1527.307,618.62l.1-2.807-2.255-1.674a.386.386,0,0,1,.124-.681l2.7-.771.9-2.662a.386.386,0,0,1,.686-.092l1.568,2.33,2.809.029a.386.386,0,0,1,.3.624l-1.732,2.212.84,2.68a.386.386,0,0,1-.5.478l-2.638-.963-2.29,1.627A.386.386,0,0,1,1527.307,618.62Z" transform="translate(-1214.737 -189.462)" fill="#dde8fe"/><path d="M933.357,404.729l.1-2.807-2.255-1.674a.386.386,0,0,1,.124-.681l2.7-.772.9-2.662a.386.386,0,0,1,.686-.092l1.568,2.33,2.809.029a.386.386,0,0,1,.3.624l-1.731,2.212.84,2.68a.386.386,0,0,1-.5.478l-2.638-.964-2.29,1.628A.386.386,0,0,1,933.357,404.729Z" transform="translate(-697.719 -3.277)" fill="#dde8fe"/><path d="M1945.582,683.4l2.441-.038,1.016-2.273,2.74.152.335-2.755,3.105.035.622-2.5,2.993-.455.172,1.133-2.238.34-.656,2.636-2.985-.033-.341,2.8-3.023-.167-.992,2.22-2.263.035-.347,1.594-1.12-.243Z" transform="translate(-1580.375 -246.742)" fill="#92b5f9"/><path d="M2013.439,955.386l2.086,1.269,2.071-1.382,2.237,1.588,1.752-2.152,2.609,1.684,1.857-1.783,2.775,1.21-.458,1.05-2.075-.9-1.96,1.881-2.508-1.619-1.781,2.188-2.469-1.752-2.022,1.35-1.933-1.176L2012.478,958l-.818-.8Z" transform="translate(-1638.364 -489.644)" fill="#7c9af2"/><path d="M1946.864,847.264a5.65,5.65,0,1,1-3.3-7.281A5.65,5.65,0,0,1,1946.864,847.264Z" transform="translate(-1572.438 -389.548)" fill="#dde8fe"/><path d="M1953.987,881.505a3.021,3.021,0,1,0,5.654,2.131Z" transform="translate(-1587.991 -426.009)" fill="#f3f8ff"/><g transform="translate(143.895 425.778)"><circle cx="3.655" cy="3.655" r="3.655" transform="matrix(0.23, -0.973, 0.973, 0.23, 6.983, 14.535)" fill="#dde8fe"/><g transform="translate(9.553 0)"><path d="M314.356,653.159a24.415,24.415,0,0,0,.487,3.258.835.835,0,0,0,1.632-.221,26.156,26.156,0,0,0-.447-3.5.873.873,0,0,0-1.067-.606.891.891,0,0,0-.606,1.067Z" transform="translate(-314.343 -652.066)" fill="#dde8fe"/></g><g transform="translate(2.565 3.516)"><path d="M260.831,680.872a36.252,36.252,0,0,1,3.207,2.672.836.836,0,0,0,1.181-1.181,15.9,15.9,0,0,0-3.492-3.026.9.9,0,0,0-1.216.319.906.906,0,0,0,.319,1.216Z" transform="translate(-260.392 -679.212)" fill="#dde8fe"/></g><g transform="translate(0 10.197)"><path d="M245.428,732.453a.628.628,0,0,0,.217-.83c-.357-.77-1.4-.8-2.135-.831a7.891,7.891,0,0,0-2.294.273.886.886,0,0,0,.47,1.707C243.845,732.2,244.589,733.035,245.428,732.453Z" transform="translate(-240.588 -730.787)" fill="#dde8fe"/></g><g transform="translate(4.014 15.517)"><path d="M273.074,775.379c1.169-1.479,2.072-1.943,2-2.807a.736.736,0,0,0-.912-.7c-.579.09-.932.672-1.3,1.073-.356.384-.706.77-1.028,1.183a.91.91,0,0,0,0,1.246.888.888,0,0,0,1.247,0Z" transform="translate(-271.58 -771.864)" fill="#dde8fe"/></g><g transform="translate(9.592 18.469)"><path d="M314.676,795.77a3.886,3.886,0,0,0,.734,1.78.766.766,0,0,0,1.273-.336,3.71,3.71,0,0,0-.3-1.914.885.885,0,1,0-1.707.47Z" transform="translate(-314.645 -794.651)" fill="#dde8fe"/></g><g transform="translate(13.996 16.149)"><path d="M348.9,778.216c1.449,1.268,1.737,1.617,2.343,1.6.355-.013.774-.323.725-.724-.092-.745-.506-.974-1.841-2.1a.89.89,0,0,0-1.226,0,.875.875,0,0,0,0,1.226Z" transform="translate(-348.646 -776.745)" fill="#dde8fe"/></g><g transform="translate(15.741 11.198)"><path d="M367.134,740.039a.81.81,0,0,0-.192-1.468c-.62-.125-.869-.041-3.944.3a.911.911,0,0,0-.885.885.891.891,0,0,0,.885.885C366.191,740.293,366.507,740.318,367.134,740.039Z" transform="translate(-362.113 -738.516)" fill="#dde8fe"/></g><g transform="translate(14.828 4.163)"><path d="M356.589,687.467c1.776-1.5,2-1.194,2.726-2.133a.749.749,0,0,0-.644-1.122,3.156,3.156,0,0,0-1.792.81c-.537.368-1.053.766-1.552,1.184a.9.9,0,0,0,0,1.262.911.911,0,0,0,1.262,0Z" transform="translate(-355.068 -684.208)" fill="#dde8fe"/></g></g><path d="M882.1,471.933l-1.613-2.562L878,470.715l-1.7-2.454-2.529.991-1.573-1.628-.824.8,2.1,2.177,2.4-.939,1.769,2.552,2.44-1.321,1.462,2.322Z" transform="translate(-645.777 -65.736)" fill="#e16ae1"/><g transform="translate(325.728 407.322)"><path d="M1700.835,563.434a3.454,3.454,0,0,1,2.961.077,2.675,2.675,0,0,1,1.211,3.648c-.752,1.533-2.986,2.689-7.25,2.554-2.718-3.288-3.173-5.762-2.421-7.3a2.674,2.674,0,0,1,3.625-1.277A3.455,3.455,0,0,1,1700.835,563.434Z" transform="translate(-1688.458 -554.214)" fill="#e16ae1"/><g transform="translate(0 3.088)"><path d="M1644.664,534.362a35.581,35.581,0,0,0,3.442,2.175c.358.2.921.65,1.34.48a.431.431,0,0,0,.292-.514c-.1-.444-.7-.627-1.065-.827-1.1-.611-2.317-1.355-3.5-2.178a.506.506,0,0,0-.686.18.512.512,0,0,0,.18.685Z" transform="translate(-1644.416 -533.426)" fill="#e16ae1"/></g><g transform="translate(16.804 16.132)"><path d="M1774.395,635.055c.522.3,1.049.593,1.575.886a5.525,5.525,0,0,0,1.622.794.434.434,0,0,0,.419-.719,5.452,5.452,0,0,0-1.525-.958c-.527-.292-1.054-.585-1.585-.868a.5.5,0,0,0-.506.865Z" transform="translate(-1774.149 -634.125)" fill="#e16ae1"/></g><g transform="translate(0.514 11.94)"><path d="M1649.127,603.44a6.267,6.267,0,0,1,3.124-.713.405.405,0,0,0,.107-.792,4.662,4.662,0,0,0-3.735.643.5.5,0,0,0,.5.862Z" transform="translate(-1648.383 -601.761)" fill="#e16ae1"/></g><g transform="translate(4.84 16.936)"><path d="M1682.709,643.181a4.432,4.432,0,0,1,1.146-1.434c.3-.241,1.406-.756.879-1.263-.5-.478-1.344.3-1.708.629a5.238,5.238,0,0,0-1.185,1.561c-.287.577.574,1.087.869.508Z" transform="translate(-1681.783 -640.332)" fill="#e16ae1"/></g><g transform="translate(12.015 18.208)"><path d="M1737.235,650.918l.52,1.127c.173.375.28.839.708.976a.444.444,0,0,0,.532-.3c.154-.38-.195-.851-.355-1.192l-.526-1.123a.514.514,0,0,0-.7-.183.521.521,0,0,0-.183.7Z" transform="translate(-1737.174 -650.155)" fill="#e16ae1"/></g><g transform="translate(9.534 0)"><path d="M1719.054,513.556c.388-3.31.418-3.312.316-3.659a.444.444,0,0,0-.8-.1c-.186.33-.15.279-.546,3.763a.519.519,0,0,0,.516.515.528.528,0,0,0,.516-.515Z" transform="translate(-1718.02 -509.582)" fill="#e16ae1"/></g><g transform="translate(14.528 3.762)"><path d="M1757.428,541.494a7.635,7.635,0,0,0,1.149-1.168c.317-.4.857-.971.62-1.505a.379.379,0,0,0-.339-.195c-.515.044-.773.686-1.067,1.054a9.035,9.035,0,0,1-1.068,1.109.5.5,0,0,0,0,.706.51.51,0,0,0,.705,0Z" transform="translate(-1756.578 -538.626)" fill="#e16ae1"/></g><g transform="translate(18.77 9.98)"><path d="M1792.458,587.511a.444.444,0,0,0,0-.614c-.282-.346-.954-.261-1.359-.252a8.739,8.739,0,0,0-1.4.154.508.508,0,0,0-.351.619.516.516,0,0,0,.619.351C1791.727,587.506,1791.981,587.908,1792.458,587.511Z" transform="translate(-1789.33 -586.629)" fill="#e16ae1"/></g></g><path d="M1255.239,867.2s8.45-52.252,16.883-52.268c7.688-.014-1.552,19.349-.627,23.512s8.4-12.75,16.029-20.613,12.305-3.525,7.881,6.015c-4.278,9.224-19.776,20.033-16.306,20.958s22.922-11.925,25.853-7.189c3.595,5.807-26.371,16.056-23.365,17.213s17.282-4.28,17.282.346-19.726,5.781-19.213,7.781c.831,3.239,19.005-3.565,19.973.929.99,4.6-22.6,3.456-21.982,7.051.358,2.066,22.8-.56,23.615,2.28,1.85,6.476-48.8,9.945-48.8,9.945Z" transform="translate(-977.504 -367.036)" fill="#7c9af2"/><path d="M708.877,1256.307c-5.658-2.578-35.612-19.332-40.228-17.437-5.132,2.106-3.748,7.338-3.748,7.338s-13.915-9.52-19.117-3.963-2.469,16.448,3.633,18.219,57.292.245,57.292.245l3.149-3.951S709.51,1256.6,708.877,1256.307Z" transform="translate(-447.015 -736.956)" fill="#bed1f9"/><g transform="translate(211.886 419.918)"><g transform="translate(0 0)"><g transform="translate(5.166 8.692)"><path d="M832.106,738.6l-.733-.044c1.055-17.53-6.061-34.024-12.216-44.774a116.389,116.389,0,0,0-13.773-19.351l.537-.5a117.106,117.106,0,0,1,13.863,19.47C825.995,704.244,833.173,720.886,832.106,738.6Z" transform="translate(-805.385 -673.934)" fill="#dde8fe"/></g><path d="M767.488,615.013A10.094,10.094,0,0,0,774,619.577a11.8,11.8,0,0,0-1.858-8.188,10.093,10.093,0,0,0-6.514-4.564A11.8,11.8,0,0,0,767.488,615.013Z" transform="translate(-765.504 -606.825)" fill="#dde8fe"/><g transform="translate(10.922 3.807)"><path d="M849.835,643.648a11.737,11.737,0,0,0,2.6,7.968,10.608,10.608,0,0,0,3.2-7.434,11.738,11.738,0,0,0-2.6-7.968A10.607,10.607,0,0,0,849.835,643.648Z" transform="translate(-849.826 -636.214)" fill="#dde8fe"/></g><g transform="translate(16.768 11.843)"><path d="M896.265,703.136a11.452,11.452,0,0,0-.918,8.257,9.25,9.25,0,0,0,5.975-4.876,11.452,11.452,0,0,0,.918-8.257A9.25,9.25,0,0,0,896.265,703.136Z" transform="translate(-894.959 -698.26)" fill="#dde8fe"/></g><g transform="translate(22.252 28.329)"><path d="M938.028,827.395a4.813,4.813,0,0,0-.644,3.431,3.886,3.886,0,0,0,2.657-1.855,4.812,4.812,0,0,0,.644-3.431A3.887,3.887,0,0,0,938.028,827.395Z" transform="translate(-937.3 -825.54)" fill="#dde8fe"/></g><g transform="translate(24.369 33.163)"><path d="M954.372,864.714a4.812,4.812,0,0,0-.645,3.431,3.887,3.887,0,0,0,2.657-1.855,4.811,4.811,0,0,0,.644-3.431A3.886,3.886,0,0,0,954.372,864.714Z" transform="translate(-953.644 -862.859)" fill="#dde8fe"/></g><g transform="translate(2.881 19.337)"><path d="M793.861,756.116a7.933,7.933,0,0,0-6.117,2.952,8.54,8.54,0,0,0,6.39,2.785,7.934,7.934,0,0,0,6.117-2.952A8.54,8.54,0,0,0,793.861,756.116Z" transform="translate(-787.744 -756.115)" fill="#dde8fe"/></g><g transform="translate(6.939 26.17)"><path d="M825.19,808.873a7.934,7.934,0,0,0-6.117,2.952,8.539,8.539,0,0,0,6.39,2.785,7.934,7.934,0,0,0,6.117-2.952A8.54,8.54,0,0,0,825.19,808.873Z" transform="translate(-819.073 -808.872)" fill="#dde8fe"/></g><g transform="translate(15.79 35.483)"><path d="M891.39,880.766a5.164,5.164,0,0,0-3.981,1.921,5.558,5.558,0,0,0,4.159,1.812,5.163,5.163,0,0,0,3.981-1.921A5.558,5.558,0,0,0,891.39,880.766Z" transform="translate(-887.409 -880.765)" fill="#dde8fe"/></g></g></g><path d="M755.894,948.19s-36-6.019-43.826-12.4-.08-9.254-.08-9.254-18.083-9.27-17.873-15.573,9.193-3.1,9.193-3.1-15.236-17.374-11.629-20.673c6.719-6.146,24.333,11.915,24.333,11.915s-5.23-8.589.278-9.948c8.307-2.05,14.438,19.129,14.438,19.129s-1.558-8.364,4.17-7.25C745.174,903.038,755.894,948.19,755.894,948.19Z" transform="translate(-488.875 -429.85)" fill="#6237ad"/><path d="M738.61,901.039c-5.715-1.176-4.17,7.25-4.17,7.25S728.309,887.11,720,889.16c-5.508,1.359-.278,9.948-.278,9.948s-17.614-18.061-24.333-11.915L759.485,948.2C758.344,942.373,745.737,902.506,738.61,901.039Z" transform="translate(-492.587 -429.85)" fill="#7c9af2"/><path d="M1272.252,1265.572s12.959-13.189,19.487-14.565,5.356,3.27,5.356,3.27,12.949-11.333,15.951-8.589-.243,5.395-.243,5.395,10.789-1.916,12.335,1.624c2.375,5.439-15.368,8.408-15.368,8.408s7.436.512,5.713,3.924C1312.884,1270.184,1272.252,1265.572,1272.252,1265.572Z" transform="translate(-994.729 -742.647)" fill="#7c9af2"/><path d="M1325.138,1252.326c-1.546-3.54-12.335-1.624-12.335-1.624s3.246-2.651.243-5.394-15.549,7.049-15.549,7.049,2.957-5.657-3.571-4.282-21.674,17.117-21.674,17.117Z" transform="translate(-994.729 -742.267)" fill="#bed1f9"/><g transform="translate(203.605 523.507)"><path d="M701.572,1407.462h0a.934.934,0,0,0,.976.885H850.68a.934.934,0,0,0,.976-.885h0a.934.934,0,0,0-.976-.885H702.548A.934.934,0,0,0,701.572,1407.462Z" transform="translate(-701.572 -1406.577)" fill="#6237ad"/></g><g transform="translate(235.397 424.66)"><path d="M1335.631,910.81c-.082-.217-.28-.043-.525.324.316-1.328.273-2.994.023-3.143-.308-.183-.486,2.14-1.171,3.4s-1.308,2.809-1.4,2.74c-.152-.109.806-1.8,1.481-3.092s.159-7.226-.469-2.971-4.743,7.506-4.863,6.2.57-3.281-.278-2.991-1.095,3.209-1.84,5.323a9.041,9.041,0,0,0-.09,1.867,1.081,1.081,0,0,1-.711,1.022l-12.268,4.462-1.782-11.015-12.062,2.708s2.906,15.128,9.623,16.645c2.681.605,16.691-7.263,21.281-11.134C1335.12,917.322,1335.983,911.743,1335.631,910.81Z" transform="translate(-1253.996 -872.472)" fill="#f7a491"/><path d="M1333.791,876.461c2.819,1.345,12.281,15.221,12.281,15.221l-8.778,8.246-5.658-8.246S1330.323,874.806,1333.791,876.461Z" transform="translate(-1281.606 -846.178)" fill="#92b5f9"/><path d="M1079.94,655.7c-.6-3.628-1.224-7.27-4.725-10.043a10.461,10.461,0,0,0-9.735-1.72c-9.632,2.882-3.668,8.426-16.4,14.564-13.172,6.349-10.321,18.544-6.45,22.317,18.523,18.054,34.849-3.063,36.036-8.647C1079.547,668.02,1080.327,658.039,1079.94,655.7Z" transform="translate(-1027.423 -643.435)" fill="#0b0754"/><path d="M1053.7,866.431s-1.566-.073-5.787,1.856-13.269,14.475-13.269,14.475l7.369,5.736,12.626-8.258S1056.24,866.431,1053.7,866.431Z" transform="translate(-1023.294 -837.546)" fill="#92b5f9"/><path d="M1192.042,904.3c-4.344,2.308-21.058,1.934-21.058,1.934-.415-4.345-1.838-15.4-2.806-24.74-1.216-6.5,0-8.95,1.324-18.661.009-.066,6.741-.535,6.741-.535l7.006.173s6.094.49,8.032,1.76a124.739,124.739,0,0,1,.3,18.838c-.411,5.3-1.013,9.582-.974,13.086A22.054,22.054,0,0,0,1192.042,904.3Z" transform="translate(-1139.096 -833.953)" fill="#bed1f9"/><path d="M1088.743,1185.381l-15.3,13.137s30.14,15.749,40.594,12.762l2.851-14.255-6.873-11.489Z" transform="translate(-1057.069 -1115.184)" fill="#0b0754"/><path d="M990.864,1317.513s-11.54-1.765-18.464,3.8-11.4,16.7-7.874,18.464,13.848-.271,21.994-3.258S997.516,1319.142,990.864,1317.513Z" transform="translate(-961.184 -1229.97)" fill="#0b0754"/><path d="M974.29,1372.81a4.023,4.023,0,0,0,1.482,5.154c1.98,1.353,29.236,5.34,38.559,6.608,7.269.988,18.2,3.308,21.188,3.851s13.509.735,13.712.407c.557-.9-.679-2.579-2.851-3.122s-3.666-.136-7.875-2.987-5.838-.543-6.924.136-48.739-15.341-48.739-15.341S976.437,1368.171,974.29,1372.81Z" transform="translate(-970.405 -1273.728)" fill="#ef7f7f"/><path d="M977.379,1205.051s-21.092,9.889-25.535,12.756c-8.338,5.38-3.589,20.861-2.409,23.311,0,0,2.42-13.8,10.022-15.024l1.358-6.517Z" transform="translate(-947.02 -1132.307)" fill="#0b0754"/><path d="M1045.209,1205.051s-29.732-8.01-40.865,2.308c0,0-5.215,4.791-3.314,10.494,1.077,3.23,5.079,5.662,5.079,5.662s10.318-8.825,14.527-7.331,20.545,13.013,25.252,12.49C1053.219,1227.859,1061.772,1211.024,1045.209,1205.051Z" transform="translate(-993.671 -1129.727)" fill="#6237ad"/><path d="M1057.275,1300.572c-3.161-1.591-10.671-5.108-15.694-3.615s-7.01,5.554-4.752,8.825c1.325,1.918,45.209,15.069,47.246,16.292s10.454,2.987,13.033,2.987,7.331.95,7.738.271-1.9-2.986-4.751-3.53-6.788-4.345-8.418-5.7-2.163-2.6-5.159-.679C1085.075,1316.349,1064.6,1304.258,1057.275,1300.572Z" transform="translate(-1024.392 -1211.994)" fill="#fb9390"/><path d="M1185.975,918.536c-.137,4.147-5.487,8.139-13.089,8.139s-13.765-3.363-13.765-7.512,5.05-9.987,12.652-9.987S1186.149,913.276,1185.975,918.536Z" transform="translate(-1131.648 -874.755)" fill="#bed1f9"/><path d="M1235.755,775.808s-.147,1.052-.374,2.5c-.415,2.656-.627,7.014-1.16,8.338-.469,1.166,2.1,12.463,3.7,9.518,3.041-5.585,3.521-7.406,3.642-8.84s.5-6.284.757-9.524c.137-1.753.237-3.032.237-3.032Z" transform="translate(-1196.971 -757.761)" fill="#fb9390"/><path d="M1250.595,777.746c.13-1.715.225-2.973.225-2.973l-6.8,1.035s-.172.99-.361,2.39C1246.414,779.8,1248.894,779.294,1250.595,777.746Z" transform="translate(-1205.235 -757.761)" fill="#ef7f7f"/><path d="M1224.586,663.4a7.726,7.726,0,0,0-4.337,3.131c-1.655,2.526-2.791,9.963,2.661,13.435s9.693-1.439,9.763-6.229S1231.717,662.56,1224.586,663.4Z" transform="translate(-1183.669 -660.752)" fill="#fb9390"/><path d="M1316.835,714.4c-.465,1.156-1.388,1.873-2.061,1.6s-.842-1.428-.377-2.583,1.388-1.873,2.061-1.6S1317.3,713.246,1316.835,714.4Z" transform="translate(-1266.583 -702.911)" fill="#fb9390"/><path d="M1206.083,662.7s-3.418,7.666-6.421,8.351-2.959,4.542-2.959,4.542.067-8.909,2.881-10.952A11.837,11.837,0,0,1,1206.083,662.7Z" transform="translate(-1164.362 -660.202)" fill="#0b0754"/><path d="M1207.205,727.233c.4,1.245.033,2.471-.808,2.738s-1.844-.526-2.24-1.771-.034-2.471.808-2.738S1206.81,725.988,1207.205,727.233Z" transform="translate(-1170.712 -714.793)" fill="#fb9390"/><rect width="9.579" height="0.754" transform="matrix(0.487, 0.873, -0.873, 0.487, 89.52, 25.39)" fill="#7c9af2"/><rect width="9.579" height="0.437" transform="matrix(0.487, 0.873, -0.873, 0.487, 89.243, 25.545)" fill="#7c9af2"/><rect width="9.368" height="0.754" transform="matrix(0.487, 0.873, -0.873, 0.487, 86.369, 27.147)" fill="#7c9af2"/><rect width="9.368" height="0.56" transform="matrix(0.487, 0.873, -0.873, 0.487, 86.199, 27.241)" fill="#7c9af2"/><rect width="9.368" height="0.754" transform="translate(83.074 28.983) rotate(60.866)" fill="#7c9af2"/><rect width="9.368" height="0.459" transform="translate(82.816 29.127) rotate(60.866)" fill="#7c9af2"/><path d="M983.7,1020.637c2.979-2.7,4.837-8.319,5.95-10.585,0,0,1.454-2.961,5.821-3.029a12.92,12.92,0,0,0,11.445-7.669c2.219-5-3.178-12.528-3.178-12.528l-.234-.421s-3.564-8.55-8.984-9.292a12.92,12.92,0,0,0-12.542,5.7c-2.355,3.678-5.638,3.357-5.638,3.357-2.511-.245-8.267-1.62-12.132-.507a13.744,13.744,0,0,0-8.231,7.065c-1.9,3.649-2.218,8.643.517,14.914.147.336,1.59,3.286,2.072,4.086.427.83,2.176,3.61,2.385,3.911,3.895,5.625,8.31,7.981,12.412,8.284A13.742,13.742,0,0,0,983.7,1020.637Z" transform="translate(-953.531 -933.786)" fill="#e16ae1"/><path d="M1179.587,1067.992a7.935,7.935,0,1,1,2.585-10.5A7.657,7.657,0,0,1,1179.587,1067.992Z" transform="translate(-1139.577 -1000.201)" fill="#c557c5"/><path d="M1195.909,1083.917a5.155,5.155,0,1,1,1.679-6.823A4.975,4.975,0,0,1,1195.909,1083.917Z" transform="translate(-1157.248 -1018.547)" fill="#0b0754"/><path d="M1579.538,820.42l-12.749,7.912a8.5,8.5,0,0,1-1.554,2l2.709,4.86a8.5,8.5,0,0,1,2.514-.272l13.435-6.682,0-.067a8.155,8.155,0,0,0-4.359-7.747Zm-11.613,9.638h0a1.312,1.312,0,0,1,.371-1.808l7.434-4.567a1.3,1.3,0,0,1,1.768.495h0a1.312,1.312,0,0,1-.37,1.808l-7.434,4.567A1.294,1.294,0,0,1,1567.925,830.058Zm11.139-.394-7.795,3.921a1.312,1.312,0,0,1-1.733-.636h0a1.294,1.294,0,0,1,.509-1.764l7.795-3.921a1.312,1.312,0,0,1,1.733.636h0A1.3,1.3,0,0,1,1579.064,829.665Z" transform="translate(-1485.16 -797.496)" fill="#92b5f9"/><path d="M1233.417,922.624a5.312,5.312,0,0,1,.509,4l41.935-24.852-2.709-4.86-43.462,23.046A5.264,5.264,0,0,1,1233.417,922.624Z" transform="translate(-1193.078 -864.077)" fill="#6237ad"/><rect width="20.849" height="3.105" transform="translate(15 60.823) rotate(60.867)" fill="#c557c5"/><path d="M1575.993,862.618l-.015-.026a.416.416,0,0,1,.161-.566l1.564-.872a.416.416,0,0,1,.566.161l.015.026a.417.417,0,0,1-.161.566l-1.564.872A.416.416,0,0,1,1575.993,862.618Z" transform="translate(-1494.466 -832.907)" fill="#0b0754"/><path d="M1601.539,848.38l-.014-.026a.416.416,0,0,1,.161-.566l1.565-.872a.416.416,0,0,1,.566.161l.015.026a.416.416,0,0,1-.161.566l-1.565.872A.417.417,0,0,1,1601.539,848.38Z" transform="translate(-1516.703 -820.513)" fill="#0b0754"/><path d="M1625.272,833.751l-.014-.026a.416.416,0,0,1,.161-.566l1.565-.872a.416.416,0,0,1,.566.161l.014.026a.416.416,0,0,1-.161.566l-1.564.872A.416.416,0,0,1,1625.272,833.751Z" transform="translate(-1537.362 -807.779)" fill="#0b0754"/><path d="M1662.37,900.31l-.015-.026a.416.416,0,0,1,.161-.566l1.564-.872a.416.416,0,0,1,.566.161l.015.026a.416.416,0,0,1-.161.566l-1.564.872A.416.416,0,0,1,1662.37,900.31Z" transform="translate(-1569.654 -865.717)" fill="#0b0754"/><path d="M1637.644,913.158l-.015-.026a.417.417,0,0,1,.161-.566l1.565-.872a.416.416,0,0,1,.566.161l.015.026a.416.416,0,0,1-.161.566l-1.565.872A.416.416,0,0,1,1637.644,913.158Z" transform="translate(-1548.131 -876.901)" fill="#0b0754"/><path d="M1612.763,927.027l-.015-.026a.417.417,0,0,1,.161-.567l1.564-.872a.417.417,0,0,1,.566.161l.015.026a.416.416,0,0,1-.161.566l-1.565.872A.416.416,0,0,1,1612.763,927.027Z" transform="translate(-1526.473 -888.973)" fill="#0b0754"/><path d="M1564.242,901.769l-2.709-4.86-.551.292,2.724,4.886Z" transform="translate(-1481.458 -864.077)" fill="#dde8fe"/><path d="M1536.95,917.609l-2.809-5.04-.232.123,2.815,5.051Z" transform="translate(-1457.891 -877.71)" fill="#dde8fe"/><path d="M1509.968,932.13l-2.9-5.2-.232.123,2.907,5.215Z" transform="translate(-1434.324 -890.206)" fill="#dde8fe"/><path d="M1487,944.49l-2.979-5.344-.232.123,2.984,5.355Z" transform="translate(-1414.263 -900.844)" fill="#dde8fe"/><path d="M1464.031,956.851l-3.057-5.484-.232.123,3.063,5.495Z" transform="translate(-1394.202 -911.482)" fill="#dde8fe"/><path d="M1442.847,968.252l-3.129-5.613-.232.123,3.135,5.624Z" transform="translate(-1375.699 -921.293)" fill="#dde8fe"/><path d="M1421.662,979.653l-3.2-5.742-.232.123,3.207,5.753Z" transform="translate(-1357.195 -931.105)" fill="#dde8fe"/><path d="M1403.749,989.292l-3.261-5.851-.232.123,3.267,5.862Z" transform="translate(-1341.549 -939.401)" fill="#dde8fe"/><path d="M1385.834,998.933l-3.322-5.96-.232.123,3.328,5.971Z" transform="translate(-1325.903 -947.698)" fill="#dde8fe"/><path d="M1368.515,1008.253l-3.381-6.066-.232.123,3.387,6.077Z" transform="translate(-1310.775 -955.719)" fill="#dde8fe"/><path d="M1352.311,1016.973l-3.436-6.165-.232.123,3.442,6.175Z" transform="translate(-1296.622 -963.224)" fill="#dde8fe"/><path d="M1337,1025.214l-3.488-6.258-.232.123,3.494,6.269Z" transform="translate(-1283.248 -970.316)" fill="#dde8fe"/><path d="M1309.354,1040.09l-3.582-6.426-.232.123,3.588,6.437Z" transform="translate(-1259.103 -983.119)" fill="#dde8fe"/><path d="M1295.825,1047.37l-3.628-6.509-.232.123,3.634,6.52Z" transform="translate(-1247.286 -989.384)" fill="#dde8fe"/><path d="M1284.824,1053.291l-3.665-6.576-.232.123,3.671,6.586Z" transform="translate(-1237.677 -994.48)" fill="#dde8fe"/><path d="M1273.222,1059.535l-3.7-6.646-.232.123,3.711,6.657Z" transform="translate(-1227.543 -999.853)" fill="#dde8fe"/><rect width="0.412" height="1.203" transform="translate(90.888 27.262) rotate(60.844)" fill="#fff"/><rect width="0.282" height="1.071" transform="translate(92.763 30.894) rotate(60.853)" fill="#fff"/><rect width="0.315" height="1.29" transform="translate(87.796 29.079) rotate(60.879)" fill="#fff"/><rect width="0.432" height="1.159" transform="translate(89.558 32.509) rotate(60.856)" fill="#fff"/><rect width="0.356" height="1.113" transform="matrix(0.487, 0.873, -0.873, 0.487, 84.39, 30.791)" fill="#fff"/><rect width="0.211" height="1.028" transform="translate(86.513 34.861) rotate(60.889)" fill="#fff"/><g transform="translate(48.312 49.551)"><path d="M1323.774,1032.33l-3.533-6.338-.232.123,3.539,6.349Z" transform="translate(-1320.009 -1025.992)" fill="#dde8fe"/></g><path d="M1024.251,1023.915a21.61,21.61,0,0,0,2.843.826c1.373.394,3.63.4,3.524.73-.082.257-1.472.408-2.748.309.32.137.467.269.3.376-.7.447-4.694.2-8.363-1.365s-25.033-13.289-22.868-16.59c.8-1.214,4.218-4.717,6.174-7.125l5.595,4.355-2.88,3.146a104.543,104.543,0,0,0,11.515,10.1c.934.67,2.737.091,3.142.08,2.226-.058,5.089-.084,5.566.661s-1.591.492-2.823.872,2.86,3.618,7.114,3.349-.556,1.629-1.958,1.252A25.28,25.28,0,0,0,1024.251,1023.915Z" transform="translate(-990.338 -954.751)" fill="#fb9390"/><path d="M1511.113,910.81c-.082-.217-.28-.043-.525.324.316-1.328.273-2.994.023-3.143-.308-.183-.486,2.14-1.171,3.4s-1.308,2.809-1.4,2.74c-.152-.109.806-1.8,1.481-3.092s.159-7.226-.469-2.971-4.743,7.506-4.863,6.2.57-3.281-.278-2.991-1.095,3.209-1.84,5.323a9.032,9.032,0,0,0-.09,1.867,1.081,1.081,0,0,1-.711,1.022l2.612,3.321c.852-.6,1.593-1.16,2.18-1.656C1510.6,917.322,1511.464,911.743,1511.113,910.81Z" transform="translate(-1429.477 -872.472)" fill="#fb9390"/></g><path d="M752.463,480.174a2.927,2.927,0,0,1,.974-2.385,2.38,2.38,0,0,1,3.4.321c1.04,1.162,1.312,3.4-.11,6.823-3.562,1.035-5.753.52-6.794-.643a2.379,2.379,0,0,1,.055-3.412A2.926,2.926,0,0,1,752.463,480.174Z" transform="translate(-539.459 -74.085)" fill="#92b5f9"/><path d="M778.45,478.11a2.379,2.379,0,0,0-3.4-.321,2.927,2.927,0,0,0-.974,2.385s4.249,4.76,4.261,4.76C779.762,481.507,779.491,479.273,778.45,478.11Z" transform="translate(-561.075 -74.085)" fill="#7c9af2"/><path d="M939.242,576.789a2.926,2.926,0,0,1,1.308-2.22,2.379,2.379,0,0,1,3.315.808c.862,1.3.808,3.551-1.092,6.736-3.674.511-5.768-.315-6.63-1.615a2.379,2.379,0,0,1,.546-3.368A2.927,2.927,0,0,1,939.242,576.789Z" transform="translate(-701.755 -158.501)" fill="#7c9af2"/><path d="M967.781,575.377a2.379,2.379,0,0,0-3.315-.808,2.926,2.926,0,0,0-1.308,2.22s3.53,5.323,3.53,5.324C968.589,578.927,968.643,576.677,967.781,575.377Z" transform="translate(-725.671 -158.501)" fill="#92b5f9"/><g transform="translate(189.289 459.765)"><path d="M606.494,966.316a5.384,5.384,0,0,1,5.105,2.971l1.756,3.328s5.457,3.4,2.18,7.5c0,0,.49,4.468-3.131,6.473a10.767,10.767,0,0,1-4.884.835s-6.183,2.545-9.427.2c0,0-4.414-.436-5.768-3.226-.658-1.357.359-1.531-.366-2.524-1.248-1.71-1.286-3.6.365-4.99a8.625,8.625,0,0,0,2.671-4.483C596.53,967.275,600.474,964.844,606.494,966.316Z" transform="translate(-591.05 -959.23)" fill="#0b0754"/><path d="M737.285,924.329a5.684,5.684,0,0,1-2.936-1.422c-1.08-.873-3.495-1.562-2.839-2.11s2.608.876,2.6.24-3.892-3.86-3.3-4.357,4.06,2.77,4.049,2.2-3.5-3.232-2.655-3.934,3.813,3.477,4.264,3.1-1.492-2.968-.815-3.532,2.482,3.65,2.476,3.316-.167-2.75.325-2.76c.556-.01,1.177,5.094,2.169,5.862s10.348,11.238,9.892,13.589-10.218,10.844-12.771,11.119-4.791-1.424-4.821-3.03,9.409-9.174,9.4-9.678S737.285,924.329,737.285,924.329Z" transform="translate(-712.652 -914.464)" fill="#f7a491"/><path d="M703.3,1084.742c-.2-1.1.023-2.82,2.047-4.7,2.161-2,9-7.4,9-7.4l6.336,7.339s-6.45,6.816-9.646,8.316C705.712,1090.8,703.7,1086.891,703.3,1084.742Z" transform="translate(-688.711 -1052.156)" fill="#c557c5"/><path d="M660.35,1343.016c-4.425-4.325-20.693.081-20.693.081l-19.574.693-2.728,6.9,8.44,10.562s13.062-3.375,14.241-6.711l19.3-5.226S662.435,1345.055,660.35,1343.016Z" transform="translate(-613.947 -1285.852)" fill="#0b0754"/><path d="M630.649,1392.832l-1.4,3.625-10.578,3.243s-5.727-5.894-3.853-10.159,8.612-4.341,11.772-3.1S630.649,1392.832,630.649,1392.832Z" transform="translate(-611.416 -1324.7)" fill="#50bfa5"/><path d="M636.129,1125.235a9.969,9.969,0,0,1,7.992,1.089c2.729,1.8,3.439,5.335,4.106,8.336a73.745,73.745,0,0,1,1.6,12.253c.049.964.5,10.705-.513,10.865-.009,0-16.153,2.553-20.576-1.77a17.233,17.233,0,0,0,1.843-8.466c-.3-5.234-2.491-13.955-2.491-15.98,0-3.765,4.845-5.4,7.773-6.253Q636,1125.27,636.129,1125.235Z" transform="translate(-623.293 -1097.609)" fill="#e16ae1"/><path d="M629.561,1305.025s-13.293,10.231-14.449,14.005.825,8.677,3.853,10.406,8.917-.63,10.762-2.474,3.711-13.411,3.711-13.411Z" transform="translate(-611.705 -1254.437)" fill="#6237ad"/><path d="M726.169,1353.514c-4.047,2.577-10.373,9.445-15.169,11.132a38.744,38.744,0,0,0-7.751,3.633s-2.609,2.143-1.389,3.336,4.6,2.722,11.794-2.842c.88-.68,3.99-1.942,8.257-3.795s10.495-3.668,11.932-4.536c3.253-1.965,1.628-7.161-.216-8.349S728.925,1351.758,726.169,1353.514Z" transform="translate(-687.224 -1294.929)" fill="#fb9390"/><path d="M742.522,1327.983c.225-2.07-6.791-5.25-9.16-7.83-3.6-5.179-8.172-25.932-16.078-23.424h0a4.4,4.4,0,0,0-2.605,1.4c-1.668,1.81-1.911,2.909-.333,6.341,1.691,3.679,11.027,13.669,13.944,16.479,3.678,3.542,5.977,7.476,7.251,8.75C737.424,1331.587,742.448,1328.664,742.522,1327.983Z" transform="translate(-697.453 -1247.034)" fill="#ef7f7f"/><path d="M682.565,1077.474s-.967,5.526.6,7.089c1.649,1.65-6.223.923-6.684-1.718-.249-1.428,1.058-7.64,1.058-7.64Z" transform="translate(-665.385 -1054.385)" fill="#fb9390"/><path d="M680.837,1075.2l5.03,2.269a23.323,23.323,0,0,0-.287,2.911,6.418,6.418,0,0,1-4.166-1.139,8.638,8.638,0,0,1-1.176-.9C680.527,1076.676,680.837,1075.2,680.837,1075.2Z" transform="translate(-668.686 -1054.385)" fill="#ef7f7f"/><path d="M668.357,984.788a7.016,7.016,0,0,0-3.939,2.844c-1.5,2.295-2.535,9.05,2.417,12.2s8.8-1.307,8.868-5.658S674.038,984.2,668.357,984.788Z" transform="translate(-653.834 -975.642)" fill="#fb9390"/><path d="M652.569,1042.589c.359,1.131.03,2.244-.734,2.487s-1.675-.477-2.034-1.608-.03-2.244.734-2.487S652.21,1041.458,652.569,1042.589Z" transform="translate(-642.064 -1024.552)" fill="#fb9390"/><path d="M633.6,981.045s-.315,5.238-6.778,7.453-4.894,4.29-4.894,4.29a5.616,5.616,0,0,1,1.3-6.512c3.112-3.112,4.134-4.06,5.305-5.231S633.6,981.045,633.6,981.045Z" transform="translate(-617.475 -971.968)" fill="#0b0754"/><path d="M616.867,1218a5.681,5.681,0,0,1,3.191-.675c1.388.028,3.719-.907,3.536-.072s-2.6.906-2.2,1.4,5.442.666,5.276,1.423-4.906.3-4.549.741,4.743.413,4.508,1.483-5.143-.412-5.269.162,3,1.431,2.808,2.293-4.2-1.364-3.988-1.1,1.818,2.071,1.434,2.38c-.433.349-4.051-3.3-5.306-3.3s-15.064-2.542-16.144-4.679,1.431-14.831,3.28-16.612,4.659-1.81,5.667-.559-1.815,13.016-1.5,13.408S616.867,1218,616.867,1218Z" transform="translate(-598.759 -1163.022)" fill="#fb9390"/><path d="M616.652,1137.6c.834.745,1.709,2.243,1.26,4.966-.48,2.908-2.577,11.362-2.577,11.362l-9.5-1.918s.921-9.338,2.528-12.483C611.036,1134.282,615.024,1136.14,616.652,1137.6Z" transform="translate(-603.916 -1107.347)" fill="#c557c5"/></g><g transform="translate(129.507 473.41)"><path d="M361.706,1123.067a6.269,6.269,0,0,1-.285-3.592c.229-1.517-.464-4.2.425-3.885s.623,2.974,1.222,2.606,1.506-5.869,2.312-5.581-.372,5.417.165,5.089,1.128-5.139,2.268-4.731-1.185,5.578-.574,5.8,2-3.083,2.914-2.755-2.094,4.408-1.778,4.215,2.53-1.7,2.814-1.237c.321.524-4.2,3.973-4.378,5.349s-4.933,16.148-7.431,17.031-16.056-3.655-17.746-5.932-1.321-5.36.194-6.288,14.011,3.821,14.487,3.529S361.706,1123.067,361.706,1123.067Z" transform="translate(-313.188 -1100.586)" fill="#ef7f7f"/><path d="M304.625,1221.741c-1.386-1.386-12.585-5.969-15.786-5.69a4.984,4.984,0,0,0-3.992,2.4,4.649,4.649,0,0,0,.22,5.11c2.177,3.429,17.249,8.279,17.881,7.367C303.539,1230.076,304.7,1221.818,304.625,1221.741Z" transform="translate(-264.148 -1190.622)" fill="#7c9af2"/><path d="M173.775,1531.4s21.369,2.213,27.361,2.053,7.383-5.279,6.647-7.832a10.909,10.909,0,0,0-4.585-5.807l-12.461,2.008s1.37,3.2,2.541,6.964c.1.311-7.779-4.45-16.665-2.317-1.95.468-3.927-1.954-4.981-1.845s-13.4,5.366-13.3,6.344S173.775,1531.4,173.775,1531.4Z" transform="translate(-154.601 -1455.047)" fill="#ef7f7f"/><path d="M237.333,1472.122s-.234,3.965.511,4.967c5.587,7.517,24.171,8.009,24.171,8.009s6.086-5.894,8.741-7.439c1.7-.988,3.181.274,3.42-.559,1.667-5.822-23.041-7.474-23.041-7.474Z" transform="translate(-223.337 -1411.363)" fill="#7c9af2"/><path d="M449.535,1431.906H431.918l-1.116-26.838a2.372,2.372,0,0,1,2.37-2.471h15.034a2.373,2.373,0,0,1,2.371,2.464Z" transform="translate(-391.774 -1353.016)" fill="#e16ae1"/><path d="M423.989,1407.456h21.358l.1-2.4a2.477,2.477,0,0,0-2.586-2.464h-16.4a2.476,2.476,0,0,0-2.585,2.471Z" transform="translate(-385.75 -1353.016)" fill="#92b5f9"/><path d="M370.446,1557.888s-7.359,9.951-12.915,6.711-2.141-7.565-2.141-7.565l9.152-1.253Z" transform="translate(-325.228 -1486.358)" fill="#3c8f7c"/><path d="M142.141,1571.31s21.031,4.388,27.007,4.842,7.884-4.5,7.414-7.111a10.908,10.908,0,0,0-3.967-6.246l-12.6.723s1.036,3.321,1.816,7.187c.064.32-7.283-5.223-16.34-4.009-1.988.266-3.707-2.345-4.766-2.345s-11.2,7.262-11.2,8.246S142.141,1571.31,142.141,1571.31Z" transform="translate(-129.507 -1492.464)" fill="#fb9390"/><path d="M197.687,1458.722s-.638,3.92,0,4.993c4.788,8.049,23.224,10.44,23.224,10.44s6.657-5.24,9.456-6.506a4.987,4.987,0,0,1,3.459-.206l-19.946-15.565Z" transform="translate(-188.609 -1395.914)" fill="#92b5f9"/><path d="M194.909,1213.9s-5.2-1.117-9.725,3.781c-4.361,4.725-8.952,35.985-8.952,35.985s12.331,3.631,17.1,0,5.447-5.144,5.447-5.144,2.682-8.859,3.061-11.754,2.394-11.729.51-18.578C201.7,1215.856,194.909,1213.9,194.909,1213.9Z" transform="translate(-170.18 -1188.665)" fill="#6237ad"/><path d="M315.676,1140.692l-.338,3.732-3.127,5.74s6.165,7.967,8.068,6.064c.425-.425,1.5-8.858,1.5-8.858Z" transform="translate(-288.547 -1125.034)" fill="#fb9390"/><path d="M331.959,1144.424l-.654,1.274a22.6,22.6,0,0,0,6.719,4.452c.217-1.547.374-2.781.374-2.781l-6.1-6.678Z" transform="translate(-305.167 -1125.034)" fill="#ef7f7f"/><path d="M294.887,1042.946s3.241,3.489,3.8,4.41c2.334,3.817,2.271,13.533.518,14.71-2.941,1.974-9.867-.118-14.079-3.167s-5.543-7.989-1.687-12.284S294.887,1042.946,294.887,1042.946Z" transform="translate(-261.515 -1039.922)" fill="#fb9390"/><path d="M270.514,1022.4a43.15,43.15,0,0,1,9.122-2.454,6.551,6.551,0,0,1,2.256-.064,3.192,3.192,0,0,1,2.443,3.039l.087,3.289s-2.472-1.252-3.829-.44-.09,4.174-1.022,5.708-2.624,1.511-2.993,2.981,1.031,5.89-1.509,7.411c-2.455,1.469-4.822-.262-6.294-2.235a16.066,16.066,0,0,1-2.983-8.138C265.235,1025.394,266.661,1023.907,270.514,1022.4Z" transform="translate(-248.039 -1019.809)" fill="#0b0754"/><path d="M338.825,1109.724s-1.1-3.206-2.785-1.952,1.172,5.693,2.677,5.016S338.825,1109.724,338.825,1109.724Z" transform="translate(-308.839 -1096.125)" fill="#fb9390"/><path d="M288.1,1287a6.269,6.269,0,0,1,2.678-2.41c1.343-.741,3.054-2.924,3.343-2.025s-1.982,2.3-1.326,2.556,5.575-2.374,5.836-1.559-4.527,3-3.94,3.225,4.766-2.229,5.135-1.077-5.149,2.451-4.95,3.069,3.661-.289,3.959.638-4.773,1.018-4.427,1.152,2.888.974,2.693,1.482c-.221.573-5.709-.918-6.909-.222s-15.819,5.9-18.039,4.458-6.862-14.969-6.082-17.7,3.452-4.308,5.11-3.669,5.487,13.446,6.008,13.647S288.1,1287,288.1,1287Z" transform="translate(-248.309 -1241.755)" fill="#fb9390"/><path d="M241.132,1226.736c-1.4,3.814,2.641,19.738,3.623,19.224l10.341-5.414c-.4-1.92-3.543-13.009-5.711-15.381a4.984,4.984,0,0,0-4.331-1.711A4.649,4.649,0,0,0,241.132,1226.736Z" transform="translate(-226.42 -1197.042)" fill="#7c9af2"/><path d="M519.606,1164.651a2.976,2.976,0,0,1,.8.858,3.115,3.115,0,0,1,.4,2.5A5.3,5.3,0,0,0,519.606,1164.651Z" transform="translate(-469.078 -1145.89)" fill="#e16ae1"/></g><path d="M1671.593,1454.859s-6.537,5.21-7.782,7.163c-2.608,4.092,1.185,6.442,2.319,6.442s10.462-7.112,10.462-7.112Z" transform="translate(-1334.789 -925.098)" fill="#ef7f7f"/><path d="M1692.864,1468.387s-15.461,6.8-15.461,11.956,5.666,5.157,6.888,4.965c14.45-2.272,20.427-6.887,22.425-6.661,1.373.155-.027,2.712-.027,2.712s-1.56.581-.89,1.251,3.738.695,4.462-.155c.616-.723.085-1.552.2-3.8.068-1.3.7-2.983-.1-4.323-.452-.751-18.219,2.81-18.941,2.089S1692.864,1468.387,1692.864,1468.387Z" transform="translate(-1347.402 -936.874)" fill="#fb9390"/><path d="M1736.151,1181.518s-7.988,8.959-9.431,12.184.773,16.006-.773,16.985-14.327,6.287-14.327,6.287,5.875,10.822,10.462,12.369,12.751-2.68,17.522-2.68c5.961,0,6.367-10.742,3.584-15.75a16.642,16.642,0,0,1-1.42-12.183c1.031-3.5,3.814-11.492,1.907-14.378S1737.027,1181.518,1736.151,1181.518Z" transform="translate(-1377.187 -687.162)" fill="#92b5f9"/><path d="M1887.954,1131.591s.967,5.526-.6,7.089c-1.649,1.65,6.223.923,6.683-1.718.249-1.428-1.058-7.64-1.058-7.64Z" transform="translate(-1529.966 -641.726)" fill="#fb9390"/><path d="M1898.51,1129.321l-5.03,2.27a23.245,23.245,0,0,1,.286,2.911,6.417,6.417,0,0,0,4.166-1.139,8.644,8.644,0,0,0,1.176-.9C1898.82,1130.792,1898.51,1129.321,1898.51,1129.321Z" transform="translate(-1535.492 -641.726)" fill="#ef7f7f"/><path d="M1864.616,1038.729a7.018,7.018,0,0,1,3.939,2.844c1.5,2.295,2.535,9.05-2.417,12.2s-8.8-1.307-8.868-5.658S1858.139,1037.962,1864.616,1038.729Z" transform="translate(-1503.969 -562.809)" fill="#fb9390"/><path d="M1944.046,1096.707c-.359,1.131-.03,2.244.734,2.487s1.675-.477,2.034-1.608.031-2.244-.734-2.487S1944.405,1095.576,1944.046,1096.707Z" transform="translate(-1579.381 -611.896)" fill="#fb9390"/><path d="M1699.508,1243.5a5.288,5.288,0,0,0-1.374-2.708c-.831-.991-1.514-3.227-2.012-2.607s.86,2.413.268,2.413-3.66-3.557-4.112-3,2.648,3.732,2.119,3.732-3.069-3.2-3.707-2.4,3.3,3.489,2.96,3.915-2.788-1.338-3.3-.7,3.44,2.248,3.129,2.248-2.563-.108-2.563.349c0,.518,4.762,1.008,5.494,1.919s10.639,9.44,12.82,8.974,9.919-9.7,10.131-12.079-1.408-4.436-2.9-4.436-8.378,8.917-8.848,8.917S1699.508,1243.5,1699.508,1243.5Z" transform="translate(-1358.629 -735.929)" fill="#fb9390"/><path d="M1848.947,1208.058c-1.027-.169-2.625.07-4.337,1.986-1.829,2.046-6.734,8.5-6.734,8.5l6.941,5.772s6.234-6.121,7.576-9.122C1854.629,1210.2,1850.954,1208.389,1848.947,1208.058Z" transform="translate(-1487.09 -710.226)" fill="#bed1f9"/><path d="M473.009,695.448a1.9,1.9,0,1,0,.632-2.872,1.61,1.61,0,0,0-.587.512l-1.46-3.139,5.356-.939,2.5,5.368h0l.009.019a1.895,1.895,0,1,0,.659-2.824,1.611,1.611,0,0,0-.586.511l-2.674-5.75a.422.422,0,0,0-.443-.261l-6.671,1.352a.376.376,0,0,0-.212.554L473,695.451Z" transform="translate(-295.94 -255.885)" fill="#7c9af2"/><g transform="translate(257.295 392.106)"><g transform="translate(0 1.294)"><g transform="translate(0 4.958)"><path d="M1165.206,452.868a29.09,29.09,0,0,0-12.278-4.467c-10.942-1.552-27.677,5.9-35.137-4.342a10.24,10.24,0,0,1-1.7-3.46.186.186,0,0,1,.362-.081h0a10.084,10.084,0,0,0,1.652,3.336c7.315,10.01,23.875,2.617,34.879,4.178a30.244,30.244,0,0,1,12.447,4.537A.186.186,0,0,1,1165.206,452.868Z" transform="translate(-1116.082 -440.374)" fill="#6237ad"/></g><g transform="translate(2.718 3.305)"><path d="M1182.944,439.855a26.509,26.509,0,0,0-11.143-4.082c-7.448-1.078-18.022,1.667-25.025.076a13.647,13.647,0,0,1-7.937-4.694,9.383,9.383,0,0,1-1.766-3.315.186.186,0,0,1,.361-.086,9.22,9.22,0,0,0,1.709,3.186,13.289,13.289,0,0,0,7.715,4.546c6.932,1.574,17.485-1.169,25-.082a26.919,26.919,0,0,1,11.309,4.149.186.186,0,1,1-.219.3Z" transform="translate(-1137.067 -427.613)" fill="#6237ad"/></g><g transform="translate(5.436 1.652)"><path d="M1200.681,426.84a23.677,23.677,0,0,0-10.007-3.7c-7.2-1.065-16.318.828-22.54-.431a14.217,14.217,0,0,1-8.249-4.452,8.641,8.641,0,0,1-1.826-3.18.186.186,0,0,1,.36-.091h0a8.468,8.468,0,0,0,1.763,3.045,13.866,13.866,0,0,0,8.026,4.313c3.142.636,7.011.457,11.107.267a61.5,61.5,0,0,1,11.413.16,24.064,24.064,0,0,1,10.172,3.763A.186.186,0,0,1,1200.681,426.84Z" transform="translate(-1158.052 -414.852)" fill="#6237ad"/></g><g transform="translate(8.154)"><path d="M1218.417,413.829c-7.911-5.78-21.011-2.864-28.925-4.249-4.61-.806-7.2-2.726-8.564-4.195a7.989,7.989,0,0,1-1.884-3.059.186.186,0,0,1,.359-.1,7.8,7.8,0,0,0,1.814,2.92c1.324,1.42,3.845,3.278,8.339,4.064,7.887,1.379,21.041-1.559,29.08,4.315a.186.186,0,0,1-.219.3Z" transform="translate(-1179.036 -402.094)" fill="#6237ad"/></g></g><g transform="translate(4.427 0)"><path d="M1162.253,396.426h0a15.822,15.822,0,0,1-2.531-3.188c-.906-1.347-.772-1.06-1.029-1.132-.509,0-.485-.036-2.789,8.72-2.038-1.79-6.107-.038-5.6,2.416.261,1.268,1.828,2.134,3.632,1.763a3.342,3.342,0,0,0,2.58-2.04h0c.081-.259,1.084-4.063,1.919-7.148.859,1.758,3.311,2.673,4.494,1.5l.358-.354-.47-.18A3.855,3.855,0,0,1,1162.253,396.426Z" transform="translate(-1150.258 -392.106)" fill="#6237ad"/><path d="M1404.4,433.359h0a14.093,14.093,0,0,1-3.37-1.316c-1.024-.5-1.13-.547-1.331-.411-.432.249-.4.253,1.734,7.961-2.389-.4-4.713,2.769-3.209,4.445,1.59,1.774,5.273-.551,4.723-3.035h0c-.054-.235-.98-3.587-1.708-6.283,1.465.914,3.727.508,4.114-.931l.13-.486A2.644,2.644,0,0,1,1404.4,433.359Z" transform="translate(-1365.693 -426.456)" fill="#6237ad"/><path d="M1268.516,409.038c-.075-.329-1.038-3.885-2.215-8.253-4.554,1.424-4.384,1.438-8.8,1.614.6,2.245,1.21,4.5,1.71,6.311-2.425-.409-4.693,2.79-3.21,4.445,1.6,1.787,5.27-.564,4.724-3.035h0c-.052-.227-.6-2.2-1.446-5.313l6.614-1.248c.262.962.609,2.222,1.12,4.068-2.412-.405-4.7,2.783-3.209,4.445.82.915,2.454.794,3.641-.271a3.015,3.015,0,0,0,1.083-2.764Z" transform="translate(-1241.889 -399.661)" fill="#6237ad"/></g></g><path d="M1545.041,498.372l.153-3.011,1.21.061-.085,1.667,2.409-.131.066,1.21Z" transform="translate(-1232.185 -89.881)" fill="#dde8fe"/><path d="M1848.865,654.93h0a14.1,14.1,0,0,1-1.7-3.195c-.453-1.042-.5-1.151-.742-1.179-.49-.093-.471-.071-3.874,7.167-1.55-1.862-5.379-.972-5.331,1.28.05,2.382,4.358,3.019,5.56.777h0c.113-.214,1.594-3.36,2.8-5.879.516,1.648,2.5,2.814,3.727,1.975l.416-.284A2.646,2.646,0,0,1,1848.865,654.93Z" transform="translate(-1486.517 -224.959)" fill="#7c9af2"/><path d="M566.185,517.486c-.075-.329-1.038-3.885-2.215-8.253-4.554,1.424-4.384,1.438-8.805,1.614.6,2.245,1.21,4.5,1.71,6.311-2.425-.408-4.693,2.79-3.21,4.445,1.6,1.787,5.27-.564,4.723-3.035h0c-.052-.227-.6-2.2-1.446-5.313l6.614-1.248c.262.963.609,2.222,1.12,4.068-2.412-.405-4.7,2.783-3.209,4.445.82.915,2.454.794,3.64-.271a3.015,3.015,0,0,0,1.083-2.765Z" transform="translate(-368.807 -101.956)" fill="#92b5f9"/></g></svg>