<svg xmlns="http://www.w3.org/2000/svg" width="120" height="120" viewBox="0 0 120 120"><g transform="translate(-240 -3672)"><rect width="120" height="120" transform="translate(240 3672)" fill="none"/><path d="M74.594,87,57.076,69.485a4.206,4.206,0,0,1-1.314-3.065,3.981,3.981,0,0,1,1.314-3.066L46.42,52.7A29.171,29.171,0,1,1,29.195,0,28.785,28.785,0,0,1,51.968,11.094L49.34,12.407A25.876,25.876,0,0,0,29.195,2.919,26.276,26.276,0,1,0,52.405,41.6a19.506,19.506,0,0,0,2.628,1.021,25.839,25.839,0,0,1-2.482,3.941l10.8,10.657a4.064,4.064,0,0,1,5.986,0L86.856,74.74a4.234,4.234,0,0,1,0,6.131L80.724,87a3.972,3.972,0,0,1-3.065,1.314A4.2,4.2,0,0,1,74.594,87ZM65.4,59.12l-6.131,6.131a1.411,1.411,0,0,0,0,2.043L76.783,84.813a1.413,1.413,0,0,0,2.044,0l6.131-6.131a1.413,1.413,0,0,0,0-2.044L67.44,59.12a1.575,1.575,0,0,0-1.021-.437A1.325,1.325,0,0,0,65.4,59.12ZM48.756,50.8,59.12,61.31l2.19-2.044L50.8,48.756A13.548,13.548,0,0,1,48.756,50.8ZM84.228,26.276A44.069,44.069,0,0,0,73.864,17.81a12.375,12.375,0,0,1,2.044,7.006,13.138,13.138,0,0,1-26.276,0,12.722,12.722,0,0,1,2.043-7.006,47.238,47.238,0,0,0-10.364,8.466C46.713,32.114,56.493,40,56.493,40c-6.131-1.751-12.262-5.984-18.247-12.7l-.729-1.022.875-1.022c8.029-8.9,16.057-13.429,24.233-13.575h.146q12.48,0,24.523,13.575l.876,1.022L87.293,27.3C81.163,34.013,75.031,38.246,69.047,40,69.047,40,78.827,31.968,84.228,26.276Zm-31.677-1.46A10.219,10.219,0,1,0,62.77,14.6,10.156,10.156,0,0,0,52.551,24.816ZM20.144,7.737l1.168,2.628A20.42,20.42,0,0,0,10.219,36.932L7.591,38.1A23.191,23.191,0,0,1,20.144,7.737Z" transform="translate(256 3688)" fill="#fff"/></g></svg>