<svg xmlns="http://www.w3.org/2000/svg" width="90.756" height="90.751" viewBox="0 0 90.756 90.751"><path d="M66.649,90.751A4.254,4.254,0,0,1,62.4,86.5V68.062h-18.9a13.445,13.445,0,0,0-.951,5.785,13.213,13.213,0,0,0,.951,4.141h3.3a1.418,1.418,0,1,1,0,2.836H24.107a1.418,1.418,0,1,1,0-2.836H27.44a13.2,13.2,0,0,0,.921-4.141,13.433,13.433,0,0,0-.921-5.785H4.254A4.253,4.253,0,0,1,0,63.808V21.265a4.253,4.253,0,0,1,4.254-4.254H55.348c.269-.269.525-.539.808-.808A122.572,122.572,0,0,1,70.336,3.81C75.469.123,78.249-.8,79.724.661s.525,4.268-3.149,9.387a105.723,105.723,0,0,1-6.85,8.282A4.258,4.258,0,0,1,70.9,21.265V45.372H86.5a4.254,4.254,0,0,1,4.254,4.255V86.5A4.254,4.254,0,0,1,86.5,90.751ZM65.231,49.627V86.5a1.419,1.419,0,0,0,1.418,1.419H86.5A1.419,1.419,0,0,0,87.92,86.5V49.627A1.419,1.419,0,0,0,86.5,48.208H66.649A1.419,1.419,0,0,0,65.231,49.627ZM31.2,74.018a16.193,16.193,0,0,1-.766,3.97H40.457a15.71,15.71,0,0,1-.752-3.97,16.559,16.559,0,0,1,.78-5.956H30.446A16.55,16.55,0,0,1,31.2,74.018ZM2.836,63.808a1.419,1.419,0,0,0,1.418,1.418H62.4V59.553H2.836Zm0-42.543V56.717H62.4v-7.09a4.254,4.254,0,0,1,4.254-4.255h1.418V21.265a1.318,1.318,0,0,0-.269-.822c-1.163,1.248-2.4,2.51-3.658,3.771a124.1,124.1,0,0,1-14.182,12.4,37.133,37.133,0,0,1-3.927,2.523A14.919,14.919,0,0,1,38.8,48.208H51.05a1.419,1.419,0,0,1,0,2.837H14.181a1.419,1.419,0,0,1,0-2.837H25.525c.95,0,3.021-2.126,4.523-3.672l.128-.142a23.539,23.539,0,0,0,3.191-4.17,12.943,12.943,0,0,1,4.184-4.552,10.963,10.963,0,0,1,3.673-1.418,36.345,36.345,0,0,1,2.5-3.885,110.684,110.684,0,0,1,8.848-10.523H4.254A1.419,1.419,0,0,0,2.836,21.265ZM39.139,38a10.239,10.239,0,0,0-3.29,3.673,26.731,26.731,0,0,1-3.531,4.623l-.128.128-1.418,1.419c5.956-.851,9.771-3.3,11.77-7.474h-.269a2.282,2.282,0,0,1-1.7-.666,2.412,2.412,0,0,1-.525-2.128A7.829,7.829,0,0,0,39.139,38Zm19-19.8c-9.374,9.331-14.663,16.861-15.33,19.315,2.454-.652,9.984-5.914,19.315-15.3S76.745,5.355,77.427,2.9C74.973,3.568,67.443,8.857,58.141,18.2Zm15.6,66.876a1.418,1.418,0,0,1,0-2.836h5.672a1.418,1.418,0,1,1,0,2.836ZM34.034,63.808a1.419,1.419,0,0,1,0-2.837H36.87a1.419,1.419,0,0,1,0,2.837ZM75.158,51.045a1.418,1.418,0,1,1,1.418,1.418A1.417,1.417,0,0,1,75.158,51.045Z" fill="#fff"/></svg>